<svg xmlns="http://www.w3.org/2000/svg" xmlns:xlink="http://www.w3.org/1999/xlink" width="106" height="106" viewBox="0 0 106 106">
  <defs>
    <filter id="Trazado_982547" x="0" y="0" width="106" height="106" filterUnits="userSpaceOnUse">
      <feOffset dy="3" input="SourceAlpha"/>
      <feGaussianBlur stdDeviation="3" result="blur"/>
      <feFlood flood-opacity="0.161"/>
      <feComposite operator="in" in2="blur"/>
      <feComposite in="SourceGraphic"/>
    </filter>
  </defs>
  <g id="Grupo_1173584" data-name="Grupo 1173584" transform="translate(-171 -1382)">
    <g id="Grupo_1173169" data-name="Grupo 1173169" transform="translate(0 -2329)">
      <g id="Grupo_1172017" data-name="Grupo 1172017" transform="translate(0 2654)">
        <g id="Grupo_1167337" data-name="Grupo 1167337" transform="translate(180 1063)">
          <g id="Grupo_1166720" data-name="Grupo 1166720" transform="translate(0)">
            <g id="Grupo_1164305" data-name="Grupo 1164305">
              <g id="Grupo_1163948" data-name="Grupo 1163948">
                <g id="Grupo_1158168" data-name="Grupo 1158168">
                  <g id="Grupo_1152576" data-name="Grupo 1152576">
                    <g id="Grupo_1148633" data-name="Grupo 1148633">
                      <g id="Grupo_1148525" data-name="Grupo 1148525">
                        <g transform="matrix(1, 0, 0, 1, -9, -6)" filter="url(#Trazado_982547)">
                          <g id="Trazado_982547-2" data-name="Trazado 982547" transform="translate(9 6)" fill="#fff4e6">
                            <path d="M 44 86.5 C 38.26187515258789 86.5 32.69618606567383 85.37651062011719 27.45755004882812 83.16075897216797 C 22.3968505859375 81.020263671875 17.85157585144043 77.95565032958984 13.94796276092529 74.05204010009766 C 10.04434967041016 70.1484375 6.979737281799316 65.6031494140625 4.839250087738037 60.54246139526367 C 2.62348747253418 55.30381393432617 1.5 49.73812484741211 1.5 44 C 1.5 38.26187515258789 2.62348747253418 32.69618606567383 4.839250087738037 27.45755004882812 C 6.979737281799316 22.3968505859375 10.04434967041016 17.85157585144043 13.94796276092529 13.94796276092529 C 17.85157585144043 10.04434967041016 22.3968505859375 6.979737281799316 27.45755004882812 4.839250087738037 C 32.69618606567383 2.62348747253418 38.26187515258789 1.5 44 1.5 C 49.73812484741211 1.5 55.30381393432617 2.62348747253418 60.54246139526367 4.839250087738037 C 65.6031494140625 6.979737281799316 70.1484375 10.04434967041016 74.05204010009766 13.94796276092529 C 77.95565032958984 17.85157585144043 81.020263671875 22.3968505859375 83.16075897216797 27.45755004882812 C 85.37651062011719 32.69618606567383 86.5 38.26187515258789 86.5 44 C 86.5 49.73812484741211 85.37651062011719 55.30381393432617 83.16075897216797 60.54246139526367 C 81.020263671875 65.6031494140625 77.95565032958984 70.1484375 74.05204010009766 74.05204010009766 C 70.1484375 77.95565032958984 65.6031494140625 81.020263671875 60.54246139526367 83.16075897216797 C 55.30381393432617 85.37651062011719 49.73812484741211 86.5 44 86.5 Z" stroke="none"/>
                            <path d="M 44 3 C 38.46371459960938 3 33.09462738037109 4.083610534667969 28.0418701171875 6.220756530761719 C 23.15997314453125 8.285614013671875 18.77495574951172 11.24228668212891 15.00862884521484 15.00862884521484 C 11.24228668212891 18.77495574951172 8.285614013671875 23.15997314453125 6.220756530761719 28.0418701171875 C 4.083610534667969 33.09462738037109 3 38.46371459960938 3 44 C 3 49.53628540039062 4.083610534667969 54.9053840637207 6.220756530761719 59.9581298828125 C 8.285614013671875 64.84002685546875 11.24228668212891 69.22504425048828 15.00862884521484 72.99138641357422 C 18.77495574951172 76.75771331787109 23.15997314453125 79.71438598632812 28.0418701171875 81.77925872802734 C 33.09462738037109 83.9163818359375 38.46371459960938 85 44 85 C 49.53628540039062 85 54.9053840637207 83.9163818359375 59.95814514160156 81.77925872802734 C 64.84002685546875 79.71438598632812 69.22504425048828 76.75771331787109 72.99138641357422 72.99138641357422 C 76.75771331787109 69.22504425048828 79.71438598632812 64.84002685546875 81.77925872802734 59.95814514160156 C 83.9163818359375 54.9053840637207 85 49.53628540039062 85 44 C 85 38.46371459960938 83.9163818359375 33.09462738037109 81.77925872802734 28.0418701171875 C 79.71438598632812 23.15997314453125 76.75771331787109 18.77495574951172 72.99138641357422 15.00862884521484 C 69.22504425048828 11.24228668212891 64.84002685546875 8.285614013671875 59.9581298828125 6.220756530761719 C 54.9053840637207 4.083610534667969 49.53628540039062 3 44 3 M 44 0 C 68.30054473876953 0 88 19.69947052001953 88 44 C 88 68.30054473876953 68.30054473876953 88 44 88 C 19.69947052001953 88 0 68.30054473876953 0 44 C 0 19.69947052001953 19.69947052001953 0 44 0 Z" stroke="none" fill="#ff9d1c"/>
                          </g>
                        </g>
                      </g>
                    </g>
                  </g>
                </g>
              </g>
            </g>
          </g>
        </g>
      </g>
    </g>
    <g id="support_994285_2_" data-name="support_994285 (2)" transform="translate(197.299 1405.799)">
      <path id="Trazado_1029442" data-name="Trazado 1029442" d="M339.4,8.533h-11.57a3.56,3.56,0,0,0-3.56,3.56v8.9a3.56,3.56,0,0,0,3.56,3.56h2.67V29l4.45-4.45h4.45a3.56,3.56,0,0,0,3.56-3.56v-8.9A3.56,3.56,0,0,0,339.4,8.533Z" transform="translate(-290.446 -7.643)" fill="#f0e4d6"/>
      <path id="Trazado_1029443" data-name="Trazado 1029443" d="M351.78,13.466a26.784,26.784,0,0,1-15.72,14.616,3.527,3.527,0,0,0,2.33.89h2.67v4.45l4.45-4.45h4.45a3.56,3.56,0,0,0,3.56-3.56v-8.9A3.547,3.547,0,0,0,351.78,13.466Z" transform="translate(-301.009 -12.061)" fill="#ebdcca"/>
      <path id="Trazado_1029444" data-name="Trazado 1029444" d="M45.024,275.058l8.9-16.911H46.8l-4.45,8.01v-7.12a5.34,5.34,0,0,0-5.34-5.34h-5.34a2.67,2.67,0,0,1-2.67-2.67v-3.56h-7.12v3.56a2.67,2.67,0,0,1-2.67,2.67h-5.34a5.34,5.34,0,0,0-5.34,5.34v16.021Z" transform="translate(-7.642 -221.656)" fill="#fec9a3"/>
      <g id="Grupo_1173581" data-name="Grupo 1173581" transform="translate(4.45 39.968)">
        <path id="Trazado_1029445" data-name="Trazado 1029445" d="M46.2,396.632h-1.78v-2.367a8.871,8.871,0,0,1-.368-10.042L44.7,383.2l1.5.954-.651,1.024A7.091,7.091,0,0,0,46,393.406a.889.889,0,0,1,.195.556v2.67Z" transform="translate(-42.669 -383.198)" fill="#f5b789"/>
        <path id="Trazado_1029446" data-name="Trazado 1029446" d="M266.558,396.632h-1.78v-2.67a.889.889,0,0,1,.195-.556,7.089,7.089,0,0,0,.449-8.228l-.651-1.025,1.5-.954.651,1.025a8.872,8.872,0,0,1-.368,10.042Z" transform="translate(-241.606 -383.198)" fill="#f5b789"/>
      </g>
      <path id="Trazado_1029447" data-name="Trazado 1029447" d="M76.121,29.894v-8.9A12.46,12.46,0,0,0,63.66,8.533h0A12.46,12.46,0,0,0,51.2,20.994v8.9a5.34,5.34,0,0,0,5.34,5.34H70.781A5.34,5.34,0,0,0,76.121,29.894Z" transform="translate(-45.86 -7.643)" fill="#f9b44d"/>
      <path id="Trazado_1029448" data-name="Trazado 1029448" d="M140.094,8.533a12.462,12.462,0,0,0-3.56.522,12.462,12.462,0,0,1,8.9,11.938v8.9a5.34,5.34,0,0,1-5.34,5.34h7.12a5.34,5.34,0,0,0,5.34-5.34v-8.9A12.461,12.461,0,0,0,140.094,8.533Z" transform="translate(-122.293 -7.643)" fill="#f7aa36"/>
      <path id="Trazado_1029449" data-name="Trazado 1029449" d="M383.477,304.007h-8.01a5.34,5.34,0,0,1,5.34-5.34h8.01A5.34,5.34,0,0,1,383.477,304.007Z" transform="translate(-336.305 -267.516)" fill="#fec9a3"/>
      <g id="Grupo_1173582" data-name="Grupo 1173582" transform="translate(37.381 4.45)">
        <rect id="Rectángulo_414953" data-name="Rectángulo 414953" width="6.23" height="1.78" fill="#ccbfb0"/>
        <rect id="Rectángulo_414954" data-name="Rectángulo 414954" width="3.56" height="1.78" transform="translate(8.01)" fill="#ccbfb0"/>
        <rect id="Rectángulo_414955" data-name="Rectángulo 414955" width="11.57" height="1.78" transform="translate(0 3.56)" fill="#ccbfb0"/>
        <rect id="Rectángulo_414956" data-name="Rectángulo 414956" width="6.23" height="1.78" transform="translate(0 7.12)" fill="#ccbfb0"/>
      </g>
      <path id="Trazado_1029450" data-name="Trazado 1029450" d="M143.659,251.072v-3.605h-7.125v3.605a7.946,7.946,0,0,0,7.129,0Z" transform="translate(-122.293 -221.656)" fill="#f7c097"/>
      <path id="Trazado_1029451" data-name="Trazado 1029451" d="M93.867,90.118v3.833a8.01,8.01,0,1,0,16.021,0V86.83a7.967,7.967,0,0,0-.959-3.8Z" transform="translate(-84.077 -74.37)" fill="#fec9a3"/>
      <rect id="Rectángulo_414957" data-name="Rectángulo 414957" width="12.461" height="9.79" transform="translate(11.57 37.381)" fill="#e8594a"/>
      <path id="Trazado_1029452" data-name="Trazado 1029452" d="M46.8,311.65l-4.45,8.01v-7.12a5.34,5.34,0,0,0-5.34-5.34H34.166l-8.722,11.57L17.166,307.2H13.873a5.34,5.34,0,0,0-5.34,5.34v16.021H45.024l8.9-16.911Z" transform="translate(-7.643 -275.159)" fill="#4398d1"/>
      <path id="Trazado_1029453" data-name="Trazado 1029453" d="M169.026,311.94h-7.12l-4.45,8.01v-7.12a5.34,5.34,0,0,0-4.754-5.306c-1.6,12.433-9.07,18.442-15.664,21.327h23.088Z" transform="translate(-122.744 -275.449)" fill="#3f8fc4"/>
      <g id="Grupo_1173583" data-name="Grupo 1173583" transform="translate(4.45 39.968)">
        <path id="Trazado_1029454" data-name="Trazado 1029454" d="M46.2,396.632h-1.78v-2.367a8.871,8.871,0,0,1-.368-10.042L44.7,383.2l1.5.954-.651,1.024A7.091,7.091,0,0,0,46,393.406a.889.889,0,0,1,.195.556v2.67Z" transform="translate(-42.669 -383.198)" fill="#3685ba"/>
        <path id="Trazado_1029455" data-name="Trazado 1029455" d="M266.558,396.632h-1.78v-2.67a.889.889,0,0,1,.195-.556,7.089,7.089,0,0,0,.449-8.228l-.651-1.025,1.5-.954.651,1.025a8.872,8.872,0,0,1-.368,10.042Z" transform="translate(-241.606 -383.198)" fill="#3685ba"/>
      </g>
      <path id="Trazado_1029456" data-name="Trazado 1029456" d="M178.677,93.95v-7.12a7.967,7.967,0,0,0-.959-3.8l-2.259,1.063a12.4,12.4,0,0,1,.547,3.628v8.9a5.34,5.34,0,0,1-5.34,5.34,8.01,8.01,0,0,0,8.01-8.01Z" transform="translate(-152.866 -74.369)" fill="#f7c097"/>
      <path id="Trazado_1029457" data-name="Trazado 1029457" d="M63.137,27.591h-.89v1.78h.89a6.237,6.237,0,0,0,6.23-6.23v-9.79a13.351,13.351,0,0,0-26.7,0v9.79a6.237,6.237,0,0,0,6.23,6.23h.89v-1.78H48.9a4.455,4.455,0,0,1-4.45-4.45v-9.79a11.57,11.57,0,0,1,23.141,0v9.79A4.455,4.455,0,0,1,63.137,27.591Z" transform="translate(-38.216 0)"/>
      <path id="Trazado_1029458" data-name="Trazado 1029458" d="M46.2,384.152l-1.5-.954-.651,1.025a8.871,8.871,0,0,0,.368,10.042v2.367H46.2v-2.67a.889.889,0,0,0-.195-.556,7.091,7.091,0,0,1-.449-8.229Z" transform="translate(-38.218 -343.23)"/>
      <path id="Trazado_1029459" data-name="Trazado 1029459" d="M331.754,0h-11.57a4.455,4.455,0,0,0-4.45,4.45v8.9a4.455,4.455,0,0,0,4.45,4.45h1.78v3.56a.89.89,0,0,0,.549.822.89.89,0,0,0,.97-.193l4.189-4.189h4.082a4.455,4.455,0,0,0,4.45-4.45V4.45A4.455,4.455,0,0,0,331.754,0Zm2.67,13.351a2.67,2.67,0,0,1-2.67,2.67H327.3a.888.888,0,0,0-.629.261l-2.931,2.931v-2.3a.89.89,0,0,0-.89-.89h-2.67a2.67,2.67,0,0,1-2.67-2.67V4.45a2.67,2.67,0,0,1,2.67-2.67h11.57a2.67,2.67,0,0,1,2.67,2.67Z" transform="translate(-282.802)"/>
      <rect id="Rectángulo_414958" data-name="Rectángulo 414958" width="6.23" height="1.78" transform="translate(37.381 4.45)"/>
      <rect id="Rectángulo_414959" data-name="Rectángulo 414959" width="3.56" height="1.78" transform="translate(45.392 4.45)"/>
      <rect id="Rectángulo_414960" data-name="Rectángulo 414960" width="11.57" height="1.78" transform="translate(37.381 8.01)"/>
      <rect id="Rectángulo_414961" data-name="Rectángulo 414961" width="6.23" height="1.78" transform="translate(37.381 11.57)"/>
      <path id="Trazado_1029460" data-name="Trazado 1029460" d="M264.778,393.962v2.67h1.78v-2.367a8.871,8.871,0,0,0,.368-10.042l-.651-1.025-1.5.954.651,1.025a7.089,7.089,0,0,1-.449,8.228A.889.889,0,0,0,264.778,393.962Z" transform="translate(-237.156 -343.23)"/>
      <path id="Trazado_1029461" data-name="Trazado 1029461" d="M1.78,104.115a4.455,4.455,0,0,1,4.45-4.45H9.062l8.015,11.2a.888.888,0,0,0,.712.372H17.8a.89.89,0,0,0,.712-.356l8.455-11.214h2.4a4.455,4.455,0,0,1,4.45,4.45v7.12a.89.89,0,0,0,1.668.432l4.2-7.552h5.1L36.11,120.136h2.025l8.681-16.021h.356a6.237,6.237,0,0,0,6.23-6.23.89.89,0,0,0-.89-.89H44.5a6.23,6.23,0,0,0-6.218,5.977L35.6,107.8v-3.686a6.237,6.237,0,0,0-6.23-6.23H26.118l-.024-.019-.016.019H24.031a1.78,1.78,0,0,1-1.78-1.78V94.01a8.9,8.9,0,0,0,4.45-7.7v-7.12a8.915,8.915,0,0,0-1.068-4.224.89.89,0,0,0-1.157-.383L9.411,81.675a.891.891,0,0,0-.511.806v3.833a8.9,8.9,0,0,0,4.45,7.7V96.1a1.78,1.78,0,0,1-1.78,1.78H6.23A6.237,6.237,0,0,0,0,104.115v16.021H1.78ZM44.5,98.774h7.031a4.457,4.457,0,0,1-4.361,3.56H40.141A4.457,4.457,0,0,1,44.5,98.774ZM17.819,108.843,15.073,105h5.639ZM10.68,86.314V83.046l13.743-6.467a7.124,7.124,0,0,1,.5,2.615v7.12a7.12,7.12,0,1,1-14.241,0Zm.89,13.351a3.56,3.56,0,0,0,3.56-3.56V94.8a8.889,8.889,0,0,0,5.34,0v1.3a3.56,3.56,0,0,0,3.56,3.56h.712l-2.684,3.56H13.8l-2.548-3.56Z" transform="translate(0 -66.733)"/>
    </g>
  </g>
</svg>
