<svg xmlns="http://www.w3.org/2000/svg" xmlns:xlink="http://www.w3.org/1999/xlink" width="106" height="106" viewBox="0 0 106 106">
  <defs>
    <filter id="Trazado_982547" x="0" y="0" width="106" height="106" filterUnits="userSpaceOnUse">
      <feOffset dy="3" input="SourceAlpha"/>
      <feGaussianBlur stdDeviation="3" result="blur"/>
      <feFlood flood-opacity="0.161"/>
      <feComposite operator="in" in2="blur"/>
      <feComposite in="SourceGraphic"/>
    </filter>
    <clipPath id="clip-path">
      <path id="path12162" d="M0-682.665H52.793v52.793H0Z" transform="translate(0 682.665)"/>
    </clipPath>
  </defs>
  <g id="Grupo_1173857" data-name="Grupo 1173857" transform="translate(-171 -4937)">
    <g id="Grupo_1173788" data-name="Grupo 1173788" transform="translate(0 693)">
      <g id="Grupo_1173435" data-name="Grupo 1173435" transform="translate(0 533)">
        <g id="Grupo_1172017" data-name="Grupo 1172017" transform="translate(0 2654)">
          <g id="Grupo_1167337" data-name="Grupo 1167337" transform="translate(180 1063)">
            <g id="Grupo_1166720" data-name="Grupo 1166720" transform="translate(0)">
              <g id="Grupo_1164305" data-name="Grupo 1164305">
                <g id="Grupo_1163948" data-name="Grupo 1163948">
                  <g id="Grupo_1158168" data-name="Grupo 1158168">
                    <g id="Grupo_1152576" data-name="Grupo 1152576">
                      <g id="Grupo_1148633" data-name="Grupo 1148633">
                        <g id="Grupo_1148525" data-name="Grupo 1148525">
                          <g transform="matrix(1, 0, 0, 1, -9, -6)" filter="url(#Trazado_982547)">
                            <g id="Trazado_982547-2" data-name="Trazado 982547" transform="translate(9 6)" fill="#e9f9fd">
                              <path d="M 44 86.5 C 38.26187515258789 86.5 32.69618606567383 85.37651062011719 27.45755004882812 83.16075897216797 C 22.3968505859375 81.020263671875 17.85157585144043 77.95565032958984 13.94796276092529 74.05204010009766 C 10.04434967041016 70.1484375 6.979737281799316 65.6031494140625 4.839250087738037 60.54246139526367 C 2.62348747253418 55.30381393432617 1.5 49.73812484741211 1.5 44 C 1.5 38.26187515258789 2.62348747253418 32.69618606567383 4.839250087738037 27.45755004882812 C 6.979737281799316 22.3968505859375 10.04434967041016 17.85157585144043 13.94796276092529 13.94796276092529 C 17.85157585144043 10.04434967041016 22.3968505859375 6.979737281799316 27.45755004882812 4.839250087738037 C 32.69618606567383 2.62348747253418 38.26187515258789 1.5 44 1.5 C 49.73812484741211 1.5 55.30381393432617 2.62348747253418 60.54246139526367 4.839250087738037 C 65.6031494140625 6.979737281799316 70.1484375 10.04434967041016 74.05204010009766 13.94796276092529 C 77.95565032958984 17.85157585144043 81.020263671875 22.3968505859375 83.16075897216797 27.45755004882812 C 85.37651062011719 32.69618606567383 86.5 38.26187515258789 86.5 44 C 86.5 49.73812484741211 85.37651062011719 55.30381393432617 83.16075897216797 60.54246139526367 C 81.020263671875 65.6031494140625 77.95565032958984 70.1484375 74.05204010009766 74.05204010009766 C 70.1484375 77.95565032958984 65.6031494140625 81.020263671875 60.54246139526367 83.16075897216797 C 55.30381393432617 85.37651062011719 49.73812484741211 86.5 44 86.5 Z" stroke="none"/>
                              <path d="M 44 3 C 38.46371459960938 3 33.09462738037109 4.083610534667969 28.0418701171875 6.220756530761719 C 23.15997314453125 8.285614013671875 18.77495574951172 11.24228668212891 15.00862884521484 15.00862884521484 C 11.24228668212891 18.77495574951172 8.285614013671875 23.15997314453125 6.220756530761719 28.0418701171875 C 4.083610534667969 33.09462738037109 3 38.46371459960938 3 44 C 3 49.53628540039062 4.083610534667969 54.9053840637207 6.220756530761719 59.9581298828125 C 8.285614013671875 64.84002685546875 11.24228668212891 69.22504425048828 15.00862884521484 72.99138641357422 C 18.77495574951172 76.75771331787109 23.15997314453125 79.71438598632812 28.0418701171875 81.77925872802734 C 33.09462738037109 83.9163818359375 38.46371459960938 85 44 85 C 49.53628540039062 85 54.9053840637207 83.9163818359375 59.95814514160156 81.77925872802734 C 64.84002685546875 79.71438598632812 69.22504425048828 76.75771331787109 72.99138641357422 72.99138641357422 C 76.75771331787109 69.22504425048828 79.71438598632812 64.84002685546875 81.77925872802734 59.95814514160156 C 83.9163818359375 54.9053840637207 85 49.53628540039062 85 44 C 85 38.46371459960938 83.9163818359375 33.09462738037109 81.77925872802734 28.0418701171875 C 79.71438598632812 23.15997314453125 76.75771331787109 18.77495574951172 72.99138641357422 15.00862884521484 C 69.22504425048828 11.24228668212891 64.84002685546875 8.285614013671875 59.9581298828125 6.220756530761719 C 54.9053840637207 4.083610534667969 49.53628540039062 3 44 3 M 44 0 C 68.30054473876953 0 88 19.69947052001953 88 44 C 88 68.30054473876953 68.30054473876953 88 44 88 C 19.69947052001953 88 0 68.30054473876953 0 44 C 0 19.69947052001953 19.69947052001953 0 44 0 Z" stroke="none" fill="#1d7083"/>
                            </g>
                          </g>
                        </g>
                      </g>
                    </g>
                  </g>
                </g>
              </g>
            </g>
          </g>
        </g>
      </g>
    </g>
    <g id="g12156" transform="translate(197.604 5643.269)">
      <g id="g12158" transform="translate(0 -682.665)">
        <g id="g12160" clip-path="url(#clip-path)">
          <g id="g12166" transform="translate(9.47 0.773)">
            <path id="path12168" d="M-411.839-109.662v41.024c0,.569-2.679,1.031-3.248,1.031h-29.438l-.412-.531a1.032,1.032,0,0,1-1.031-1.031l-.389-48.3a1.032,1.032,0,0,1,1.031-1.031l.8-.352h23.495a1.027,1.027,0,0,1,.427.093l1.536,6.324a1.234,1.234,0,0,0,1.234,1.234l5.9,1.113a1.028,1.028,0,0,1,.093.427" transform="translate(446.358 118.853)" fill="#f2fbff"/>
          </g>
          <g id="g12170" transform="translate(8.93 0.773)">
            <path id="path12172" d="M-28.3,0V51.246h-1.34a1.031,1.031,0,0,1-1.031-1.031V1.031A1.031,1.031,0,0,1-29.635,0Z" transform="translate(30.667 0)" fill="#dfeef4"/>
          </g>
          <g id="g12174" transform="translate(35.224 0.866)">
            <path id="path12176" d="M-103.463-103.463H-110.9a1.234,1.234,0,0,1-1.234-1.234v-7.438a1.028,1.028,0,0,1,.3.209l8.16,8.16a1.027,1.027,0,0,1,.209.3" transform="translate(112.134 112.134)" fill="#dfeef4"/>
          </g>
          <g id="g12178" transform="translate(13.055 24.18)">
            <path id="path12180" d="M-57.82-61.511h-4.537a.309.309,0,0,1-.309-.309v-4.537a.309.309,0,0,1,.309-.309h4.537a.309.309,0,0,1,.309.309v4.537a.309.309,0,0,1-.309.309" transform="translate(62.667 66.667)" fill="#fece85"/>
          </g>
          <g id="g12182" transform="translate(13.055 33.46)">
            <path id="path12184" d="M-57.82-61.511h-4.537a.309.309,0,0,1-.309-.309v-4.537a.309.309,0,0,1,.309-.309h4.537a.309.309,0,0,1,.309.309v4.537a.309.309,0,0,1-.309.309" transform="translate(62.667 66.667)" fill="#fece85"/>
          </g>
          <g id="g12186" transform="translate(13.055 42.74)">
            <path id="path12188" d="M-57.82-61.511h-4.537a.309.309,0,0,1-.309-.309v-4.537a.309.309,0,0,1,.309-.309h4.537a.309.309,0,0,1,.309.309v4.537a.309.309,0,0,1-.309.309" transform="translate(62.667 66.667)" fill="#fece85"/>
          </g>
          <g id="g12190" transform="translate(16.554 7.034)">
            <path id="path12192" d="M-108.848-87.515l-3.6-2.151v-4.411a.773.773,0,0,0-.773-.773.773.773,0,0,0-.773.773v4.411l-3.6,2.151a.773.773,0,0,0-.267,1.061.773.773,0,0,0,1.061.267l2.807-1.677v3.487a.773.773,0,0,0,.773.773.773.773,0,0,0,.773-.773v-3.487l2.807,1.677a.769.769,0,0,0,.4.11.773.773,0,0,0,.665-.377.773.773,0,0,0-.267-1.061" transform="translate(117.971 94.85)" fill="#9ae59c"/>
          </g>
          <g id="g12194" transform="translate(21.561 42.998)">
            <path id="path12196" d="M-118.409-18.453h-9.151a.773.773,0,0,1-.773-.773A.773.773,0,0,1-127.56-20h9.151a.773.773,0,0,1,.773.773.773.773,0,0,1-.773.773" transform="translate(128.333 20)" fill="#dfeef4"/>
          </g>
          <g id="g12198" transform="translate(21.561 46.091)">
            <path id="path12200" d="M-135.016-18.453H-145.56a.773.773,0,0,1-.773-.773A.773.773,0,0,1-145.56-20h10.543a.773.773,0,0,1,.773.773.773.773,0,0,1-.773.773" transform="translate(146.333 20)" fill="#dfeef4"/>
          </g>
          <g id="g12202" transform="translate(21.561 33.718)">
            <path id="path12204" d="M-126.712-18.453h-9.847a.773.773,0,0,1-.773-.773A.773.773,0,0,1-136.56-20h9.847a.773.773,0,0,1,.773.773.773.773,0,0,1-.773.773" transform="translate(137.333 20)" fill="#dfeef4"/>
          </g>
          <g id="g12206" transform="translate(21.561 36.811)">
            <path id="path12208" d="M-114.41-18.453h-8.816a.773.773,0,0,1-.773-.773.773.773,0,0,1,.773-.773h8.816a.773.773,0,0,1,.773.773.773.773,0,0,1-.773.773" transform="translate(124 20)" fill="#dfeef4"/>
          </g>
          <g id="g12210" transform="translate(21.561 24.437)">
            <path id="path12212" d="M-218.364-18.453h-17.529a.773.773,0,0,1-.773-.773.773.773,0,0,1,.773-.773h17.529a.773.773,0,0,1,.773.773.773.773,0,0,1-.773.773" transform="translate(236.666 20)" fill="#dfeef4"/>
          </g>
          <g id="g12214" transform="translate(21.561 27.531)">
            <path id="path12216" d="M-134.709-18.453h-10.517a.773.773,0,0,1-.773-.773.773.773,0,0,1,.773-.773h10.517a.773.773,0,0,1,.773.773.773.773,0,0,1-.773.773" transform="translate(146 20)" fill="#dfeef4"/>
          </g>
          <g id="g12218" transform="translate(33.161 13.662)">
            <path id="path12220" d="M-76.274-79.964h-6.084a.309.309,0,0,1-.309-.309v-6.084a.309.309,0,0,1,.309-.309h6.084a.309.309,0,0,1,.309.309v6.084a.309.309,0,0,1-.309.309" transform="translate(82.666 86.666)" fill="#fece85"/>
          </g>
          <g id="g12222" transform="translate(13.544 4.898)">
            <path id="path12224" d="M-92.574-150.432a4.849,4.849,0,0,1-4.849-4.849,4.849,4.849,0,0,1,4.849-4.85,4.849,4.849,0,0,1,4.849,4.85,4.849,4.849,0,0,1-4.849,4.849m0-12.609a7.759,7.759,0,0,0-7.759,7.759,7.759,7.759,0,0,0,7.759,7.759,7.759,7.759,0,0,0,7.759-7.759,7.759,7.759,0,0,0-7.759-7.759" transform="translate(100.333 163.041)" fill="#bbf39b"/>
          </g>
          <g id="g12226" transform="translate(30.316 29.335)">
            <path id="path12228" d="M-259.688-135.324a11.937,11.937,0,0,1-.319,2.782s-1.114,2-1.862,3.029c-2.034,3.036-5.3,4.3-9.228,4.3-6.264,0-10.357-3.663-10.357-9.926,0-3.674,3.534-9.19,3.534-9.19q.12-.092.243-.181s0,0,0,0a11.29,11.29,0,0,1,6.644-2.149,11.343,11.343,0,0,1,11.342,11.342" transform="translate(281.454 146.666)" fill="#bbf39b"/>
          </g>
          <g id="g12230" transform="translate(29.398 31.667)">
            <path id="path12232" d="M-266.839-140.687a9.924,9.924,0,0,1-1.6,3.525,11.329,11.329,0,0,1-9.427,5.036A11.343,11.343,0,0,1-289.2-143.468a11.319,11.319,0,0,1,4.453-9.01,11.359,11.359,0,0,0-.349,2.8,11.343,11.343,0,0,0,11.342,11.342,11.292,11.292,0,0,0,6.919-2.355" transform="translate(289.205 152.478)" fill="#9ae59c"/>
          </g>
          <g id="g12234" transform="translate(34.1 36.106)">
            <path id="path12236" d="M-59.849-113.366a1.467,1.467,0,0,1-1.038-.43l-3.429-3.382a1.422,1.422,0,0,1-.245-1.978,2.244,2.244,0,0,0,.243-.373,1.468,1.468,0,0,1,1.741.251l2.583,2.583a.206.206,0,0,0,.292,0l5.723-5.742a1.468,1.468,0,0,1,2.076,0,1.468,1.468,0,0,1,0,2.076l-6.392,6.412-.518.154a2.694,2.694,0,0,1-1.039.431" transform="translate(64.865 122.868)" fill="#f2fbff"/>
          </g>
          <g id="g12238" transform="translate(33.893 39.445)">
            <path id="path12240" d="M-80.9-66.545l-.515.516a1.465,1.465,0,0,1-1.038.431h0a1.467,1.467,0,0,1-1.038-.429l-3.739-3.739a1.5,1.5,0,0,1-.078-2.054,1.463,1.463,0,0,1,.383-.3A11.384,11.384,0,0,0-80.9-66.545" transform="translate(87.682 72.122)" fill="#dfeef4"/>
          </g>
          <g id="g12242" transform="translate(8.868 0.773)">
            <path id="path12244" d="M0-328.324v-26.488a1.031,1.031,0,0,1,1.031-1.031H25.866a1.031,1.031,0,0,1,.729.3l8.16,8.16a1.031,1.031,0,0,1,.3.729v19.834" transform="translate(0 355.843)" fill="none" stroke="#000" stroke-linecap="round" stroke-linejoin="round" stroke-miterlimit="10" stroke-width="1.2"/>
          </g>
          <g id="g12246" transform="translate(8.868 31.901)">
            <path id="path12248" d="M-378.907-240.037h-30.727a1.031,1.031,0,0,1-1.031-1.031v-19.088" transform="translate(410.666 260.155)" fill="none" stroke="#000" stroke-linecap="round" stroke-linejoin="round" stroke-miterlimit="10" stroke-width="1.2"/>
          </g>
          <g id="g12250" transform="translate(35.161 0.928)">
            <path id="path12252" d="M-102.108-102.723h-7.324a1.234,1.234,0,0,1-1.234-1.234v-7.375" transform="translate(110.666 111.333)" fill="none" stroke="#000" stroke-linecap="round" stroke-linejoin="round" stroke-miterlimit="10" stroke-width="1.2"/>
          </g>
          <g id="g12254" transform="translate(29.335 29.335)">
            <path id="path12256" d="M-58.769-23.72a11.33,11.33,0,0,0-4.926,9.354A11.342,11.342,0,0,0-52.352-3.023,11.342,11.342,0,0,0-41.01-14.366,11.342,11.342,0,0,0-52.352-25.708a11.348,11.348,0,0,0-3.16.446" transform="translate(63.695 25.708)" fill="none" stroke="#000" stroke-linecap="round" stroke-linejoin="round" stroke-miterlimit="10" stroke-width="1.2"/>
          </g>
          <g id="g12258" transform="translate(33.821 36.106)">
            <path id="path12260" d="M-98.813-88.53l-2.006,2.013a1.468,1.468,0,0,1-1.038.431h0a1.468,1.468,0,0,1-1.038-.43l-3.769-3.769a1.468,1.468,0,0,1,0-2.076,1.468,1.468,0,0,1,2.076,0l2.729,2.729,5.869-5.888a1.468,1.468,0,0,1,2.076,0,1.468,1.468,0,0,1,0,2.076l-2.351,2.358" transform="translate(107.095 95.95)" fill="none" stroke="#000" stroke-linecap="round" stroke-linejoin="round" stroke-miterlimit="10" stroke-width="1.2"/>
          </g>
          <path id="path12262" d="M173.155-364.844H168V-370h5.156Z" transform="translate(-155.008 394.179)" fill="none" stroke="#000" stroke-linecap="round" stroke-linejoin="round" stroke-miterlimit="10" stroke-width="1.2"/>
          <path id="path12264" d="M173.155-244.844H168V-250h5.156Z" transform="translate(-155.008 283.459)" fill="none" stroke="#000" stroke-linecap="round" stroke-linejoin="round" stroke-miterlimit="10" stroke-width="1.2"/>
          <path id="path12266" d="M173.155-124.844H168V-130h5.156Z" transform="translate(-155.008 172.739)" fill="none" stroke="#000" stroke-linecap="round" stroke-linejoin="round" stroke-miterlimit="10" stroke-width="1.2"/>
          <g id="g12268" transform="translate(13.482 4.898)">
            <path id="path12270" d="M-92.574-150.432a4.849,4.849,0,0,1-4.849-4.849,4.849,4.849,0,0,1,4.849-4.85,4.849,4.849,0,0,1,4.849,4.85A4.849,4.849,0,0,1-92.574-150.432Zm-7.051-8.091a7.73,7.73,0,0,0-.708,3.242,7.759,7.759,0,0,0,7.759,7.759,7.759,7.759,0,0,0,7.759-7.759,7.759,7.759,0,0,0-7.759-7.759,7.726,7.726,0,0,0-4.849,1.7" transform="translate(100.333 163.041)" fill="none" stroke="#000" stroke-linecap="round" stroke-linejoin="round" stroke-miterlimit="10" stroke-width="1.2"/>
          </g>
          <g id="g12272" transform="translate(21.241 7.807)">
            <path id="path12274" d="M0,0V9.7" fill="none" stroke="#000" stroke-linecap="round" stroke-linejoin="round" stroke-miterlimit="10" stroke-width="1.2"/>
          </g>
          <g id="g12276" transform="translate(17.264 12.657)">
            <path id="path12278" d="M0-28.35l3.976-2.376L7.953-28.35" transform="translate(0 30.727)" fill="none" stroke="#000" stroke-linecap="round" stroke-linejoin="round" stroke-miterlimit="10" stroke-width="1.2"/>
          </g>
          <g id="g12280" transform="translate(22.272 43.771)">
            <path id="path12282" d="M0,0H7.424" fill="none" stroke="#000" stroke-linecap="round" stroke-linejoin="round" stroke-miterlimit="10" stroke-width="1.2"/>
          </g>
          <g id="g12284" transform="translate(22.272 46.864)">
            <path id="path12286" d="M0,0H8.816" fill="none" stroke="#000" stroke-linecap="round" stroke-linejoin="round" stroke-miterlimit="10" stroke-width="1.2"/>
          </g>
          <g id="g12288" transform="translate(22.272 34.491)">
            <path id="path12290" d="M0,0H8.868" fill="none" stroke="#000" stroke-linecap="round" stroke-linejoin="round" stroke-miterlimit="10" stroke-width="1.2"/>
          </g>
          <g id="g12292" transform="translate(22.272 37.584)">
            <path id="path12294" d="M0,0H7.424" fill="none" stroke="#000" stroke-linecap="round" stroke-linejoin="round" stroke-miterlimit="10" stroke-width="1.2"/>
          </g>
          <g id="g12296" transform="translate(22.272 25.211)">
            <path id="path12298" d="M0,0H17.529" fill="none" stroke="#000" stroke-linecap="round" stroke-linejoin="round" stroke-miterlimit="10" stroke-width="1.2"/>
          </g>
          <g id="g12300" transform="translate(22.272 28.304)">
            <path id="path12302" d="M0,0H10.517" fill="none" stroke="#000" stroke-linecap="round" stroke-linejoin="round" stroke-miterlimit="10" stroke-width="1.2"/>
          </g>
          <path id="path12304" d="M434.7-499.3H428V-506h6.7Z" transform="translate(-394.9 519.661)" fill="none" stroke="#000" stroke-linecap="round" stroke-linejoin="round" stroke-miterlimit="10" stroke-width="1.2"/>
        </g>
      </g>
    </g>
  </g>
</svg>
