<svg xmlns="http://www.w3.org/2000/svg" xmlns:xlink="http://www.w3.org/1999/xlink" width="106" height="106" viewBox="0 0 106 106">
  <defs>
    <filter id="Trazado_982547" x="0" y="0" width="106" height="106" filterUnits="userSpaceOnUse">
      <feOffset dy="3" input="SourceAlpha"/>
      <feGaussianBlur stdDeviation="3" result="blur"/>
      <feFlood flood-opacity="0.161"/>
      <feComposite operator="in" in2="blur"/>
      <feComposite in="SourceGraphic"/>
    </filter>
  </defs>
  <g id="Grupo_1173842" data-name="Grupo 1173842" transform="translate(-171 -1534)">
    <g id="Grupo_1173784" data-name="Grupo 1173784" transform="translate(0 -2710)">
      <g id="Grupo_1173435" data-name="Grupo 1173435" transform="translate(0 533)">
        <g id="Grupo_1172017" data-name="Grupo 1172017" transform="translate(0 2654)">
          <g id="Grupo_1167337" data-name="Grupo 1167337" transform="translate(180 1063)">
            <g id="Grupo_1166720" data-name="Grupo 1166720" transform="translate(0)">
              <g id="Grupo_1164305" data-name="Grupo 1164305">
                <g id="Grupo_1163948" data-name="Grupo 1163948">
                  <g id="Grupo_1158168" data-name="Grupo 1158168">
                    <g id="Grupo_1152576" data-name="Grupo 1152576">
                      <g id="Grupo_1148633" data-name="Grupo 1148633">
                        <g id="Grupo_1148525" data-name="Grupo 1148525">
                          <g transform="matrix(1, 0, 0, 1, -9, -6)" filter="url(#Trazado_982547)">
                            <g id="Trazado_982547-2" data-name="Trazado 982547" transform="translate(9 6)" fill="#e9f9fd">
                              <path d="M 44 86.5 C 38.26187515258789 86.5 32.69618606567383 85.37651062011719 27.45755004882812 83.16075897216797 C 22.3968505859375 81.020263671875 17.85157585144043 77.95565032958984 13.94796276092529 74.05204010009766 C 10.04434967041016 70.1484375 6.979737281799316 65.6031494140625 4.839250087738037 60.54246139526367 C 2.62348747253418 55.30381393432617 1.5 49.73812484741211 1.5 44 C 1.5 38.26187515258789 2.62348747253418 32.69618606567383 4.839250087738037 27.45755004882812 C 6.979737281799316 22.3968505859375 10.04434967041016 17.85157585144043 13.94796276092529 13.94796276092529 C 17.85157585144043 10.04434967041016 22.3968505859375 6.979737281799316 27.45755004882812 4.839250087738037 C 32.69618606567383 2.62348747253418 38.26187515258789 1.5 44 1.5 C 49.73812484741211 1.5 55.30381393432617 2.62348747253418 60.54246139526367 4.839250087738037 C 65.6031494140625 6.979737281799316 70.1484375 10.04434967041016 74.05204010009766 13.94796276092529 C 77.95565032958984 17.85157585144043 81.020263671875 22.3968505859375 83.16075897216797 27.45755004882812 C 85.37651062011719 32.69618606567383 86.5 38.26187515258789 86.5 44 C 86.5 49.73812484741211 85.37651062011719 55.30381393432617 83.16075897216797 60.54246139526367 C 81.020263671875 65.6031494140625 77.95565032958984 70.1484375 74.05204010009766 74.05204010009766 C 70.1484375 77.95565032958984 65.6031494140625 81.020263671875 60.54246139526367 83.16075897216797 C 55.30381393432617 85.37651062011719 49.73812484741211 86.5 44 86.5 Z" stroke="none"/>
                              <path d="M 44 3 C 38.46371459960938 3 33.09462738037109 4.083610534667969 28.0418701171875 6.220756530761719 C 23.15997314453125 8.285614013671875 18.77495574951172 11.24228668212891 15.00862884521484 15.00862884521484 C 11.24228668212891 18.77495574951172 8.285614013671875 23.15997314453125 6.220756530761719 28.0418701171875 C 4.083610534667969 33.09462738037109 3 38.46371459960938 3 44 C 3 49.53628540039062 4.083610534667969 54.9053840637207 6.220756530761719 59.9581298828125 C 8.285614013671875 64.84002685546875 11.24228668212891 69.22504425048828 15.00862884521484 72.99138641357422 C 18.77495574951172 76.75771331787109 23.15997314453125 79.71438598632812 28.0418701171875 81.77925872802734 C 33.09462738037109 83.9163818359375 38.46371459960938 85 44 85 C 49.53628540039062 85 54.9053840637207 83.9163818359375 59.95814514160156 81.77925872802734 C 64.84002685546875 79.71438598632812 69.22504425048828 76.75771331787109 72.99138641357422 72.99138641357422 C 76.75771331787109 69.22504425048828 79.71438598632812 64.84002685546875 81.77925872802734 59.95814514160156 C 83.9163818359375 54.9053840637207 85 49.53628540039062 85 44 C 85 38.46371459960938 83.9163818359375 33.09462738037109 81.77925872802734 28.0418701171875 C 79.71438598632812 23.15997314453125 76.75771331787109 18.77495574951172 72.99138641357422 15.00862884521484 C 69.22504425048828 11.24228668212891 64.84002685546875 8.285614013671875 59.9581298828125 6.220756530761719 C 54.9053840637207 4.083610534667969 49.53628540039062 3 44 3 M 44 0 C 68.30054473876953 0 88 19.69947052001953 88 44 C 88 68.30054473876953 68.30054473876953 88 44 88 C 19.69947052001953 88 0 68.30054473876953 0 44 C 0 19.69947052001953 19.69947052001953 0 44 0 Z" stroke="none" fill="#1d7083"/>
                            </g>
                          </g>
                        </g>
                      </g>
                    </g>
                  </g>
                </g>
              </g>
            </g>
          </g>
        </g>
      </g>
    </g>
    <g id="innovator_10316539" transform="translate(166.512 1547.925)">
      <path id="Trazado_1030914" data-name="Trazado 1030914" d="M283.137,292.223l2.563,1.063,2.05-1.375,2.834,2.834-1.375,2.05,1.063,2.563,2.421.477v4.008l-2.421.477-1.063,2.563,1.375,2.05-2.834,2.834-2.05-1.375-2.563,1.063-.477,2.42h-4.008l-.477-2.42-2.563-1.063-2.05,1.375-2.834-2.834,1.375-2.05-1.063-2.563-2.421-.477v-4.008l2.421-.477L272.1,296.8l-1.375-2.05,2.834-2.834,2.05,1.375,2.563-1.063.477-2.421h4.008Z" transform="translate(-209.663 -250.796)" fill="#a3a3cc" fill-rule="evenodd"/>
      <path id="Trazado_1030915" data-name="Trazado 1030915" d="M289.826,292.223l.959.4.016.007,1.588.659h0l.544.225,1.858-1.246,2.481,2.481L295.9,296.8l1.063,2.563,2.421.477v4.008l-2.421.477-1.063,2.563,1.375,2.05-2.481,2.481-1.858-1.246-.544.225h0l-2.563,1.063-.477,2.42h-3.382l-.5-2.535-2.83-1.174-.336.226-1.523,1.022-2.481-2.481,1.375-2.05-1.278-3.09-2.205-.435V300.32l2.205-.435,1.278-3.09-1.375-2.05,2.481-2.481,1.86,1.247,2.83-1.174.5-2.535h3.382Z" transform="translate(-216.352 -250.796)" fill="#bcbee2" fill-rule="evenodd"/>
      <circle id="Elipse_11869" data-name="Elipse 11869" cx="6.162" cy="6.162" r="6.162" transform="translate(64.581 46.123) rotate(-10.602)" fill="#a3a3cc"/>
      <circle id="Elipse_11870" data-name="Elipse 11870" cx="6.162" cy="6.162" r="6.162" transform="translate(64.528 45.223) rotate(-2.922)" fill="#f3f3ff"/>
      <path id="Trazado_1030916" data-name="Trazado 1030916" d="M191.838,83.194a2.034,2.034,0,0,1-2.028,2.028h-7.467a2.034,2.034,0,0,1-2.028-2.028V79.2c0-5.581-5.761-7.149-5.761-14.649,0-6.882,5.761-10.322,11.523-10.322S197.6,57.671,197.6,64.552c0,7.5-5.761,9.068-5.761,14.649v3.993Z" transform="translate(-126.539 -42.622)" fill="#fcdb35" fill-rule="evenodd"/>
      <path id="Trazado_1030917" data-name="Trazado 1030917" d="M209.238,83.195a2.034,2.034,0,0,1-2.028,2.028h-5.177a2.034,2.034,0,0,1-2.028-2.028V78.679c0-5.581-5.761-7.149-5.761-14.649,0-5.139,3.213-8.358,7.239-9.66a14.377,14.377,0,0,1,1.994-.139c5.761,0,11.523,3.441,11.523,10.322,0,7.5-5.761,9.068-5.761,14.649v3.993Z" transform="translate(-143.939 -42.623)" fill="#ffeb87" fill-rule="evenodd"/>
      <path id="Trazado_1030918" data-name="Trazado 1030918" d="M247.132,295.631H253.3v4.044a1.557,1.557,0,0,1-1.552,1.552h-3.059a1.557,1.557,0,0,1-1.552-1.552Z" transform="translate(-190.676 -255.947)" fill="#495586" fill-rule="evenodd"/>
      <path id="Trazado_1030919" data-name="Trazado 1030919" d="M266.821,295.631h3.873v4.044a1.557,1.557,0,0,1-1.552,1.552h-1.327a1.558,1.558,0,0,1-.995-1.448v-4.148Z" transform="translate(-208.075 -255.947)" fill="#5d689e" fill-rule="evenodd"/>
      <path id="Trazado_1030920" data-name="Trazado 1030920" d="M235.614,274.359a2.034,2.034,0,0,1-2.028,2.028h-7.467a2.034,2.034,0,0,1-2.028-2.028v-3.805h11.523Z" transform="translate(-170.314 -233.787)" fill="#5d689e" fill-rule="evenodd"/>
      <path id="Trazado_1030921" data-name="Trazado 1030921" d="M253.014,274.359a2.034,2.034,0,0,1-2.025,2.028h-5.18a2.034,2.034,0,0,1-2.028-2.028v-3.805h9.233v3.805Z" transform="translate(-187.715 -233.787)" fill="#7986bf" fill-rule="evenodd"/>
      <path id="Trazado_1030922" data-name="Trazado 1030922" d="M224.091,270.554h11.523v2.917H224.091Z" transform="translate(-170.314 -233.787)" fill="#7986bf"/>
      <path id="Trazado_1030923" data-name="Trazado 1030923" d="M243.781,270.554h9.233v2.917h-9.233Z" transform="translate(-187.714 -233.787)" fill="#909cd1"/>
      <g id="Grupo_1173841" data-name="Grupo 1173841" transform="translate(31.362 5.999)">
        <path id="Trazado_1030924" data-name="Trazado 1030924" d="M36.615,384.7c-.119-3.152-.157-6.253.025-9.567.159-2.065.621-2.841,1.917-3.6,1.568-.919,4.988-1.534,6.744-2.111h7.548c1.756.577,5.175,1.191,6.744,2.111,1.3.76,1.758,1.536,1.917,3.6.182,3.313.144,6.415.025,9.567Z" transform="translate(-35.916 -327.154)" fill="#2a92fa" fill-rule="evenodd"/>
        <path id="Trazado_1030925" data-name="Trazado 1030925" d="M107.428,341.726a3.6,3.6,0,0,0,1.811-3.452v-.382h5v.382a3.6,3.6,0,0,0,1.811,3.452,5.107,5.107,0,0,1-8.626,0Z" transform="translate(-98.581 -299.292)" fill="#dea368" fill-rule="evenodd"/>
        <path id="Trazado_1030926" data-name="Trazado 1030926" d="M124.229,337.892v.382a3.6,3.6,0,0,0,1.811,3.452,5.36,5.36,0,0,1-4.313,2.372,4.96,4.96,0,0,1-3-1.028,4.494,4.494,0,0,0,1.8-3.524v-1.654h3.706Z" transform="translate(-108.567 -299.292)" fill="#e6b17c" fill-rule="evenodd"/>
        <path id="Trazado_1030927" data-name="Trazado 1030927" d="M100.95,252.29c-6.73-.436-8.507-13.788,0-13.788S107.68,251.853,100.95,252.29Z" transform="translate(-87.791 -211.461)" fill="#f2c496" fill-rule="evenodd"/>
        <path id="Trazado_1030928" data-name="Trazado 1030928" d="M115.355,252.29a5.034,5.034,0,0,1-.812-.121c-3.471-2.929-4.273-10.588-.727-13.5a6.912,6.912,0,0,1,1.539-.166c8.507,0,6.73,13.351,0,13.788Z" transform="translate(-102.196 -211.461)" fill="#fdd7ad" fill-rule="evenodd"/>
        <path id="Trazado_1030929" data-name="Trazado 1030929" d="M98.13,231.18c.768-.319,2.046.07,2.472,1.8a10.049,10.049,0,0,1-.5,5.054,12.893,12.893,0,0,1-1.315-2.3c-.363-.549-1-.39-1.962-.057-2.61.906-5.3-.6-6.6-.365-1.059.19-1.287,1.789-1.46,2.717-1.1-1.225-1.211-4.639-.366-7.355,4.4.679,7.987-2.655,9.731.5Z" transform="translate(-81.273 -203.768)" fill="#1a1a1a" fill-rule="evenodd"/>
        <path id="Trazado_1030930" data-name="Trazado 1030930" d="M42.405,20.583A.582.582,0,0,1,42.987,20L45.3,20h0a.581.581,0,0,1,0,1.163l-2.314,0h0A.582.582,0,0,1,42.405,20.583Zm5.9-10.11a.582.582,0,0,1,.863-.78l1.366,1.513a.581.581,0,1,1-.862.779L48.3,10.474Zm24.849,10.1A.583.583,0,0,1,73.733,20h0l2.315,0a.581.581,0,0,1,0,1.163h0l-2.316,0A.582.582,0,0,1,73.151,20.578ZM58.936,8.6V6.581a.581.581,0,1,1,1.163,0V8.6a.581.581,0,0,1-1.163,0Zm9.609,3.423a.581.581,0,0,1-.042-.821L69.87,9.694a.581.581,0,1,1,.863.78l-1.367,1.512a.582.582,0,0,1-.821.042ZM56.44,62.987H52.648V56.948a.581.581,0,1,0-1.163,0v6.039H45.1V51.359A5.9,5.9,0,0,0,49.065,49.1c.394.107.823.217,1.27.331a20.448,20.448,0,0,1,4.427,1.454c1.076.63,1.484,1.2,1.634,3.143.15,2.717.164,5.5.046,8.961ZM32.649,54.025c.15-1.942.56-2.513,1.634-3.143a20.47,20.47,0,0,1,4.427-1.454c.448-.114.876-.224,1.271-.331a5.9,5.9,0,0,0,3.96,2.261V62.987h-6.4V56.948a.581.581,0,1,0-1.163,0v6.039H32.6c-.12-3.46-.1-6.244.044-8.962ZM42.3,46.816a3.874,3.874,0,0,1-1.247,1.75,4.449,4.449,0,0,0,6.936,0,3.876,3.876,0,0,1-1.245-1.75,5.614,5.614,0,0,1-2.184.59h-.075A5.619,5.619,0,0,1,42.3,46.816Zm-2.867-6.551.014-.076c.135-.74.361-1.979.963-2.087a5.607,5.607,0,0,1,1.732.244,8.782,8.782,0,0,0,4.965.1c.961-.333,1.194-.317,1.289-.172a5.652,5.652,0,0,1,.406.79,5.912,5.912,0,0,0,.785,1.37c-.4,2.7-2.124,5.6-5.066,5.812-3-.219-4.734-3.23-5.088-5.979ZM38.9,33.523a11.607,11.607,0,0,0-.221,4.941A2.093,2.093,0,0,1,40.2,36.957a5.964,5.964,0,0,1,2.2.255,7.853,7.853,0,0,0,4.325.134,4.665,4.665,0,0,1,1.457-.334,1.33,1.33,0,0,1,1.185.62,6.7,6.7,0,0,1,.494.951c.05.112.1.222.153.33a9.9,9.9,0,0,0,.122-3.584,1.961,1.961,0,0,0-.9-1.341.961.961,0,0,0-.785-.062.582.582,0,0,1-.733-.256c-.781-1.416-1.9-1.222-4.162-.684a14.042,14.042,0,0,1-4.652.537Zm18.655,20.42c-.169-2.2-.7-3.183-2.206-4.064A21.006,21.006,0,0,0,50.623,48.3c-.564-.144-1.1-.28-1.562-.413a2.748,2.748,0,0,1-1.3-1.722,8.9,8.9,0,0,0,3.008-5.758,10.62,10.62,0,0,0,.5-5.36,3.083,3.083,0,0,0-1.508-2.1,2.19,2.19,0,0,0-1.262-.228c-1.259-1.806-3.181-1.349-5.211-.867a12.142,12.142,0,0,1-4.717.456.581.581,0,0,0-.643.4c-.8,2.555-.863,6.184.368,7.781a8.877,8.877,0,0,0,3,5.674,2.746,2.746,0,0,1-1.307,1.722c-.464.132-1,.268-1.561.413a21.015,21.015,0,0,0-4.727,1.577c-1.5.88-2.036,1.868-2.205,4.064,0,0,0,.009,0,.013-.16,2.9-.167,5.873-.026,9.635a.581.581,0,0,0,.58.56H57a.582.582,0,0,0,.582-.56c.142-3.763.134-6.735-.027-9.635v-.013Zm13.437,2.693a5.593,5.593,0,1,1,5.592-5.593A5.6,5.6,0,0,1,70.993,56.636Zm0-12.348a6.756,6.756,0,1,0,6.755,6.755,6.764,6.764,0,0,0-6.755-6.755ZM82.45,52.57V49.517L80.5,49.132a.582.582,0,0,1-.425-.348l-1.063-2.563a.583.583,0,0,1,.054-.546l1.109-1.654-2.159-2.158-1.653,1.109a.581.581,0,0,1-.547.054l-2.563-1.063a.582.582,0,0,1-.348-.425l-.385-1.952H69.466l-.385,1.952a.58.58,0,0,1-.348.425l-2.563,1.063a.581.581,0,0,1-.547-.054l-.64-.43a2.6,2.6,0,0,1-1.711.641H63.2v.546a2.122,2.122,0,0,1-.6,1.476l.317.471a.584.584,0,0,1,.053.546l-1.063,2.563a.582.582,0,0,1-.424.348l-1.951.385V52.57l1.951.385a.582.582,0,0,1,.424.348l1.063,2.563a.584.584,0,0,1-.053.546l-1.11,1.654,2.159,2.159,1.653-1.109a.583.583,0,0,1,.547-.054l2.563,1.063a.58.58,0,0,1,.348.425l.385,1.952h3.053l.385-1.952a.582.582,0,0,1,.348-.425l2.563-1.063a.583.583,0,0,1,.547.054l1.653,1.109,2.159-2.159-1.109-1.654a.583.583,0,0,1-.054-.546L80.074,53.3a.582.582,0,0,1,.425-.348l1.951-.385ZM58.008,44.7a.972.972,0,0,1-.97-.971v-.546h5v.546a.971.971,0,0,1-.97.971h-3.06Zm-3.649-4.126v-.307H64.718v.307a1.447,1.447,0,0,1-1.446,1.446H55.806a1.447,1.447,0,0,1-1.447-1.446ZM57,27.119a5.261,5.261,0,0,1-2.675-2.58c-.676-1.448-.617-2.477-.262-2.855a.437.437,0,0,1,.329-.141.776.776,0,0,1,.283.061c.722.287,2,1.8,2.325,5.515Zm5.074,0c.321-3.711,1.6-5.229,2.326-5.515a.775.775,0,0,1,.281-.061.435.435,0,0,1,.329.141c.357.378.414,1.407-.261,2.855a5.257,5.257,0,0,1-2.676,2.58ZM51.687,30.082c-1.519-2.119-3.09-4.311-3.09-8.151,0-6.693,5.672-9.741,10.942-9.741s10.94,3.048,10.94,9.741c0,3.84-1.57,6.032-3.09,8.151-1.307,1.824-2.545,3.553-2.661,6.1H62V28.932c0-.184,0-.362.006-.537a6.463,6.463,0,0,0,3.8-3.365c.821-1.76.84-3.309.054-4.144a1.662,1.662,0,0,0-1.887-.363c-1.371.545-2.828,2.665-3.093,6.979a6.618,6.618,0,0,1-2.683,0c-.264-4.314-1.721-6.435-3.092-6.979a1.663,1.663,0,0,0-1.887.363c-.789.835-.769,2.384.052,4.144a6.467,6.467,0,0,0,3.8,3.365c.005.175.006.354.006.537v7.254H54.348c-.116-2.552-1.354-4.28-2.661-6.1Zm6.55-1.388c0,.079,0,.158,0,.239v7.254h2.6V28.933c0-.08,0-.16,0-.239a7.939,7.939,0,0,1-2.6,0Zm-3.879,8.655H64.718V39.1H54.359ZM83.145,48.468l-2.116-.417L80.2,46.064l1.2-1.792a.582.582,0,0,0-.071-.736L78.5,40.7a.582.582,0,0,0-.735-.072l-1.792,1.2-1.988-.824-.416-2.116A.582.582,0,0,0,73,38.423H68.989a.581.581,0,0,0-.57.469L68,41.007l-1.988.824-.344-.23a2.589,2.589,0,0,0,.211-1.028V36.581c0-2.4,1.138-3.985,2.454-5.821,1.55-2.163,3.308-4.615,3.308-8.828a10.1,10.1,0,0,0-3.82-8.2,14.029,14.029,0,0,0-16.568,0,10.1,10.1,0,0,0-3.821,8.2c0,4.213,1.757,6.665,3.308,8.828C52.058,32.6,53.2,34.183,53.2,36.581v3.992a2.612,2.612,0,0,0,2.61,2.609h.07v.546a2.136,2.136,0,0,0,2.133,2.134h3.06a2.113,2.113,0,0,0,.53-.069l.183.272-.825,1.987-2.116.417a.582.582,0,0,0-.468.571v4.009a.582.582,0,0,0,.468.57l2.116.417.825,1.988-1.2,1.792a.582.582,0,0,0,.071.735l2.836,2.835a.581.581,0,0,0,.735.072l1.792-1.2L68,61.08l.417,2.116a.581.581,0,0,0,.57.469H73a.582.582,0,0,0,.571-.469l.416-2.116,1.988-.824,1.792,1.2a.581.581,0,0,0,.735-.072l2.836-2.835a.581.581,0,0,0,.071-.735l-1.2-1.792.824-1.988,2.116-.417a.582.582,0,0,0,.468-.57V49.039a.582.582,0,0,0-.468-.571Z" transform="translate(-31.362 -5.999)" fill-rule="evenodd"/>
      </g>
    </g>
  </g>
</svg>
