<svg xmlns="http://www.w3.org/2000/svg" xmlns:xlink="http://www.w3.org/1999/xlink" width="108" height="108" viewBox="0 0 108 108">
  <defs>
    <filter id="Trazado_904820" x="0" y="0" width="108" height="108" filterUnits="userSpaceOnUse">
      <feOffset dy="3" input="SourceAlpha"/>
      <feGaussianBlur stdDeviation="3" result="blur"/>
      <feFlood flood-opacity="0.161"/>
      <feComposite operator="in" in2="blur"/>
      <feComposite in="SourceGraphic"/>
    </filter>
  </defs>
  <g id="Grupo_1173787" data-name="Grupo 1173787" transform="translate(-200 -736)">
    <g id="Grupo_1173428" data-name="Grupo 1173428" transform="translate(-1 -6845.052)">
      <g id="Grupo_1171958" data-name="Grupo 1171958" transform="translate(210 7587.052)">
        <g id="Grupo_1167341" data-name="Grupo 1167341" transform="translate(0 0)">
          <g id="Grupo_1166792" data-name="Grupo 1166792">
            <g transform="matrix(1, 0, 0, 1, -9, -6)" filter="url(#Trazado_904820)">
              <g id="Trazado_904820-2" data-name="Trazado 904820" transform="translate(9 6)" fill="#f2f7e5">
                <path d="M 44.99999618530273 88.49999237060547 C 39.12687301635742 88.49999237060547 33.43022155761719 87.35006713867188 28.06829643249512 85.08216857910156 C 22.88852119445801 82.89130401611328 18.23629570007324 79.75457763671875 14.24084663391113 75.75914001464844 C 10.24540901184082 71.76369476318359 7.108683586120605 67.11146545410156 4.917821407318115 61.93169403076172 C 2.649921178817749 56.56976699829102 1.499996185302734 50.87311553955078 1.499996185302734 44.99999237060547 C 1.499996185302734 39.12686920166016 2.649921178817749 33.43021774291992 4.917821407318115 28.06829261779785 C 7.108683586120605 22.88851737976074 10.24540901184082 18.23630523681641 14.24084663391113 14.24085521697998 C 18.23629570007324 10.24540519714355 22.88852119445801 7.108692169189453 28.06829643249512 4.917829990386963 C 33.43022155761719 2.649929761886597 39.12687301635742 1.500004887580872 44.99999618530273 1.500004887580872 C 50.87311935424805 1.500004887580872 56.56977081298828 2.649929761886597 61.93169784545898 4.917829990386963 C 67.11147308349609 7.108692169189453 71.76369476318359 10.24540519714355 75.75914764404297 14.24085521697998 C 79.75458526611328 18.23630523681641 82.89131164550781 22.88851737976074 85.08216857910156 28.06829261779785 C 87.35007476806641 33.43021774291992 88.5 39.12686920166016 88.5 44.99999237060547 C 88.5 50.87311553955078 87.35007476806641 56.56976699829102 85.08216857910156 61.93169403076172 C 82.89131164550781 67.11146545410156 79.75458526611328 71.76369476318359 75.75914764404297 75.75914001464844 C 71.76369476318359 79.75457763671875 67.11147308349609 82.89130401611328 61.93169784545898 85.08216857910156 C 56.56977081298828 87.35006713867188 50.87311935424805 88.49999237060547 44.99999618530273 88.49999237060547 Z" stroke="none"/>
                <path d="M 44.99999618530273 2.999992370605469 C 39.32870864868164 2.999992370605469 33.82865142822266 4.11004638671875 28.65262603759766 6.299331665039062 C 23.65165710449219 8.414566040039062 19.15968322753906 11.44333648681641 15.301513671875 15.30150604248047 C 11.44333648681641 19.15967559814453 8.414566040039062 23.65164947509766 6.299339294433594 28.65262222290039 C 4.110054016113281 33.82864761352539 2.999992370605469 39.32870483398438 2.999992370605469 44.99999237060547 C 2.999992370605469 50.67127990722656 4.110054016113281 56.17132186889648 6.299339294433594 61.34736633300781 C 8.414566040039062 66.34833526611328 11.44333648681641 70.84029388427734 15.301513671875 74.69846343994141 C 19.15968322753906 78.55663299560547 23.65165710449219 81.58540344238281 28.65262603759766 83.70063781738281 C 33.82865142822266 85.88992309570312 39.32870864868164 86.99997711181641 44.99999618530273 86.99997711181641 C 50.67128372192383 86.99997711181641 56.17134094238281 85.88992309570312 61.34736633300781 83.70063781738281 C 66.34834289550781 81.58540344238281 70.84030914306641 78.55663299560547 74.69847869873047 74.69846343994141 C 78.55665588378906 70.84029388427734 81.58542633056641 66.34833526611328 83.70065307617188 61.34736633300781 C 85.88993835449219 56.17132186889648 87 50.67127990722656 87 44.99999237060547 C 87 39.32870483398438 85.88993835449219 33.82864761352539 83.70065307617188 28.65262222290039 C 81.58542633056641 23.65164947509766 78.55665588378906 19.15967559814453 74.69847869873047 15.30150604248047 C 70.84030914306641 11.44333648681641 66.34834289550781 8.414566040039062 61.34736633300781 6.299331665039062 C 56.17134094238281 4.11004638671875 50.67128372192383 2.999992370605469 44.99999618530273 2.999992370605469 M 44.99999618530273 -7.62939453125e-06 C 69.85281372070312 -7.62939453125e-06 90 20.14717864990234 90 44.99999237060547 C 90 69.85279083251953 69.85281372070312 89.99997711181641 44.99999618530273 89.99997711181641 C 20.14717864990234 89.99997711181641 -7.62939453125e-06 69.85279083251953 -7.62939453125e-06 44.99999237060547 C -7.62939453125e-06 20.14717864990234 20.14717864990234 -7.62939453125e-06 44.99999618530273 -7.62939453125e-06 Z" stroke="none" fill="#86b60c"/>
              </g>
            </g>
          </g>
        </g>
      </g>
    </g>
    <g id="Layer_1" data-name="Layer 1" transform="translate(223.655 742.831)">
      <path id="Trazado_1030931" data-name="Trazado 1030931" d="M39.67,40.912A14.174,14.174,0,1,1,25.5,26.738,14.174,14.174,0,0,1,39.67,40.912Z" transform="translate(-6.277 -6.276)" fill="#f8ec7d"/>
      <path id="Trazado_1030932" data-name="Trazado 1030932" d="M26.562,55.044q-.527.039-1.064.04a14.174,14.174,0,0,1,0-28.349q.537,0,1.064.04a14.175,14.175,0,0,0,0,28.269Z" transform="translate(-6.279 -6.273)" fill="#d7be69"/>
      <path id="Trazado_1030933" data-name="Trazado 1030933" d="M69.854,75.03A10.239,10.239,0,1,1,59.615,64.791,10.239,10.239,0,0,1,69.854,75.03Z" transform="translate(-40.396 -40.394)" fill="#fdbf00"/>
      <path id="Trazado_1030934" data-name="Trazado 1030934" d="M38.239,293.7a1.43,1.43,0,0,1,1.43,1.43v2.06a1.431,1.431,0,0,0,0,2.861v2.06a1.431,1.431,0,0,0,0,2.861v2.06a1.43,1.43,0,0,1-1.43,1.43H12.752a1.431,1.431,0,0,1-1.431-1.43v-2.06a1.43,1.43,0,1,0,0-2.861v-2.061a1.43,1.43,0,1,0,0-2.861v-2.061a1.43,1.43,0,0,0,0-2.861V290.2a1.43,1.43,0,0,1,1.43-1.43H38.239a1.43,1.43,0,0,1,1.43,1.43v2.06A1.431,1.431,0,0,1,38.239,293.7Z" transform="translate(-6.277 -241.216)" fill="#ffdf40"/>
      <path id="Trazado_1030935" data-name="Trazado 1030935" d="M39.67,310.034v1.293a1.43,1.43,0,0,1-1.43,1.43H12.752a1.431,1.431,0,0,1-1.431-1.43v-1.293a1.081,1.081,0,0,0,1.081,1.081H38.589a1.081,1.081,0,0,0,1.081-1.081Zm-1.081,6H12.4a1.081,1.081,0,0,1-1.081-1.081v1.293a1.431,1.431,0,0,0,1.43,1.43H38.239a1.431,1.431,0,0,0,1.43-1.43v-1.293a1.081,1.081,0,0,1-1.081,1.081Zm0,4.921H12.4a1.081,1.081,0,0,1-1.081-1.081v1.293a1.431,1.431,0,0,0,1.431,1.43H38.239a1.43,1.43,0,0,0,1.43-1.43v-1.293a1.081,1.081,0,0,1-1.081,1.081Zm0,4.921H12.4a1.081,1.081,0,0,1-1.081-1.081v1.293a1.431,1.431,0,0,0,1.431,1.43H38.239a1.43,1.43,0,0,0,1.43-1.43V324.8a1.081,1.081,0,0,1-1.081,1.081Z" transform="translate(-6.277 -260.277)" fill="#ffbe40"/>
      <path id="Trazado_1030936" data-name="Trazado 1030936" d="M257.724,209.44V194.446a1.062,1.062,0,0,1,1.062-1.062h4.634a1.062,1.062,0,0,1,1.062,1.062V209.44a.357.357,0,0,0,.357.357h2.025a.357.357,0,0,1,.287.57l-5.761,7.754a.357.357,0,0,1-.573,0l-5.761-7.754a.357.357,0,0,1,.287-.57h2.025a.357.357,0,0,0,.357-.357Zm-15.046.357h-2.025a.357.357,0,0,0-.287.57l5.761,7.754a.357.357,0,0,0,.573,0l5.761-7.754a.357.357,0,0,0-.287-.57h-2.024a.357.357,0,0,1-.357-.357V188.534a1.062,1.062,0,0,0-1.062-1.062H244.1a1.062,1.062,0,0,0-1.062,1.062V209.44a.357.357,0,0,1-.357.357Z" transform="translate(-211.575 -150.389)" fill="#ff5959"/>
      <path id="Trazado_1030937" data-name="Trazado 1030937" d="M246.414,218.265a.355.355,0,0,1-.287-.144l-5.761-7.754a.357.357,0,0,1,.287-.57h2.024a.357.357,0,0,0,.357-.357V188.534a1.062,1.062,0,0,1,1.062-1.062h2.317ZM261.1,193.384h-2.317a1.062,1.062,0,0,0-1.062,1.062V209.44a.357.357,0,0,1-.357.357h-2.024a.357.357,0,0,0-.287.57l5.761,7.754a.355.355,0,0,0,.287.144Z" transform="translate(-211.574 -150.389)" fill="#e63a57"/>
      <path id="Trazado_1030938" data-name="Trazado 1030938" d="M56.255,59.279a1.075,1.075,0,0,0-.966-.6H53.631V44.057a1.788,1.788,0,0,0-1.786-1.786H47.211a1.788,1.788,0,0,0-1.786,1.786V58.684H43.768A1.081,1.081,0,0,0,42.9,60.41l5.761,7.754a1.086,1.086,0,0,0,.868.436h0a1.086,1.086,0,0,0,.868-.436l5.761-7.754a1.075,1.075,0,0,0,.1-1.13ZM49.528,66.9,44.5,60.131h1.3a1.082,1.082,0,0,0,1.081-1.081V44.056a.339.339,0,0,1,.338-.338h4.634a.339.339,0,0,1,.338.338V59.05a1.082,1.082,0,0,0,1.081,1.081h1.3ZM40.6,58.683H38.942V38.145a1.788,1.788,0,0,0-1.786-1.786H34.017a15.088,15.088,0,0,0,.1-1.723,14.9,14.9,0,1,0-23.453,12.2H6.434A2.116,2.116,0,0,0,4.32,48.948V51.09a2.1,2.1,0,0,0,.525,1.39,2.1,2.1,0,0,0-.525,1.39v2.141a2.1,2.1,0,0,0,.525,1.39,2.1,2.1,0,0,0-.525,1.39v2.142a2.1,2.1,0,0,0,.525,1.39,2.1,2.1,0,0,0-.525,1.39v2.141a2.116,2.116,0,0,0,2.114,2.114H32a2.109,2.109,0,0,0,1.417-.546l.551.742a1.081,1.081,0,0,0,1.736,0l5.761-7.754a1.081,1.081,0,0,0-.868-1.726ZM5.768,34.636a13.451,13.451,0,0,1,26.9,0,13.644,13.644,0,0,1-.111,1.723h-.036a1.788,1.788,0,0,0-1.786,1.786v3.437a13.6,13.6,0,0,1-5.847,5.253H13.545A13.5,13.5,0,0,1,5.768,34.636ZM28.211,60.41l.883,1.189H6.434a.667.667,0,0,1-.666-.666V58.791a.667.667,0,0,1,.666-.666h24.3v.559H29.079a1.081,1.081,0,0,0-.868,1.726Zm2.526-3.733H6.434a.667.667,0,0,1-.666-.666V53.87a.667.667,0,0,1,.666-.666h24.3Zm0-9.843H27.765a15.148,15.148,0,0,0,2.971-2.755ZM5.768,48.948a.667.667,0,0,1,.666-.666h24.3v3.474H6.434a.667.667,0,0,1-.666-.666ZM32,66.52H6.434a.667.667,0,0,1-.666-.666V63.712a.667.667,0,0,1,.666-.666H30.17l2.374,3.2A.664.664,0,0,1,32,66.52Zm2.837.384-5.032-6.773h1.3a1.082,1.082,0,0,0,1.081-1.081V38.145a.339.339,0,0,1,.338-.338h4.634a.339.339,0,0,1,.338.338V59.05a1.082,1.082,0,0,0,1.081,1.081h1.3ZM30.182,34.636A10.963,10.963,0,1,0,19.219,45.6,10.963,10.963,0,0,0,30.182,34.636Zm-20.479,0a9.516,9.516,0,1,1,9.516,9.516A9.516,9.516,0,0,1,9.7,34.636Zm9.516,7.432a.724.724,0,0,1-.724-.724V40.109a4.044,4.044,0,0,1-.973-.273,3.008,3.008,0,0,1-1.782-1.892.724.724,0,0,1,1.392-.4,1.557,1.557,0,0,0,.954.957,2.734,2.734,0,0,0,2.305-.113,1.637,1.637,0,0,0,.864-1.695c-.159-.881-1.073-1.5-2.508-1.7a3.12,3.12,0,0,1-2.689-2,2.808,2.808,0,0,1,.638-2.848,3.483,3.483,0,0,1,1.8-.955v-1.27a.724.724,0,0,1,1.448,0v1.251a3.732,3.732,0,0,1,2.265,1.343.724.724,0,1,1-1.124.912,2.3,2.3,0,0,0-1.7-.865,2.2,2.2,0,0,0-1.644.592,1.348,1.348,0,0,0-.308,1.367,1.709,1.709,0,0,0,1.516,1.037c2.066.283,3.463,1.357,3.736,2.873a3.059,3.059,0,0,1-1.6,3.227,4.111,4.111,0,0,1-1.133.405v1.274a.724.724,0,0,1-.724.724Z" transform="translate(0)"/>
    </g>
  </g>
</svg>
