<svg xmlns="http://www.w3.org/2000/svg" xmlns:xlink="http://www.w3.org/1999/xlink" width="108" height="108" viewBox="0 0 108 108">
  <defs>
    <filter id="Trazado_904820" x="0" y="0" width="108" height="108" filterUnits="userSpaceOnUse">
      <feOffset dy="3" input="SourceAlpha"/>
      <feGaussianBlur stdDeviation="3" result="blur"/>
      <feFlood flood-opacity="0.161"/>
      <feComposite operator="in" in2="blur"/>
      <feComposite in="SourceGraphic"/>
    </filter>
  </defs>
  <g id="Grupo_1173705" data-name="Grupo 1173705" transform="translate(9 6)">
    <g id="Grupo_1172952" data-name="Grupo 1172952" transform="translate(0 0)">
      <g id="Grupo_1171958" data-name="Grupo 1171958">
        <g id="Grupo_1167341" data-name="Grupo 1167341">
          <g id="Grupo_1166792" data-name="Grupo 1166792">
            <g transform="matrix(1, 0, 0, 1, -9, -6)" filter="url(#Trazado_904820)">
              <g id="Trazado_904820-2" data-name="Trazado 904820" transform="translate(9 6)" fill="#f2f7e5">
                <path d="M 44.99999618530273 88.49999237060547 C 39.12687301635742 88.49999237060547 33.43022155761719 87.35006713867188 28.06829643249512 85.08216857910156 C 22.88852119445801 82.89130401611328 18.23629570007324 79.75457763671875 14.24084663391113 75.75914001464844 C 10.24540901184082 71.76369476318359 7.108683586120605 67.11146545410156 4.917821407318115 61.93169403076172 C 2.649921178817749 56.56976699829102 1.499996185302734 50.87311553955078 1.499996185302734 44.99999237060547 C 1.499996185302734 39.12686920166016 2.649921178817749 33.43021774291992 4.917821407318115 28.06829261779785 C 7.108683586120605 22.88851737976074 10.24540901184082 18.23630523681641 14.24084663391113 14.24085521697998 C 18.23629570007324 10.24540519714355 22.88852119445801 7.108692169189453 28.06829643249512 4.917829990386963 C 33.43022155761719 2.649929761886597 39.12687301635742 1.500004887580872 44.99999618530273 1.500004887580872 C 50.87311935424805 1.500004887580872 56.56977081298828 2.649929761886597 61.93169784545898 4.917829990386963 C 67.11147308349609 7.108692169189453 71.76369476318359 10.24540519714355 75.75914764404297 14.24085521697998 C 79.75458526611328 18.23630523681641 82.89131164550781 22.88851737976074 85.08216857910156 28.06829261779785 C 87.35007476806641 33.43021774291992 88.5 39.12686920166016 88.5 44.99999237060547 C 88.5 50.87311553955078 87.35007476806641 56.56976699829102 85.08216857910156 61.93169403076172 C 82.89131164550781 67.11146545410156 79.75458526611328 71.76369476318359 75.75914764404297 75.75914001464844 C 71.76369476318359 79.75457763671875 67.11147308349609 82.89130401611328 61.93169784545898 85.08216857910156 C 56.56977081298828 87.35006713867188 50.87311935424805 88.49999237060547 44.99999618530273 88.49999237060547 Z" stroke="none"/>
                <path d="M 44.99999618530273 2.999992370605469 C 39.32870864868164 2.999992370605469 33.82865142822266 4.11004638671875 28.65262603759766 6.299331665039062 C 23.65165710449219 8.414566040039062 19.15968322753906 11.44333648681641 15.301513671875 15.30150604248047 C 11.44333648681641 19.15967559814453 8.414566040039062 23.65164947509766 6.299339294433594 28.65262222290039 C 4.110054016113281 33.82864761352539 2.999992370605469 39.32870483398438 2.999992370605469 44.99999237060547 C 2.999992370605469 50.67127990722656 4.110054016113281 56.17132186889648 6.299339294433594 61.34736633300781 C 8.414566040039062 66.34833526611328 11.44333648681641 70.84029388427734 15.301513671875 74.69846343994141 C 19.15968322753906 78.55663299560547 23.65165710449219 81.58540344238281 28.65262603759766 83.70063781738281 C 33.82865142822266 85.88992309570312 39.32870864868164 86.99997711181641 44.99999618530273 86.99997711181641 C 50.67128372192383 86.99997711181641 56.17134094238281 85.88992309570312 61.34736633300781 83.70063781738281 C 66.34834289550781 81.58540344238281 70.84030914306641 78.55663299560547 74.69847869873047 74.69846343994141 C 78.55665588378906 70.84029388427734 81.58542633056641 66.34833526611328 83.70065307617188 61.34736633300781 C 85.88993835449219 56.17132186889648 87 50.67127990722656 87 44.99999237060547 C 87 39.32870483398438 85.88993835449219 33.82864761352539 83.70065307617188 28.65262222290039 C 81.58542633056641 23.65164947509766 78.55665588378906 19.15967559814453 74.69847869873047 15.30150604248047 C 70.84030914306641 11.44333648681641 66.34834289550781 8.414566040039062 61.34736633300781 6.299331665039062 C 56.17134094238281 4.11004638671875 50.67128372192383 2.999992370605469 44.99999618530273 2.999992370605469 M 44.99999618530273 -7.62939453125e-06 C 69.85281372070312 -7.62939453125e-06 90 20.14717864990234 90 44.99999237060547 C 90 69.85279083251953 69.85281372070312 89.99997711181641 44.99999618530273 89.99997711181641 C 20.14717864990234 89.99997711181641 -7.62939453125e-06 69.85279083251953 -7.62939453125e-06 44.99999237060547 C -7.62939453125e-06 20.14717864990234 20.14717864990234 -7.62939453125e-06 44.99999618530273 -7.62939453125e-06 Z" stroke="none" fill="#86b60c"/>
              </g>
            </g>
          </g>
        </g>
      </g>
    </g>
    <g id="infrastructure_8654521" transform="translate(8.054 1.806)">
      <g id="Grupo_1173863" data-name="Grupo 1173863" transform="translate(8.913 21.635)">
        <g id="Grupo_1173858" data-name="Grupo 1173858" transform="translate(0 27.201)">
          <path id="Trazado_1030939" data-name="Trazado 1030939" d="M39.809,309,50.968,306c2.094-.565,4.137-.815,5.957.365a70.314,70.314,0,0,0,8.763,5.493,2.778,2.778,0,0,1,.994,3.712,2.689,2.689,0,0,1-3.712.995l1.238.554a6.234,6.234,0,0,0,4.333.388l10.737-2.921c8.346-2.27,7.673,4.482,4.877,5.317L64.52,325.76a6.4,6.4,0,0,1-5.194-.635l-11.347-6.551-5.228,1.4a1.893,1.893,0,0,1-2.314-1.336l-1.962-7.322A1.893,1.893,0,0,1,39.809,309Z" transform="translate(-35.89 -305.46)" fill="#f6dccd" fill-rule="evenodd"/>
          <path id="Trazado_1030940" data-name="Trazado 1030940" d="M211.765,362.4a2.744,2.744,0,0,1-3.336.475c-1.861-1.066-3.715-2.145-5.572-3.217a1.04,1.04,0,0,1,1.04-1.8Z" transform="translate(-181.348 -351.772)" fill="#f1cbbc" fill-rule="evenodd"/>
          <path id="Trazado_1030941" data-name="Trazado 1030941" d="M39.809,309l11.159-3.008c2.094-.565,4.137-.815,5.957.365,1.085.7,2.51,1.752,4.139,2.829l-21.607,5.79-.981-3.662A1.893,1.893,0,0,1,39.809,309Z" transform="translate(-35.89 -305.459)" fill="#f1cbbc" fill-rule="evenodd"/>
          <path id="Trazado_1030942" data-name="Trazado 1030942" d="M21.813,306.02l4.034,15.589a1.42,1.42,0,0,1-1.016,1.725l-3,.777a1.42,1.42,0,0,1-1.725-1.016l-4.034-15.589a1.42,1.42,0,0,1,1.016-1.725l3-.776a1.42,1.42,0,0,1,1.725,1.016Z" transform="translate(-16.027 -304.96)" fill="#d1d1d6" fill-rule="evenodd"/>
          <path id="Trazado_1030943" data-name="Trazado 1030943" d="M57.725,316.4l.714,2.759.706,2.728a1.42,1.42,0,0,1-1.011,1.724l1.072-.277a1.42,1.42,0,0,0,1.016-1.725l-.708-2.738-1.422-5.5-1.424-5.5-.479-1.851a1.421,1.421,0,0,0-1.423-1.06l.829,3.2,1.422,5.5.708,2.738Z" transform="translate(-50.401 -304.961)" fill="#b1b1b5" fill-rule="evenodd"/>
        </g>
        <g id="Grupo_1173859" data-name="Grupo 1173859" transform="translate(29.483)">
          <path id="Trazado_1030944" data-name="Trazado 1030944" d="M278.911,71.891a5.97,5.97,0,0,0,.725,1.749l-.5,1.137,1.34,1.34,1.136-.5a5.976,5.976,0,0,0,1.75.725l.446,1.16H285.7l.447-1.16a5.973,5.973,0,0,0,1.749-.725l1.137.5,1.34-1.34-.5-1.136a5.972,5.972,0,0,0,.725-1.75l1.159-.446V69.55l-1.16-.446a5.976,5.976,0,0,0-.725-1.749l.5-1.137-1.34-1.34-1.136.5a5.973,5.973,0,0,0-1.75-.725L285.7,63.5H283.8l-.446,1.16a5.972,5.972,0,0,0-1.749.725l-1.136-.5-1.34,1.34.5,1.137a5.977,5.977,0,0,0-.725,1.749l-1.16.446v1.894Z" transform="translate(-277.751 -63.498)" fill="#ffe177" fill-rule="evenodd"/>
          <path id="Trazado_1030945" data-name="Trazado 1030945" d="M308.572,75.929l.418.186,1.34-1.34-.5-1.136a5.971,5.971,0,0,0,.725-1.75l1.16-.446V69.549l-1.16-.446a5.975,5.975,0,0,0-.725-1.749l.5-1.137-1.339-1.34-.419.186,1.154,1.154-.5,1.137a5.972,5.972,0,0,1,.725,1.749l1.16.446v1.894l-1.16.446a5.971,5.971,0,0,1-.725,1.75l.5,1.136ZM305.054,77.5h.6l.447-1.16a5.974,5.974,0,0,0,1.749-.725l-.343-.152a8.013,8.013,0,0,1-2.011.877Zm2.8-12.113a5.972,5.972,0,0,0-1.75-.725l-.446-1.16h-.6l.446,1.16a8.006,8.006,0,0,1,2.011.877Zm-6.286,0-1.136-.5-.186.186,1.061.471Q301.436,65.455,301.568,65.382Zm-1.322,10.547.186.186,1.136-.5q-.133-.073-.262-.152Z" transform="translate(-297.712 -63.497)" fill="#ffd064" fill-rule="evenodd"/>
          <circle id="Elipse_11871" data-name="Elipse 11871" cx="3.304" cy="3.304" r="3.304" transform="translate(3.276 9.828) rotate(-82.008)" fill="#eceff1"/>
          <path id="Trazado_1030946" data-name="Trazado 1030946" d="M310.555,99.6a3.3,3.3,0,0,1,3.3-3.3c.078,0,.155,0,.231.008a3.3,3.3,0,0,0,0,6.591c-.076.005-.154.008-.231.008A3.3,3.3,0,0,1,310.555,99.6Z" transform="translate(-306.86 -92.605)" fill="#d1d1d6" fill-rule="evenodd"/>
        </g>
        <g id="Grupo_1173860" data-name="Grupo 1173860" transform="translate(26.222 15.604)">
          <path id="Trazado_1030947" data-name="Trazado 1030947" d="M249.48,202.018h3.276a.678.678,0,0,1,.676.676v7.9a.678.678,0,0,1-.676.676H249.48a.678.678,0,0,1-.676-.676v-7.9A.678.678,0,0,1,249.48,202.018Z" transform="translate(-248.804 -202.018)" fill="#fe646f" fill-rule="evenodd"/>
          <path id="Trazado_1030948" data-name="Trazado 1030948" d="M275.81,202.018h.909a.678.678,0,0,1,.676.676v7.9a.678.678,0,0,1-.676.676h-.909a.678.678,0,0,0,.676-.676v-7.9A.678.678,0,0,0,275.81,202.018Z" transform="translate(-272.768 -202.018)" fill="#fd4755" fill-rule="evenodd"/>
        </g>
        <g id="Grupo_1173861" data-name="Grupo 1173861" transform="translate(34.229 16.731)">
          <path id="Trazado_1030949" data-name="Trazado 1030949" d="M323.834,212.019h-3.276a.678.678,0,0,0-.676.676v7.9a.678.678,0,0,0,.676.676h3.276a.678.678,0,0,0,.676-.676v-7.9a.678.678,0,0,0-.676-.676Z" transform="translate(-319.882 -212.019)" fill="#6cf5c2" fill-rule="evenodd"/>
          <path id="Trazado_1030950" data-name="Trazado 1030950" d="M346.889,212.019h.909a.678.678,0,0,1,.676.676v7.9a.678.678,0,0,1-.676.676h-.909a.678.678,0,0,0,.676-.676v-7.9a.678.678,0,0,0-.676-.676Z" transform="translate(-343.847 -212.019)" fill="#00e499" fill-rule="evenodd"/>
        </g>
        <g id="Grupo_1173862" data-name="Grupo 1173862" transform="translate(42.115 15.604)">
          <path id="Trazado_1030951" data-name="Trazado 1030951" d="M393.836,202.018H390.56a.678.678,0,0,0-.676.676v7.9a.678.678,0,0,0,.676.676h3.276a.678.678,0,0,0,.676-.676v-7.9A.678.678,0,0,0,393.836,202.018Z" transform="translate(-389.884 -202.018)" fill="#8ac9fe" fill-rule="evenodd"/>
          <path id="Trazado_1030952" data-name="Trazado 1030952" d="M416.891,202.018h.909a.678.678,0,0,1,.676.676v7.9a.678.678,0,0,1-.676.676h-.909a.678.678,0,0,0,.676-.676v-7.9A.678.678,0,0,0,416.891,202.018Z" transform="translate(-413.849 -202.018)" fill="#60b7ff" fill-rule="evenodd"/>
        </g>
      </g>
      <g id="Grupo_1173864" data-name="Grupo 1173864" transform="translate(8.01 16.32)">
        <path id="Trazado_1030953" data-name="Trazado 1030953" d="M54.752,38.14H51.926v7.454h2.826Zm.9-1.8a.9.9,0,0,1,.9.9V46.5a.9.9,0,0,1-.9.9H51.025a.9.9,0,0,1-.9-.9V37.239a.9.9,0,0,1,.9-.9Zm-8.786,2.929H44.041v7.454h2.825Zm.9,9.256H43.14a.9.9,0,0,1-.9-.9V38.366a.9.9,0,0,1,.9-.9h4.627a.9.9,0,0,1,.9.9v9.256A.9.9,0,0,1,47.767,48.523ZM36.034,45.595h2.826V38.14H36.034Zm-.9,1.8a.9.9,0,0,1-.9-.9V37.239a.9.9,0,0,1,.9-.9H39.76a.9.9,0,0,1,.9.9V46.5a.9.9,0,0,1-.9.9ZM42.99,28.634a2.4,2.4,0,1,0,2.4-2.4A2.4,2.4,0,0,0,42.99,28.634Zm-1.8,0a4.205,4.205,0,1,1,4.205,4.205A4.21,4.21,0,0,1,41.188,28.634Zm-.339-4.079.466-.464.571.253a.9.9,0,0,0,.838-.056,5.059,5.059,0,0,1,1.485-.616.9.9,0,0,0,.633-.553l.224-.582h.657l.224.582a.9.9,0,0,0,.632.553,5.067,5.067,0,0,1,1.486.616.9.9,0,0,0,.838.056l.571-.253.464.464-.253.57a.9.9,0,0,0,.057.839,5.065,5.065,0,0,1,.616,1.485.9.9,0,0,0,.553.633l.581.224v.657l-.582.224a.9.9,0,0,0-.552.632A5.077,5.077,0,0,1,49.74,31.3a.9.9,0,0,0-.057.838l.253.571-.464.464-.571-.253a.9.9,0,0,0-.838.056,5.072,5.072,0,0,1-1.486.616.9.9,0,0,0-.632.553l-.224.582h-.657l-.224-.582a.9.9,0,0,0-.633-.553,5.078,5.078,0,0,1-1.485-.616.9.9,0,0,0-.838-.056l-.571.253-.466-.464.254-.571a.9.9,0,0,0-.056-.838,5.075,5.075,0,0,1-.616-1.486.9.9,0,0,0-.553-.632l-.582-.224v-.657l.582-.224a.9.9,0,0,0,.553-.633,5.083,5.083,0,0,1,.616-1.485.9.9,0,0,0,.057-.838Zm-.372-2.177-1.339,1.339a.9.9,0,0,0-.187,1l.321.722a6.817,6.817,0,0,0-.465,1.12l-.736.284a.9.9,0,0,0-.577.841v1.894a.9.9,0,0,0,.577.842l.736.283a6.821,6.821,0,0,0,.465,1.121l-.321.721a.9.9,0,0,0,.187,1l1.339,1.339a.9.9,0,0,0,1,.186l.722-.32a6.826,6.826,0,0,0,1.12.464l.284.737a.9.9,0,0,0,.84.578H46.34a.9.9,0,0,0,.842-.578l.283-.736a6.85,6.85,0,0,0,1.121-.465l.721.32a.9.9,0,0,0,1-.186l1.339-1.339a.9.9,0,0,0,.186-1l-.32-.721a6.72,6.72,0,0,0,.464-1.121l.737-.283a.9.9,0,0,0,.577-.842V27.687a.9.9,0,0,0-.577-.841l-.735-.284a6.876,6.876,0,0,0-.465-1.121l.32-.721a.9.9,0,0,0-.186-1L50.31,22.378a.9.9,0,0,0-1-.187l-.721.321a6.852,6.852,0,0,0-1.121-.465l-.283-.735a.9.9,0,0,0-.842-.578H44.445a.9.9,0,0,0-.84.578l-.284.735a6.865,6.865,0,0,0-1.12.465l-.722-.321a.9.9,0,0,0-1,.187ZM12.318,51.144a.964.964,0,1,0,.844,1.069.963.963,0,0,0-.844-1.069ZM29.969,57.5a.9.9,0,1,1,.9-1.561c.623.361,4.368,2.6,5.806,3.3a1.727,1.727,0,0,0,2.247-.746,1.865,1.865,0,0,0-.658-2.475,49.865,49.865,0,0,1-7.027-4.307c-.679-.474-1.266-.883-1.781-1.217-1.591-1.032-3.454-.731-5.232-.251l-7.951,2.144,2.4,9.256,2.1-.563a.9.9,0,0,1,.684.09L32.8,67.721a5.514,5.514,0,0,0,4.486.552l19.635-5.862A2.2,2.2,0,0,0,58.1,59.846c-.419-1.47-2.5-1.851-5.563-1.018L41.8,61.749a7.106,7.106,0,0,1-4.937-.435c-.3-.135-.6-.272-.882-.41Zm-12.11,8.211a.521.521,0,0,1-.368.626l-3,.777a.518.518,0,0,1-.626-.369L9.829,51.157a.521.521,0,0,1,.368-.626l3-.777a.517.517,0,0,1,.627.369Zm41.972-6.36c-.276-.952-1.638-3.93-7.768-2.263L41.326,60.009a5.31,5.31,0,0,1-1.459.194,3.88,3.88,0,0,0,.616-.81A3.691,3.691,0,0,0,39.2,54.475a.878.878,0,0,0-.107-.06,48.215,48.215,0,0,1-6.824-4.184c-.664-.463-1.291-.9-1.832-1.251-2.187-1.419-4.605-1.039-6.681-.479L15.821,50.64l-.25-.969a2.32,2.32,0,0,0-2.825-1.663l-3,.777a2.319,2.319,0,0,0-1.663,2.823L12.117,67.2a2.326,2.326,0,0,0,2.243,1.737,2.336,2.336,0,0,0,.581-.074l3-.777A2.319,2.319,0,0,0,19.6,65.26l-.485-1.872,1.754-.47L31.9,69.282A7.331,7.331,0,0,0,37.8,70l19.636-5.861a3.981,3.981,0,0,0,2.4-4.788Zm-27.9-17.2a.9.9,0,0,1-1.242.288l-.212-.133a16.718,16.718,0,0,0,14.916,9.2.9.9,0,0,1,0,1.8,18.526,18.526,0,0,1-16.432-10l-.038.216a.9.9,0,0,1-.887.748.891.891,0,0,1-.154-.014.9.9,0,0,1-.735-1.042l.569-3.289a.9.9,0,0,1,1.365-.611l2.562,1.6a.9.9,0,0,1,.288,1.242ZM45.393,18.122a.9.9,0,1,1,0-1.8A18.552,18.552,0,0,1,61.825,26.326l.037-.219a.9.9,0,1,1,1.776.307l-.567,3.29a.9.9,0,0,1-.886.748.884.884,0,0,1-.477-.137l-2.566-1.6a.9.9,0,0,1,.954-1.53l.212.133a16.746,16.746,0,0,0-14.915-9.2ZM27.8,35.712a.9.9,0,0,0,.9-.9,16.741,16.741,0,0,1,9.2-14.916l-.133.212a.9.9,0,1,0,1.53.954L40.9,18.5a.9.9,0,0,0-.611-1.365L37,16.564a.9.9,0,1,0-.307,1.775l.218.038A18.551,18.551,0,0,0,26.9,34.81a.9.9,0,0,0,.9.9Zm36.079-.9a18.481,18.481,0,0,1-10,16.433l.218.037a.9.9,0,1,1-.308,1.777L50.5,52.488a.9.9,0,0,1-.612-1.365l1.6-2.563a.9.9,0,0,1,1.53.954l-.13.209a16.78,16.78,0,0,0,9.2-14.913.9.9,0,1,1,1.8,0Z" transform="translate(-8.01 -16.32)" fill-rule="evenodd"/>
      </g>
    </g>
  </g>
</svg>
