<svg xmlns="http://www.w3.org/2000/svg" xmlns:xlink="http://www.w3.org/1999/xlink" width="108" height="108" viewBox="0 0 108 108">
  <defs>
    <filter id="Trazado_982547" x="0" y="0" width="108" height="108" filterUnits="userSpaceOnUse">
      <feOffset dy="3" input="SourceAlpha"/>
      <feGaussianBlur stdDeviation="3" result="blur"/>
      <feFlood flood-opacity="0.161"/>
      <feComposite operator="in" in2="blur"/>
      <feComposite in="SourceGraphic"/>
    </filter>
  </defs>
  <g id="Grupo_1173823" data-name="Grupo 1173823" transform="translate(-446 -1130)">
    <g id="Grupo_1173686" data-name="Grupo 1173686" transform="translate(275 -310)">
      <g id="Grupo_1173175" data-name="Grupo 1173175" transform="translate(180 1446)">
        <g id="Grupo_1171932" data-name="Grupo 1171932" transform="translate(0 0)">
          <g id="Grupo_1167337" data-name="Grupo 1167337" transform="translate(0)">
            <g id="Grupo_1166720" data-name="Grupo 1166720" transform="translate(0)">
              <g id="Grupo_1164305" data-name="Grupo 1164305">
                <g id="Grupo_1163948" data-name="Grupo 1163948">
                  <g id="Grupo_1158168" data-name="Grupo 1158168">
                    <g id="Grupo_1152576" data-name="Grupo 1152576">
                      <g id="Grupo_1148633" data-name="Grupo 1148633">
                        <g id="Grupo_1148525" data-name="Grupo 1148525">
                          <g transform="matrix(1, 0, 0, 1, -9, -6)" filter="url(#Trazado_982547)">
                            <g id="Trazado_982547-2" data-name="Trazado 982547" transform="translate(9 6)" fill="#fff">
                              <path d="M 45 88.5 C 39.12687683105469 88.5 33.43022537231445 87.35007476806641 28.06830024719238 85.08217620849609 C 22.88852500915527 82.89131164550781 18.23629951477051 79.75458526611328 14.2408504486084 75.75914764404297 C 10.24541282653809 71.76370239257812 7.108687400817871 67.11147308349609 4.917825222015381 61.93170166015625 C 2.649924993515015 56.56977462768555 1.5 50.87312316894531 1.5 45 C 1.5 39.12687683105469 2.649924993515015 33.43022537231445 4.917825222015381 28.06830024719238 C 7.108687400817871 22.88852500915527 10.24541282653809 18.23629951477051 14.2408504486084 14.2408504486084 C 18.23629951477051 10.24541282653809 22.88852500915527 7.108687400817871 28.06830024719238 4.917825222015381 C 33.43022537231445 2.649924993515015 39.12687683105469 1.5 45 1.5 C 50.87312316894531 1.5 56.56977462768555 2.649924993515015 61.93170166015625 4.917825222015381 C 67.11147308349609 7.108687400817871 71.76370239257812 10.24541282653809 75.75914764404297 14.2408504486084 C 79.75458526611328 18.23629951477051 82.89131164550781 22.88852500915527 85.08217620849609 28.06830024719238 C 87.35007476806641 33.43022537231445 88.5 39.12687683105469 88.5 45 C 88.5 50.87312316894531 87.35007476806641 56.56977462768555 85.08217620849609 61.93170166015625 C 82.89131164550781 67.11147308349609 79.75458526611328 71.76370239257812 75.75914764404297 75.75914764404297 C 71.76370239257812 79.75458526611328 67.11147308349609 82.89131164550781 61.93170166015625 85.08217620849609 C 56.56977462768555 87.35007476806641 50.87312316894531 88.5 45 88.5 Z" stroke="none"/>
                              <path d="M 45 3 C 39.32871246337891 3 33.82865524291992 4.110054016113281 28.65262985229492 6.299339294433594 C 23.65165710449219 8.414573669433594 19.15968322753906 11.44334411621094 15.301513671875 15.301513671875 C 11.44334411621094 19.15968322753906 8.414573669433594 23.65165710449219 6.299339294433594 28.65262985229492 C 4.110054016113281 33.82865524291992 3 39.32871246337891 3 45 C 3 50.67128753662109 4.110054016113281 56.17134475708008 6.299339294433594 61.34737396240234 C 8.414573669433594 66.34834289550781 11.44334411621094 70.84031677246094 15.301513671875 74.698486328125 C 19.15968322753906 78.55665588378906 23.65165710449219 81.58542633056641 28.65262985229492 83.70066070556641 C 33.82865524291992 85.88994598388672 39.32871246337891 87 45 87 C 50.67128753662109 87 56.17134475708008 85.88994598388672 61.34737396240234 83.70066070556641 C 66.34834289550781 81.58542633056641 70.84031677246094 78.55665588378906 74.698486328125 74.698486328125 C 78.55665588378906 70.84031677246094 81.58542633056641 66.34834289550781 83.70066070556641 61.34737396240234 C 85.88994598388672 56.17134475708008 87 50.67128753662109 87 45 C 87 39.32871246337891 85.88994598388672 33.82865524291992 83.70066070556641 28.65262985229492 C 81.58542633056641 23.65165710449219 78.55665588378906 19.15968322753906 74.698486328125 15.301513671875 C 70.84031677246094 11.44334411621094 66.34834289550781 8.414573669433594 61.34737396240234 6.299339294433594 C 56.17134475708008 4.110054016113281 50.67128753662109 3 45 3 M 45 0 C 69.85281372070312 0 90 20.14718627929688 90 45 C 90 69.85281372070312 69.85281372070312 90 45 90 C 20.14718627929688 90 0 69.85281372070312 0 45 C 0 20.14718627929688 20.14718627929688 0 45 0 Z" stroke="none" fill="#496406"/>
                            </g>
                          </g>
                        </g>
                      </g>
                    </g>
                  </g>
                </g>
              </g>
            </g>
          </g>
        </g>
      </g>
    </g>
    <g id="growth_4406380" transform="translate(444.888 1152.526)">
      <path id="Trazado_1030816" data-name="Trazado 1030816" d="M395.623,255.978h3.611v3.611h-3.611Z" transform="translate(-322.377 -226.226)" fill="#aee69c"/>
      <path id="Trazado_1030817" data-name="Trazado 1030817" d="M395.625,255.977h1.743v3.611h-1.743Z" transform="translate(-322.379 -226.225)" fill="#89daa4"/>
      <path id="Trazado_1030818" data-name="Trazado 1030818" d="M362.852,13.5l-5.416-5.449a1.819,1.819,0,0,0-1.287-.537h0a1.819,1.819,0,0,0-1.286.533l-5.416,5.416a1.819,1.819,0,0,0,2.573,2.573l2.324-2.324V32.779h3.61V13.73l2.32,2.335a1.777,1.777,0,0,0,2.572.008,1.818,1.818,0,0,0,.008-2.573Z" transform="translate(-281.095 -6.641)" fill="#aee69c"/>
      <path id="Trazado_1030819" data-name="Trazado 1030819" d="M395.625,62.57l1.743-1.743V79.9h-1.743Z" transform="translate(-322.379 -53.757)" fill="#89daa4"/>
      <path id="Trazado_1030820" data-name="Trazado 1030820" d="M356.149,7.517a1.8,1.8,0,0,1,.869.223,1.812,1.812,0,0,0-.415.309l-5.415,5.415a1.82,1.82,0,0,0,0,2.573,1.78,1.78,0,0,0,.414.309,1.819,1.819,0,0,1-2.157-2.883l5.415-5.415a1.823,1.823,0,0,1,1.287-.532h0Z" transform="translate(-281.096 -6.643)" fill="#89daa4"/>
      <path id="Trazado_1030821" data-name="Trazado 1030821" d="M72.545,281.756l-10.35-3.54H52l-10.35,3.54a4.794,4.794,0,0,0-3.243,4.536v18.179H75.787V286.292a4.794,4.794,0,0,0-3.242-4.536Z" transform="translate(-6.682 -245.879)" fill="#8ac9fe"/>
      <path id="Trazado_1030822" data-name="Trazado 1030822" d="M55.484,278.217l-10.349,3.54a4.794,4.794,0,0,0-3.243,4.535v18.18H38.4v-18.18a4.794,4.794,0,0,1,3.243-4.535L52,278.217Z" transform="translate(-6.679 -245.88)" fill="#60b7ff"/>
      <path id="Trazado_1030823" data-name="Trazado 1030823" d="M165.525,205.127v8.5l-5.1,3.84-5.1-3.84v-4.556l0-3.946Z" transform="translate(-110.009 -181.285)" fill="#ffb09e"/>
      <path id="Trazado_1030824" data-name="Trazado 1030824" d="M161.588,216.594l-1.162.875-5.1-3.84v-4.556l0-3.946h2.325l0,3.946v4.556Z" transform="translate(-110.009 -181.285)" fill="#f89580"/>
      <path id="Trazado_1030825" data-name="Trazado 1030825" d="M139.2,278.272l5.1,3.84-7.221,4.412v-7.532Z" transform="translate(-93.883 -245.928)" fill="#eaf6ff"/>
      <path id="Trazado_1030826" data-name="Trazado 1030826" d="M204.3,278.272l-5.1,3.84,7.221,4.412v-7.532Z" transform="translate(-148.786 -245.928)" fill="#eaf6ff"/>
      <path id="Trazado_1030827" data-name="Trazado 1030827" d="M165.525,205.127v6.595a10.312,10.312,0,0,1-4.433.994h-1.335a10.331,10.331,0,0,1-4.432-.993v-2.65l0-3.946Z" transform="translate(-110.009 -181.285)" fill="#f89580"/>
      <path id="Trazado_1030828" data-name="Trazado 1030828" d="M123.954,70.789V81.4a8.078,8.078,0,0,0,8.078,8.078h1.335a8.079,8.079,0,0,0,8.079-8.078V70.789a2.474,2.474,0,0,0-2.474-2.474H126.428A2.474,2.474,0,0,0,123.954,70.789Z" transform="translate(-82.284 -60.375)" fill="#ffcebf"/>
      <path id="Trazado_1030829" data-name="Trazado 1030829" d="M133.864,89.468c-.164.01-.329.015-.5.015h-1.335a8.079,8.079,0,0,1-8.078-8.079V70.79a2.474,2.474,0,0,1,2.473-2.473h2.325a2.474,2.474,0,0,0-2.473,2.473V81.4A8.079,8.079,0,0,0,133.864,89.468Z" transform="translate(-82.285 -60.376)" fill="#ffb09e"/>
      <path id="Trazado_1030830" data-name="Trazado 1030830" d="M274.45,108.227H276.2a2.429,2.429,0,0,1,2.429,2.429v1.82A2.429,2.429,0,0,1,276.2,114.9H274.45Z" transform="translate(-215.288 -95.648)" fill="#ffb09e"/>
      <path id="Trazado_1030831" data-name="Trazado 1030831" d="M171.75,311.317l-3.61,2.205,1.805,3.21h3.61l1.805-3.21Z" transform="translate(-121.334 -275.132)" fill="#68748f"/>
      <path id="Trazado_1030832" data-name="Trazado 1030832" d="M170.46,313.522l1.806,3.21h-2.325l-1.806-3.21,3.611-2.2,1.162.71Z" transform="translate(-121.33 -275.132)" fill="#5d6980"/>
      <path id="Trazado_1030833" data-name="Trazado 1030833" d="M169.945,357.91l-1.805,17.028h7.221l-1.805-17.028Z" transform="translate(-121.334 -316.31)" fill="#68748f"/>
      <path id="Trazado_1030834" data-name="Trazado 1030834" d="M172.266,357.906l-1.806,17.028h-2.325l1.806-17.028Z" transform="translate(-121.33 -316.306)" fill="#5d6980"/>
      <path id="Trazado_1030835" data-name="Trazado 1030835" d="M92.175,108.227H90.425A2.429,2.429,0,0,0,88,110.656v1.82a2.429,2.429,0,0,0,2.429,2.429h1.751Z" transform="translate(-50.506 -95.648)" fill="#ffb09e"/>
      <path id="Trazado_1030836" data-name="Trazado 1030836" d="M129.681,19.132h-2.334a5.811,5.811,0,0,1-5.55-4.088l-.535-1.724-1.905,3.067a5.811,5.811,0,0,1-4.936,2.745h-5.795V14.388A6.974,6.974,0,0,1,115.6,7.414h7.108a6.974,6.974,0,0,1,6.974,6.974Z" transform="translate(-68.738 -6.552)" fill="#68748f"/>
      <path id="Trazado_1030837" data-name="Trazado 1030837" d="M115.6,7.417h3.487a6.973,6.973,0,0,0-6.974,6.974v4.743h-3.487V14.391A6.973,6.973,0,0,1,115.6,7.417Z" transform="translate(-68.737 -6.555)" fill="#5d6980"/>
      <g id="Grupo_1173822" data-name="Grupo 1173822" transform="translate(30.848 0)">
        <path id="Trazado_1030838" data-name="Trazado 1030838" d="M356.792,6.341,351.377.892a2.691,2.691,0,0,0-3.811-.006L342.15,6.3a2.691,2.691,0,0,0,3.805,3.805l.836-.836V26.235a.872.872,0,0,0,.872.872h3.61a.872.872,0,0,0,.872-.872V9.3l.83.835c.018.018.037.036.057.052a2.645,2.645,0,0,0,3.747-.039,2.689,2.689,0,0,0,.013-3.807Zm-1.239,2.567c-.165.164-.6.6-1.37-.032l-2.291-2.305q-1.156-.69-1.49.615V25.363h-1.867V7.167q-.332-1.3-1.488-.616l-2.324,2.324a.947.947,0,0,1-1.34-1.34L348.8,2.119a.947.947,0,0,1,1.342,0l5.416,5.449A.946.946,0,0,1,355.553,8.908Z" transform="translate(-305.272 -0.087)"/>
        <path id="Trazado_1030842" data-name="Trazado 1030842" d="M392.546,248.562h-3.611a.872.872,0,0,0-.872.872v3.611a.872.872,0,0,0,.872.872h3.611a.872.872,0,0,0,.872-.872v-3.611A.872.872,0,0,0,392.546,248.562Zm-.872,3.611h-1.867v-1.867h1.867Z" transform="translate(-346.545 -219.671)"/>
        <path id="Trazado_1030843" data-name="Trazado 1030843" d="M66.137,35.062l-9.756-3.338V28.24a9.455,9.455,0,0,0,3.645-8.1c2,.154,4.18-1.032,4.18-3.3v-1.82a3.306,3.306,0,0,0-2.4-3.174v-4A7.874,7.874,0,0,0,54.56.023a.872.872,0,1,0-.131,1.738,6.123,6.123,0,0,1,5.635,6.084v3.872H58.6a5.539,5.539,0,0,1-5.253-5.2.809.809,0,0,0-1.573-.2c-1.293,2.4-3.008,5.4-6.1,5.4H40.753V7.846a6.109,6.109,0,0,1,6.1-6.1H50.7A.872.872,0,1,0,50.7,0h-3.84A7.854,7.854,0,0,0,39.01,7.846v4a3.306,3.306,0,0,0-2.4,3.174v1.82c0,2.234,2.169,3.472,4.18,3.3a9.335,9.335,0,0,0,3.646,8.1v3.484l-4.844,1.657a.872.872,0,0,0-.543,1.107q.441.756,1.107.543l2.159-.739v6.312a.882.882,0,0,0,1.326.744l2.839-1.735,1.226,2.18-1.69,15.936H38.645V44.5a.872.872,0,1,0-1.743,0V57.731h-4.31V40.423c0-2.234,1.953-3.724,3.97-4.162A.872.872,0,1,0,36,34.612c-2.772.673-5.149,2.76-5.149,5.811V58.6a.872.872,0,0,0,.872.872H69.1a.872.872,0,0,0,.872-.872V53.99a.872.872,0,1,0-1.743,0v3.74H63.917V44.5a.872.872,0,1,0-1.743,0V57.731H54.8l-1.69-15.936,1.226-2.18,2.839,1.735a.882.882,0,0,0,1.326-.744V34.293l7.072,2.419a3.92,3.92,0,0,1,2.653,3.71v9.769a.872.872,0,1,0,1.743,0V40.423A5.664,5.664,0,0,0,66.137,35.062ZM62.463,15.018v1.82c0,1.32-1.391,1.721-2.436,1.557V13.461C61.245,13.426,62.339,13.725,62.463,15.018ZM40.791,18.4c-1.045.164-2.436-.237-2.436-1.557v-1.82c0-1.32,1.391-1.721,2.436-1.557Zm1.743,2.641V13.461h3.142c3.058,0,5.176-2.125,6.576-4.6a6.647,6.647,0,0,0,6.031,4.6v7.584C58.283,30.616,42.535,30.6,42.535,21.037Zm12.1,8.21v2.672L50.409,35.1l-4.228-3.184V29.247a12.283,12.283,0,0,0,8.457,0ZM44.06,33.7l1.093-.371,3.707,2.792-4.8,2.933Zm7.644,7.04h-2.59l-1.143-2.033,2.438-1.489,2.438,1.489ZM47.771,57.731l1.617-15.249H51.43l1.617,15.249Zm8.987-18.679-4.8-2.933,3.707-2.792,1.093.371Z" transform="translate(-30.848 0)"/>
      </g>
    </g>
  </g>
</svg>
