<svg xmlns="http://www.w3.org/2000/svg" xmlns:xlink="http://www.w3.org/1999/xlink" width="106" height="106" viewBox="0 0 106 106">
  <defs>
    <filter id="Trazado_982547" x="0" y="0" width="106" height="106" filterUnits="userSpaceOnUse">
      <feOffset dy="3" input="SourceAlpha"/>
      <feGaussianBlur stdDeviation="3" result="blur"/>
      <feFlood flood-opacity="0.161"/>
      <feComposite operator="in" in2="blur"/>
      <feComposite in="SourceGraphic"/>
    </filter>
  </defs>
  <g id="Grupo_1173826" data-name="Grupo 1173826" transform="translate(-171 -2580)">
    <g id="Grupo_1173725" data-name="Grupo 1173725" transform="translate(0 -1664)">
      <g id="Grupo_1173435" data-name="Grupo 1173435" transform="translate(0 533)">
        <g id="Grupo_1172017" data-name="Grupo 1172017" transform="translate(0 2654)">
          <g id="Grupo_1167337" data-name="Grupo 1167337" transform="translate(180 1063)">
            <g id="Grupo_1166720" data-name="Grupo 1166720" transform="translate(0)">
              <g id="Grupo_1164305" data-name="Grupo 1164305">
                <g id="Grupo_1163948" data-name="Grupo 1163948">
                  <g id="Grupo_1158168" data-name="Grupo 1158168">
                    <g id="Grupo_1152576" data-name="Grupo 1152576">
                      <g id="Grupo_1148633" data-name="Grupo 1148633">
                        <g id="Grupo_1148525" data-name="Grupo 1148525">
                          <g transform="matrix(1, 0, 0, 1, -9, -6)" filter="url(#Trazado_982547)">
                            <g id="Trazado_982547-2" data-name="Trazado 982547" transform="translate(9 6)" fill="#e9f9fd">
                              <path d="M 44 86.5 C 38.26187515258789 86.5 32.69618606567383 85.37651062011719 27.45755004882812 83.16075897216797 C 22.3968505859375 81.020263671875 17.85157585144043 77.95565032958984 13.94796276092529 74.05204010009766 C 10.04434967041016 70.1484375 6.979737281799316 65.6031494140625 4.839250087738037 60.54246139526367 C 2.62348747253418 55.30381393432617 1.5 49.73812484741211 1.5 44 C 1.5 38.26187515258789 2.62348747253418 32.69618606567383 4.839250087738037 27.45755004882812 C 6.979737281799316 22.3968505859375 10.04434967041016 17.85157585144043 13.94796276092529 13.94796276092529 C 17.85157585144043 10.04434967041016 22.3968505859375 6.979737281799316 27.45755004882812 4.839250087738037 C 32.69618606567383 2.62348747253418 38.26187515258789 1.5 44 1.5 C 49.73812484741211 1.5 55.30381393432617 2.62348747253418 60.54246139526367 4.839250087738037 C 65.6031494140625 6.979737281799316 70.1484375 10.04434967041016 74.05204010009766 13.94796276092529 C 77.95565032958984 17.85157585144043 81.020263671875 22.3968505859375 83.16075897216797 27.45755004882812 C 85.37651062011719 32.69618606567383 86.5 38.26187515258789 86.5 44 C 86.5 49.73812484741211 85.37651062011719 55.30381393432617 83.16075897216797 60.54246139526367 C 81.020263671875 65.6031494140625 77.95565032958984 70.1484375 74.05204010009766 74.05204010009766 C 70.1484375 77.95565032958984 65.6031494140625 81.020263671875 60.54246139526367 83.16075897216797 C 55.30381393432617 85.37651062011719 49.73812484741211 86.5 44 86.5 Z" stroke="none"/>
                              <path d="M 44 3 C 38.46371459960938 3 33.09462738037109 4.083610534667969 28.0418701171875 6.220756530761719 C 23.15997314453125 8.285614013671875 18.77495574951172 11.24228668212891 15.00862884521484 15.00862884521484 C 11.24228668212891 18.77495574951172 8.285614013671875 23.15997314453125 6.220756530761719 28.0418701171875 C 4.083610534667969 33.09462738037109 3 38.46371459960938 3 44 C 3 49.53628540039062 4.083610534667969 54.9053840637207 6.220756530761719 59.9581298828125 C 8.285614013671875 64.84002685546875 11.24228668212891 69.22504425048828 15.00862884521484 72.99138641357422 C 18.77495574951172 76.75771331787109 23.15997314453125 79.71438598632812 28.0418701171875 81.77925872802734 C 33.09462738037109 83.9163818359375 38.46371459960938 85 44 85 C 49.53628540039062 85 54.9053840637207 83.9163818359375 59.95814514160156 81.77925872802734 C 64.84002685546875 79.71438598632812 69.22504425048828 76.75771331787109 72.99138641357422 72.99138641357422 C 76.75771331787109 69.22504425048828 79.71438598632812 64.84002685546875 81.77925872802734 59.95814514160156 C 83.9163818359375 54.9053840637207 85 49.53628540039062 85 44 C 85 38.46371459960938 83.9163818359375 33.09462738037109 81.77925872802734 28.0418701171875 C 79.71438598632812 23.15997314453125 76.75771331787109 18.77495574951172 72.99138641357422 15.00862884521484 C 69.22504425048828 11.24228668212891 64.84002685546875 8.285614013671875 59.9581298828125 6.220756530761719 C 54.9053840637207 4.083610534667969 49.53628540039062 3 44 3 M 44 0 C 68.30054473876953 0 88 19.69947052001953 88 44 C 88 68.30054473876953 68.30054473876953 88 44 88 C 19.69947052001953 88 0 68.30054473876953 0 44 C 0 19.69947052001953 19.69947052001953 0 44 0 Z" stroke="none" fill="#1d7083"/>
                            </g>
                          </g>
                        </g>
                      </g>
                    </g>
                  </g>
                </g>
              </g>
            </g>
          </g>
        </g>
      </g>
    </g>
    <g id="Layer_32" data-name="Layer 32" transform="translate(192 2597.902)">
      <path id="Trazado_1030850" data-name="Trazado 1030850" d="M54,29V19l-2.719-.247a19.84,19.84,0,0,0-1.934-4.68l1.745-2.094L44.021,4.908,41.927,6.653a19.84,19.84,0,0,0-4.68-1.934L37,2H27l-.247,2.719a19.84,19.84,0,0,0-4.68,1.934L19.979,4.908l-7.071,7.071,1.745,2.094a19.84,19.84,0,0,0-1.934,4.68L10,19V29l2.719.247a19.84,19.84,0,0,0,1.934,4.68l-1.745,2.094,7.071,7.071,2.094-1.745a19.84,19.84,0,0,0,4.68,1.934L27,46H37l.247-2.719a19.84,19.84,0,0,0,4.68-1.934l2.094,1.745,7.071-7.071-1.745-2.094a19.84,19.84,0,0,0,1.934-4.68Z" fill="#f79b31"/>
      <path id="Trazado_1030851" data-name="Trazado 1030851" d="M49.347,14.073l1.745-2.094L44.021,4.908,41.927,6.653a19.84,19.84,0,0,0-4.68-1.934L37,2H31.886a5.769,5.769,0,0,1-4.277,5.578,17,17,0,0,0,0,32.844A5.769,5.769,0,0,1,31.886,46H37l.247-2.719a19.84,19.84,0,0,0,4.68-1.934l2.094,1.745,7.071-7.071-1.745-2.094a19.84,19.84,0,0,0,1.934-4.68L54,29V19l-2.719-.247a19.84,19.84,0,0,0-1.934-4.68Z" fill="#fcb732"/>
      <circle id="Elipse_11867" data-name="Elipse 11867" cx="15" cy="15" r="15" transform="translate(17 9)" fill="#66c3e9"/>
      <path id="Trazado_1030852" data-name="Trazado 1030852" d="M32,9a14.911,14.911,0,0,0-8.99,3.013A14.979,14.979,0,0,0,43.988,32.988,14.979,14.979,0,0,0,32,9Z" fill="#8adef9"/>
      <path id="Trazado_1030853" data-name="Trazado 1030853" d="M25,56.58V63H15.8l.12-.62a3.945,3.945,0,0,0,.08-.77,3.891,3.891,0,0,0-1.14-2.75L8,52,4.79,45.58A16.931,16.931,0,0,1,3,38V32.18a2.183,2.183,0,0,1,4.33-.39l1.14,6.32A2.016,2.016,0,0,1,9.12,38a2.119,2.119,0,0,1,1.5.62l4.04,4.04a6.8,6.8,0,0,0,3.18,1.8,6.864,6.864,0,0,1,3.59,2.25A15.4,15.4,0,0,1,25,56.58Z" fill="#fec99c"/>
      <path id="Trazado_1030854" data-name="Trazado 1030854" d="M21.43,46.71a6.864,6.864,0,0,0-3.59-2.25,6.8,6.8,0,0,1-3.18-1.8l-4.04-4.04A2.119,2.119,0,0,0,9.12,38a2.016,2.016,0,0,0-.65.11L7.33,31.79a2.174,2.174,0,0,0-1.145-1.538A2.136,2.136,0,0,0,5,32.18V38a16.934,16.934,0,0,0,1.791,7.583L10,52l6.86,6.86A3.891,3.891,0,0,1,18,61.61a3.945,3.945,0,0,1-.08.77L17.8,63H25V56.58A15.4,15.4,0,0,0,21.43,46.71Z" fill="#fedab6"/>
      <path id="Trazado_1030855" data-name="Trazado 1030855" d="M15.029,53.241a13.84,13.84,0,0,0-3.656-6.454l-4.46-4.46A3.1,3.1,0,0,1,6,40.12a3.143,3.143,0,0,1,.913-2.207,3.046,3.046,0,0,1,1.267-.76l.58,1.914a1.042,1.042,0,0,0-.433.26A1.128,1.128,0,0,0,8,40.12a1.114,1.114,0,0,0,.327.793l4.46,4.46a15.853,15.853,0,0,1,4.184,7.386Z" fill="#fec99c"/>
      <path id="Trazado_1030856" data-name="Trazado 1030856" d="M39,56.58V63h9.2l-.12-.62a3.945,3.945,0,0,1-.08-.77,3.891,3.891,0,0,1,1.14-2.75L56,52l3.21-6.42A16.931,16.931,0,0,0,61,38V32.18a2.183,2.183,0,0,0-4.33-.39l-1.14,6.32a2.016,2.016,0,0,0-.65-.11,2.119,2.119,0,0,0-1.5.62l-4.04,4.04a6.8,6.8,0,0,1-3.18,1.8,6.864,6.864,0,0,0-3.59,2.25A15.4,15.4,0,0,0,39,56.58Z" fill="#fec99c"/>
      <path id="Trazado_1030857" data-name="Trazado 1030857" d="M42.57,46.71a6.864,6.864,0,0,1,3.59-2.25,6.8,6.8,0,0,0,3.18-1.8l4.04-4.04a2.119,2.119,0,0,1,1.5-.62,2.016,2.016,0,0,1,.65.11l1.14-6.32a2.174,2.174,0,0,1,1.145-1.538A2.136,2.136,0,0,1,59,32.18V38a16.934,16.934,0,0,1-1.791,7.583L54,52l-6.86,6.86A3.891,3.891,0,0,0,46,61.61a3.945,3.945,0,0,0,.08.77l.12.62H39V56.58a15.4,15.4,0,0,1,3.57-9.87Z" fill="#fedab6"/>
      <path id="Trazado_1030858" data-name="Trazado 1030858" d="M48.971,53.241a13.84,13.84,0,0,1,3.656-6.454l4.46-4.46A3.1,3.1,0,0,0,58,40.12a3.143,3.143,0,0,0-.913-2.207,3.046,3.046,0,0,0-1.267-.76l-.58,1.914a1.042,1.042,0,0,1,.433.26A1.128,1.128,0,0,1,56,40.12a1.114,1.114,0,0,1-.327.793l-4.46,4.46a15.853,15.853,0,0,0-4.184,7.386Z" fill="#fec99c"/>
      <path id="Trazado_1030859" data-name="Trazado 1030859" d="M29.189,17a5.287,5.287,0,0,1,5.016,3.616,3.487,3.487,0,0,0,6.8-1.1h0A2.513,2.513,0,0,1,43.513,17h1.749a14.975,14.975,0,0,0-21.917-5.238l.011.089A5.878,5.878,0,0,0,29.189,17Z" fill="#a6d305"/>
      <path id="Trazado_1030860" data-name="Trazado 1030860" d="M24.051,28.846A4.162,4.162,0,0,1,28,26a2,2,0,1,0,0-4,11.658,11.658,0,0,1-9.385-4.742A14.9,14.9,0,0,0,19.327,32h.348a4.612,4.612,0,0,0,4.376-3.154Z" fill="#8dbf00"/>
      <path id="Trazado_1030861" data-name="Trazado 1030861" d="M37.12,27a6.788,6.788,0,0,0-6.527,4.923,4.283,4.283,0,0,1-2.616,2.835l-4.4,1.651a14.986,14.986,0,0,0,21.778-5.6l-4.741-2.845A6.787,6.787,0,0,0,37.12,27Z" fill="#8dbf00"/>
      <path id="Trazado_1030862" data-name="Trazado 1030862" d="M28,26a2,2,0,0,0,0-4,11.643,11.643,0,0,1-7.843-3.057A15.155,15.155,0,0,0,20,21a14.92,14.92,0,0,0,3.241,9.3,4.555,4.555,0,0,0,.81-1.449A4.162,4.162,0,0,1,28,26Z" fill="#a6d305"/>
      <path id="Trazado_1030863" data-name="Trazado 1030863" d="M40.612,27.967a6.788,6.788,0,0,0-10.019,3.956A4.264,4.264,0,0,1,28.486,34.5,14.894,14.894,0,0,0,43.978,33a15.115,15.115,0,0,0,1.375-2.184Z" fill="#a6d305"/>
      <path id="Trazado_1030864" data-name="Trazado 1030864" d="M7.105,52.447a1.028,1.028,0,0,0,.188.26l6.858,6.858A2.877,2.877,0,0,1,15,61.614a2.917,2.917,0,0,1-.056.568l-.125.622,1.961.392.125-.621A4.924,4.924,0,0,0,17,61.614a4.862,4.862,0,0,0-1.435-3.463L8.822,51.408,5.684,45.13A16.007,16.007,0,0,1,4,38V32.18a1.181,1.181,0,0,1,2.342-.211l1.014,5.582a3.117,3.117,0,0,0-.442,4.777l4.463,4.464a13.884,13.884,0,0,1,3.653,6.451l1.94-.486a15.9,15.9,0,0,0-4.178-7.38L8.328,40.914a1.121,1.121,0,0,1,1.586-1.586l4.041,4.041a7.822,7.822,0,0,0,3.638,2.06,5.791,5.791,0,0,1,3.067,1.925A14.444,14.444,0,0,1,24,56.58V63h2V56.58a16.446,16.446,0,0,0-3.8-10.507,7.786,7.786,0,0,0-4.117-2.584,5.838,5.838,0,0,1-2.71-1.534l-4.041-4.041a3.087,3.087,0,0,0-2.036-.9l-.986-5.4A3.181,3.181,0,0,0,2,32.18V38a18.023,18.023,0,0,0,1.9,8.025Z"/>
      <path id="Trazado_1030865" data-name="Trazado 1030865" d="M55.69,31.612l-.982,5.4a3.087,3.087,0,0,0-2.036.9l-4.041,4.041a5.838,5.838,0,0,1-2.71,1.534A7.786,7.786,0,0,0,41.8,46.073,16.446,16.446,0,0,0,38,56.58V63h2V56.58a14.444,14.444,0,0,1,3.34-9.226,5.791,5.791,0,0,1,3.067-1.925,7.822,7.822,0,0,0,3.638-2.06l4.041-4.041a1.121,1.121,0,0,1,1.586,1.586l-4.464,4.463a15.9,15.9,0,0,0-4.178,7.38l1.94.486a13.884,13.884,0,0,1,3.653-6.451l4.463-4.464a3.117,3.117,0,0,0-.442-4.777l1.014-5.582A1.181,1.181,0,0,1,60,32.18V38a16.007,16.007,0,0,1-1.684,7.13l-3.138,6.278-6.743,6.743A4.862,4.862,0,0,0,47,61.614a4.924,4.924,0,0,0,.095.961l.125.621,1.961-.392-.125-.622A2.917,2.917,0,0,1,49,61.614a2.877,2.877,0,0,1,.849-2.049l6.858-6.858a1.028,1.028,0,0,0,.188-.26l3.21-6.422A18.023,18.023,0,0,0,62,38V32.18a3.181,3.181,0,0,0-6.31-.568Z"/>
      <path id="Trazado_1030866" data-name="Trazado 1030866" d="M12.2,36.728,19.272,43.8a1,1,0,0,0,1.347.061l1.57-1.308a20.846,20.846,0,0,0,3.63,1.5L26,46.09A1,1,0,0,0,27,47H37a1,1,0,0,0,1-.91l.185-2.039a20.846,20.846,0,0,0,3.63-1.5l1.57,1.308a1,1,0,0,0,1.347-.061l7.068-7.07a1,1,0,0,0,.061-1.347l-1.308-1.57a20.847,20.847,0,0,0,1.5-3.63L54.09,30A1,1,0,0,0,55,29V19a1,1,0,0,0-.91-1l-2.039-.185a20.846,20.846,0,0,0-1.5-3.63l1.308-1.57a1,1,0,0,0-.061-1.347L44.728,4.2a1,1,0,0,0-1.347-.061l-1.57,1.308a20.769,20.769,0,0,0-3.63-1.5L38,1.91A1,1,0,0,0,37,1H27a1,1,0,0,0-1,.91l-.185,2.039a20.769,20.769,0,0,0-3.63,1.5L20.619,4.14a1,1,0,0,0-1.347.061L12.2,11.272a1,1,0,0,0-.061,1.347l1.308,1.57a20.846,20.846,0,0,0-1.5,3.63L9.91,18A1,1,0,0,0,9,19V29a1,1,0,0,0,.91,1l2.039.185a20.846,20.846,0,0,0,1.5,3.63l-1.308,1.57A1,1,0,0,0,12.2,36.728Zm.609-8.477L11,28.087V19.913l1.81-.164a1,1,0,0,0,.874-.734,18.866,18.866,0,0,1,1.837-4.444,1,1,0,0,0-.1-1.138l-1.16-1.392,5.78-5.78,1.392,1.16a1,1,0,0,0,1.138.1,18.884,18.884,0,0,1,4.444-1.837,1,1,0,0,0,.734-.874L27.913,3h8.174l.164,1.81a1,1,0,0,0,.734.874,18.884,18.884,0,0,1,4.444,1.837,1,1,0,0,0,1.138-.1l1.392-1.16,5.78,5.78-1.16,1.392a1,1,0,0,0-.1,1.138,18.866,18.866,0,0,1,1.837,4.444,1,1,0,0,0,.874.734l1.81.164v8.174l-1.81.164a1,1,0,0,0-.874.734,18.866,18.866,0,0,1-1.837,4.444,1,1,0,0,0,.1,1.138l1.16,1.392-5.78,5.78-1.392-1.16a1,1,0,0,0-1.138-.1,18.866,18.866,0,0,1-4.444,1.837,1,1,0,0,0-.734.874L36.087,45H27.913l-.164-1.81a1,1,0,0,0-.734-.874,18.866,18.866,0,0,1-4.444-1.837,1,1,0,0,0-1.138.1l-1.392,1.16-5.78-5.78,1.16-1.392a1,1,0,0,0,.1-1.138,18.866,18.866,0,0,1-1.837-4.444,1,1,0,0,0-.874-.734Z"/>
      <path id="Trazado_1030867" data-name="Trazado 1030867" d="M32,40A16,16,0,1,0,16,24,16,16,0,0,0,32,40Zm0-2a13.886,13.886,0,0,1-6.072-1.4l2.4-.9a5.308,5.308,0,0,0,3.226-3.5A5.788,5.788,0,0,1,40.1,28.825L44,31.168A13.991,13.991,0,0,1,32,38ZM43.476,16A3.515,3.515,0,0,0,40,19.513a2.487,2.487,0,0,1-4.846.786A6.282,6.282,0,0,0,29.188,16a4.872,4.872,0,0,1-4.73-3.776A13.945,13.945,0,0,1,43.476,16ZM22.75,13.519A6.887,6.887,0,0,0,29.188,18a4.281,4.281,0,0,1,4.068,2.932A4.487,4.487,0,0,0,42,19.513,1.515,1.515,0,0,1,43.513,18H44.63a13.892,13.892,0,0,1,.29,11.386L41.126,27.11a7.787,7.787,0,0,0-11.494,4.538,3.3,3.3,0,0,1-2.006,2.174l-3.885,1.457A14.112,14.112,0,0,1,21.122,32.8,5.593,5.593,0,0,0,25,29.162,3.159,3.159,0,0,1,28,27a3,3,0,1,0,0-6,10.684,10.684,0,0,1-8.188-3.865,14.084,14.084,0,0,1,2.938-3.616Zm-3.85,5.6A12.707,12.707,0,0,0,28,23a1,1,0,1,1,0,2,5.153,5.153,0,0,0-4.9,3.53,3.6,3.6,0,0,1-3.219,2.453A13.83,13.83,0,0,1,18.9,19.12Z"/>
    </g>
  </g>
</svg>
