<svg xmlns="http://www.w3.org/2000/svg" width="32.238" height="32.069" viewBox="0 0 32.238 32.069">
  <g id="user_893344" transform="translate(0 -1.304)">
    <g id="Grupo_1173738" data-name="Grupo 1173738" transform="translate(22.927 3.373)">
      <g id="Grupo_1173737" data-name="Grupo 1173737">
        <path id="Trazado_1030434" data-name="Trazado 1030434" d="M356.765,33.3h-.177a1.982,1.982,0,0,0-1.98,1.981v.088h1.034v-.088a.947.947,0,0,1,.946-.946h.177a.946.946,0,0,1,.668,1.615l-1.274,1.274v1.249h1.034v-.82l.971-.971a1.98,1.98,0,0,0-1.4-3.381Z" transform="translate(-354.608 -33.304)"/>
      </g>
    </g>
    <g id="Grupo_1173740" data-name="Grupo 1173740" transform="translate(0 1.304)">
      <g id="Grupo_1173739" data-name="Grupo 1173739" transform="translate(0 0)">
        <path id="Trazado_1030435" data-name="Trazado 1030435" d="M30.686,1.3H19.307a1.554,1.554,0,0,0-1.552,1.552V6.248A8.253,8.253,0,0,0,4.307,12.683V16.3a2.071,2.071,0,0,0,2.069,2.069H6.4a6.215,6.215,0,0,0,3.708,5.172H10v.093l-4.869.974A4.637,4.637,0,0,0,1.565,27.9L0,33.373H25.164L23.6,27.9a4.638,4.638,0,0,0-3.563-3.286l-4.869-.974v-.093h-.113a6.215,6.215,0,0,0,3.708-5.172h.026A2.071,2.071,0,0,0,20.858,16.3V12.683h1.034v3.529l5.545-3.529h3.248a1.554,1.554,0,0,0,1.552-1.552V2.856A1.554,1.554,0,0,0,30.686,1.3ZM6.376,17.339a1.034,1.034,0,1,1,0-2.069Zm3.9,7.3,1.59,2.385L9.9,28.334l-.394-3.542Zm.756-.732v-.048a5.995,5.995,0,0,0,3.1,0v.048l-1.552,2.328ZM16.677,25l3.157.632a3.607,3.607,0,0,1,2.771,2.556l1.188,4.156h-3l-.454-3.177-1.024.146.432,3.031H5.42l.433-3.03L4.83,29.162l-.454,3.176h-3l1.188-4.156a3.606,3.606,0,0,1,2.771-2.556L8.488,25l.571,5.142,3.523-2.349,3.523,2.349Zm-1.017-.2-.394,3.542L13.3,27.023l1.59-2.385Zm2.1-6.936a5.172,5.172,0,1,1-10.345,0V14.221a9.4,9.4,0,0,0,5.172-1.912,9.4,9.4,0,0,0,5.172,1.912Zm1.034-.517V15.27a1.034,1.034,0,1,1,0,2.069Zm1.034-2.816a2.048,2.048,0,0,0-1.034-.288V13.2h-.517a8.36,8.36,0,0,1-5.2-1.825l-.486-.389-.486.389a8.36,8.36,0,0,1-5.2,1.825H6.376v1.034a2.048,2.048,0,0,0-1.034.288V12.683a7.249,7.249,0,0,1,7.241-7.241,7.155,7.155,0,0,1,5.172,2.2v3.494a1.554,1.554,0,0,0,1.552,1.552h.517ZM31.2,11.132a.518.518,0,0,1-.517.517H27.137l-4.209,2.678V11.649H19.307a.518.518,0,0,1-.517-.517V2.856a.518.518,0,0,1,.517-.517H30.686a.518.518,0,0,1,.517.517Z" transform="translate(0 -1.304)"/>
      </g>
    </g>
    <g id="Grupo_1173742" data-name="Grupo 1173742" transform="translate(24.175 9.499)">
      <g id="Grupo_1173741" data-name="Grupo 1173741" transform="translate(0 0)">
        <rect id="Rectángulo_414988" data-name="Rectángulo 414988" width="2" height="1" transform="translate(-0.253 0.374)"/>
      </g>
    </g>
  </g>
</svg>
