<svg xmlns="http://www.w3.org/2000/svg" width="34.456" height="30.449" viewBox="0 0 34.456 30.449">
  <g id="Layer_x0020_1" transform="translate(-4.063 -181)">
    <g id="_403634088" transform="translate(-0.128 181)">
      <g id="Grupo_1173745" data-name="Grupo 1173745" transform="translate(22.641 14.557)">
        <g id="Grupo_1173743" data-name="Grupo 1173743" transform="translate(4.573 4.482)">
          <path id="Trazado_1030436" data-name="Trazado 1030436" d="M1205.418,1028.882a3.441,3.441,0,0,1,0-6.882,3.473,3.473,0,0,1,3.464,3.441A3.43,3.43,0,0,1,1205.418,1028.882Zm0-5.75a2.343,2.343,0,0,0,0,4.686,2.343,2.343,0,1,0,0-4.686Z" transform="translate(-1202 -1022)" fill-rule="evenodd"/>
        </g>
        <g id="Grupo_1173744" data-name="Grupo 1173744">
          <path id="Trazado_1030437" data-name="Trazado 1030437" d="M1009.35,839.892h-2.694a.56.56,0,0,1-.566-.566v-1.313a11.558,11.558,0,0,1-1.064-.453l-.906.928a.59.59,0,0,1-.792,0l-1.924-1.879a.7.7,0,0,1-.159-.385.59.59,0,0,1,.159-.385l.928-.906a7.14,7.14,0,0,1-.453-1.064h-1.313a.56.56,0,0,1-.566-.566V830.61a.56.56,0,0,1,.566-.566h1.358a5.242,5.242,0,0,1,.43-1.064l-.951-.951a.583.583,0,0,1-.159-.362.591.591,0,0,1,.159-.385l1.924-1.879a.547.547,0,0,1,.792,0l.928.883a3.964,3.964,0,0,1,1.064-.453v-1.29a.556.556,0,0,1,.566-.543h2.694a.556.556,0,0,1,.566.543v1.336a7.458,7.458,0,0,1,1.064.43l.928-.906a.521.521,0,0,1,.77,0l1.879,1.879a.591.591,0,0,1,.159.385.583.583,0,0,1-.159.362l-.906.906a11.309,11.309,0,0,1,.475,1.087h1.29a.56.56,0,0,1,.566.566v2.694a.56.56,0,0,1-.566.566h-1.29c-.136.362-.294.747-.43,1.064l.906.906a.591.591,0,0,1,.158.385.583.583,0,0,1-.158.362l-1.879,1.879a.547.547,0,0,1-.792,0l-.906-.906a5.509,5.509,0,0,1-1.064.43V839.3A.674.674,0,0,1,1009.35,839.892Zm-2.128-1.087h1.585v-1.177a.513.513,0,0,1,.407-.521,5.656,5.656,0,0,0,1.585-.656.518.518,0,0,1,.679.045l.86.815,1.109-1.109-.838-.838a.518.518,0,0,1-.068-.679,4.4,4.4,0,0,0,.656-1.539.578.578,0,0,1,.543-.43h1.155v-1.607h-1.155a.578.578,0,0,1-.543-.43,4.589,4.589,0,0,0-.656-1.539.659.659,0,0,1,.068-.7l.838-.838-1.109-1.132-.86.815a.524.524,0,0,1-.656.091,6.886,6.886,0,0,0-1.562-.657.531.531,0,0,1-.407-.521v-1.177h-1.607V826.2a.531.531,0,0,1-.407.521,4.985,4.985,0,0,0-1.562.657.513.513,0,0,1-.656-.091l-.86-.838-1.132,1.109.815.838a.522.522,0,0,1,.113.657,4.733,4.733,0,0,0-.634,1.562.578.578,0,0,1-.543.43H1001.2v1.607h1.177a.578.578,0,0,1,.543.43,4.814,4.814,0,0,0,.634,1.539.517.517,0,0,1-.113.656l-.815.815,1.132,1.132.86-.838a.521.521,0,0,1,.656-.091,4.989,4.989,0,0,0,1.562.656.531.531,0,0,1,.407.521v1.336Z" transform="translate(-1000 -824)" fill-rule="evenodd"/>
        </g>
      </g>
      <g id="Grupo_1173746" data-name="Grupo 1173746" transform="translate(4.191 6.384)">
        <path id="Trazado_1030438" data-name="Trazado 1030438" d="M195.821,481.179a.575.575,0,0,1-.566-.566c0-4.233,1.041-5.614,1.947-6.837a4.882,4.882,0,0,0,1.222-3.532,6.146,6.146,0,0,0-12.293,0,4.981,4.981,0,0,0,1.222,3.532c.906,1.222,1.947,2.6,1.947,6.837a.566.566,0,1,1-1.132,0c0-3.871-.883-5.048-1.721-6.18A6.143,6.143,0,0,1,185,470.244a7.244,7.244,0,1,1,14.489,0,5.931,5.931,0,0,1-1.426,4.188c-.86,1.132-1.721,2.309-1.721,6.18A.51.51,0,0,1,195.821,481.179Z" transform="translate(-185 -463)" fill-rule="evenodd"/>
      </g>
      <g id="Grupo_1173747" data-name="Grupo 1173747" transform="translate(6.681 8.897)">
        <path id="Trazado_1030439" data-name="Trazado 1030439" d="M295.566,580.316a.56.56,0,0,1-.566-.566,5.739,5.739,0,0,1,5.728-5.75.566.566,0,0,1,0,1.132,4.633,4.633,0,0,0-4.641,4.641A.547.547,0,0,1,295.566,580.316Z" transform="translate(-295 -574)" fill-rule="evenodd"/>
      </g>
      <g id="Grupo_1173752" data-name="Grupo 1173752" transform="translate(5.323 23.476)">
        <path id="Trazado_1030444" data-name="Trazado 1030444" d="M245.8,1221.056a.566.566,0,0,1,0-1.132.411.411,0,0,0,.408-.43.38.38,0,0,0-.408-.407h-9.282a.392.392,0,0,0-.408.407.411.411,0,0,0,.408.43.566.566,0,0,1,0,1.132,1.528,1.528,0,0,1,0-3.056H245.8a1.512,1.512,0,0,1,1.494,1.517A1.489,1.489,0,0,1,245.8,1221.056Z" transform="translate(-235 -1218)" fill-rule="evenodd"/>
      </g>
      <g id="Grupo_1173753" data-name="Grupo 1173753" transform="translate(5.323 25.468)">
        <path id="Trazado_1030445" data-name="Trazado 1030445" d="M245.8,1309.034h-9.282a1.517,1.517,0,1,1,0-3.034H245.8a1.517,1.517,0,0,1,0,3.034Zm-9.282-1.97a.392.392,0,0,0-.408.408.411.411,0,0,0,.408.43H245.8a.411.411,0,0,0,.408-.43.392.392,0,0,0-.408-.408Z" transform="translate(-235 -1306)" fill-rule="evenodd"/>
      </g>
      <g id="Grupo_1173754" data-name="Grupo 1173754" transform="translate(8.266 27.37)">
        <path id="Trazado_1030446" data-name="Trazado 1030446" d="M368.939,1393.079h-1.426a2.522,2.522,0,0,1-2.513-2.513.575.575,0,0,1,.566-.566.56.56,0,0,1,.566.566,1.42,1.42,0,0,0,1.426,1.426h1.4a1.4,1.4,0,0,0,1.4-1.426.566.566,0,0,1,1.132,0A2.607,2.607,0,0,1,368.939,1393.079Z" transform="translate(-365 -1390)" fill-rule="evenodd"/>
      </g>
      <g id="Grupo_1173755" data-name="Grupo 1173755" transform="translate(10.915 16.606)">
        <path id="Trazado_1030447" data-name="Trazado 1030447" d="M482.566,922.475a.575.575,0,0,1-.566-.566v-5.592a.532.532,0,0,1,.272-.475l2.2-1.245a.544.544,0,1,1,.566.928l-1.9,1.109v5.3A.571.571,0,0,1,482.566,922.475Z" transform="translate(-482 -914.518)" fill-rule="evenodd"/>
      </g>
      <g id="Grupo_1173756" data-name="Grupo 1173756" transform="translate(8.759 16.606)">
        <path id="Trazado_1030448" data-name="Trazado 1030448" d="M389.491,916.86a1.378,1.378,0,0,1-.294-.068l-2.151-1.268a.557.557,0,0,1-.2-.747.578.578,0,0,1,.77-.181l2.151,1.245a.58.58,0,0,1,.2.747A.615.615,0,0,1,389.491,916.86Z" transform="translate(-386.769 -914.518)" fill-rule="evenodd"/>
      </g>
      <g id="Grupo_1173757" data-name="Grupo 1173757" transform="translate(10.869 0)">
        <path id="Trazado_1030449" data-name="Trazado 1030449" d="M499.763,192.681a.556.556,0,0,1-.566-.543v-8.376a1.667,1.667,0,0,0-1.653-1.675H482.83a1.691,1.691,0,0,0-1.7,1.675V188a.575.575,0,0,1-.566.566A.591.591,0,0,1,480,188v-4.233A2.783,2.783,0,0,1,482.807,181h14.715a2.758,2.758,0,0,1,2.762,2.762v8.4A.486.486,0,0,1,499.763,192.681Z" transform="translate(-480 -181)" fill-rule="evenodd"/>
      </g>
      <g id="Grupo_1173758" data-name="Grupo 1173758" transform="translate(27.407 7.89)">
        <path id="Trazado_1030450" data-name="Trazado 1030450" d="M1213.726,533.292a.555.555,0,0,1-.362-.136l-2.694-2.717a.544.544,0,0,1,.77-.77l2.287,2.286,2.286-2.286a.547.547,0,0,1,.792,0,.521.521,0,0,1,0,.77l-2.694,2.717A.532.532,0,0,1,1213.726,533.292Z" transform="translate(-1210.5 -529.5)" fill-rule="evenodd"/>
      </g>
    </g>
  </g>
</svg>
