<svg xmlns="http://www.w3.org/2000/svg" width="29.788" height="28.645" viewBox="0 0 29.788 28.645">
  <path id="validate_12599737" d="M57.6,80.589a.434.434,0,0,1,0-.868h3.139a.434.434,0,0,1,0,.868Zm0,1.693a.434.434,0,1,1,0-.868h3.139a.434.434,0,1,1,0,.868Zm0-8.753a.434.434,0,1,1,0-.868h2.387a.434.434,0,1,1,0,.868Zm0,1.693a.434.434,0,0,1,0-.868h3.139a.434.434,0,0,1,0,.868Zm0-8.753a.434.434,0,1,1,0-.868h3.139a.434.434,0,1,1,0,.868Zm0,1.693a.434.434,0,0,1,0-.868h3.139a.434.434,0,0,1,0,.868ZM53.5,78.318l.709,1.432,1.584.231a.431.431,0,0,1,.224.752L54.893,81.84l.268,1.584a.433.433,0,0,1-.651.441l-1.4-.731L51.7,83.88a.435.435,0,0,1-.629-.456l.268-1.584-1.143-1.121a.435.435,0,0,1,.239-.738l1.584-.231.716-1.432A.431.431,0,0,1,53.5,78.318Zm.043,2.018-.427-.854-.42.839a.433.433,0,0,1-.333.253l-.948.137.665.658a.412.412,0,0,1,.137.391l-.159.948.846-.441a.444.444,0,0,1,.405,0l.846.441L54,81.761a.438.438,0,0,1,.123-.376l.68-.673-.948-.137A.41.41,0,0,1,53.547,80.336ZM53.5,71.258l.709,1.432,1.584.239a.431.431,0,0,1,.224.752l-1.128,1.107.268,1.584a.433.433,0,0,1-.651.441l-1.4-.731-1.418.745a.435.435,0,0,1-.629-.456l.268-1.584-1.143-1.121a.435.435,0,0,1,.239-.738l1.584-.239.716-1.432A.431.431,0,0,1,53.5,71.258Zm.043,2.018-.427-.854-.42.839a.433.433,0,0,1-.333.253l-.948.137.665.658a.412.412,0,0,1,.137.391l-.159.948.846-.448a.444.444,0,0,1,.405,0l.846.448L54,74.7a.453.453,0,0,1,.123-.383l.68-.665-.948-.137a.426.426,0,0,1-.311-.239ZM71.19,69.608a.428.428,0,0,1,.615,0,.441.441,0,0,1,0,.615l-2.792,2.792a.428.428,0,0,1-.615,0l-1.063-1.063a.428.428,0,0,1,0-.615.441.441,0,0,1,.615,0l.76.76ZM53.5,64.191l.709,1.432,1.584.231a.431.431,0,0,1,.224.752l-1.128,1.107L55.16,69.3a.433.433,0,0,1-.651.441l-1.389-.723L51.7,69.76a.435.435,0,0,1-.629-.456l.268-1.584L50.2,66.6a.435.435,0,0,1,.239-.738l1.584-.231.716-1.432A.423.423,0,0,1,53.5,64.191Zm.043,2.025-.427-.854-.42.839a.433.433,0,0,1-.333.253l-.948.137.665.658a.412.412,0,0,1,.137.391l-.159.948.846-.441a.444.444,0,0,1,.405,0l.846.441L54,67.641a.438.438,0,0,1,.123-.376l.68-.673-.948-.137A.445.445,0,0,1,53.547,66.216Zm16.022-.463A5.559,5.559,0,0,1,73.107,75.6v1.591a6.858,6.858,0,1,0-7.067,0V75.6a5.559,5.559,0,0,1,3.53-9.845Zm2.669,10.431a5.553,5.553,0,0,1-5.338,0v4.962l2.43-1.295a.427.427,0,0,1,.47,0l2.43,1.295V76.184ZM72.882,68a4.69,4.69,0,1,0,0,6.633,4.693,4.693,0,0,0,0-6.633Zm.224,10.185v3.689a.433.433,0,0,1-.673.362L70,80.936v3.9a1.917,1.917,0,0,1-1.91,1.91H49.41a1.917,1.917,0,0,1-1.91-1.91V62.086a1.917,1.917,0,0,1,1.91-1.91h5.346V60.01a1.917,1.917,0,0,1,1.91-1.91h4.159a1.919,1.919,0,0,1,1.917,1.91v.166h5.346A1.912,1.912,0,0,1,70,62.086V63.6a7.729,7.729,0,0,1,3.11,14.583Zm-3.971,2.756-2.467,1.316a.432.432,0,0,1-.637-.383V78.18a7.726,7.726,0,0,1,3.1-14.583V62.086a1.054,1.054,0,0,0-1.049-1.049H62.741v.3a1.92,1.92,0,0,1-1.917,1.917H56.665a1.914,1.914,0,0,1-1.91-1.917v-.3H49.41a1.054,1.054,0,0,0-1.049,1.049V84.835a1.054,1.054,0,0,0,1.049,1.049H68.094a1.054,1.054,0,0,0,1.049-1.049v-3.9Zm-8.3-21.975H56.672A1.053,1.053,0,0,0,55.623,60v1.338a1.05,1.05,0,0,0,1.049,1.049h4.159a1.05,1.05,0,0,0,1.049-1.049V60A1.058,1.058,0,0,0,60.831,58.961Z" transform="translate(-47.5 -58.1)"/>
</svg>
