<svg xmlns="http://www.w3.org/2000/svg" xmlns:xlink="http://www.w3.org/1999/xlink" width="978.661" height="435.655" viewBox="0 0 978.661 435.655">
  <defs>
    <clipPath id="clip-path">
      <rect id="Rectángulo_414872" data-name="Rectángulo 414872" width="926.145" height="435.655" fill="none"/>
    </clipPath>
    <filter id="Trazado_1028299" x="667.884" y="13.655" width="290.117" height="290.116" filterUnits="userSpaceOnUse">
      <feOffset dy="3" input="SourceAlpha"/>
      <feGaussianBlur stdDeviation="3" result="blur"/>
      <feFlood flood-opacity="0.161"/>
      <feComposite operator="in" in2="blur"/>
      <feComposite in="SourceGraphic"/>
    </filter>
    <filter id="Trazado_1028375" x="13.856" y="16.625" width="292.673" height="292.673" filterUnits="userSpaceOnUse">
      <feOffset dy="3" input="SourceAlpha"/>
      <feGaussianBlur stdDeviation="3" result="blur-2"/>
      <feFlood flood-opacity="0.161"/>
      <feComposite operator="in" in2="blur-2"/>
      <feComposite in="SourceGraphic"/>
    </filter>
    <clipPath id="clip-path-3">
      <rect id="Rectángulo_414866" data-name="Rectángulo 414866" width="23.327" height="16.005" transform="translate(109.357 46.062)" fill="none"/>
    </clipPath>
    <clipPath id="clip-path-4">
      <rect id="Rectángulo_414868" data-name="Rectángulo 414868" width="23.327" height="16.005" transform="translate(140.686 46.062)" fill="none"/>
    </clipPath>
    <filter id="Trazado_1028417" x="300.587" y="209.577" width="124.489" height="124.49" filterUnits="userSpaceOnUse">
      <feOffset dy="3" input="SourceAlpha"/>
      <feGaussianBlur stdDeviation="3" result="blur-3"/>
      <feFlood flood-opacity="0.161"/>
      <feComposite operator="in" in2="blur-3"/>
      <feComposite in="SourceGraphic"/>
    </filter>
    <filter id="Trazado_1028418" x="566.811" y="209.577" width="124.488" height="124.49" filterUnits="userSpaceOnUse">
      <feOffset dy="3" input="SourceAlpha"/>
      <feGaussianBlur stdDeviation="3" result="blur-4"/>
      <feFlood flood-opacity="0.161"/>
      <feComposite operator="in" in2="blur-4"/>
      <feComposite in="SourceGraphic"/>
    </filter>
    <filter id="Trazado_1028419" x="459.995" y="313.294" width="202.24" height="134.361" filterUnits="userSpaceOnUse">
      <feOffset dy="3" input="SourceAlpha"/>
      <feGaussianBlur stdDeviation="3" result="blur-5"/>
      <feFlood flood-opacity="0.161"/>
      <feComposite operator="in" in2="blur-5"/>
      <feComposite in="SourceGraphic"/>
    </filter>
    <filter id="Trazado_1028420" x="328.813" y="313.635" width="165.039" height="133.604" filterUnits="userSpaceOnUse">
      <feOffset dy="3" input="SourceAlpha"/>
      <feGaussianBlur stdDeviation="3" result="blur-6"/>
      <feFlood flood-opacity="0.161"/>
      <feComposite operator="in" in2="blur-6"/>
      <feComposite in="SourceGraphic"/>
    </filter>
    <filter id="Trazado_1028421" x="328.814" y="95.989" width="202.369" height="134.02" filterUnits="userSpaceOnUse">
      <feOffset dy="3" input="SourceAlpha"/>
      <feGaussianBlur stdDeviation="3" result="blur-7"/>
      <feFlood flood-opacity="0.161"/>
      <feComposite operator="in" in2="blur-7"/>
      <feComposite in="SourceGraphic"/>
    </filter>
    <filter id="Trazado_1028423" x="496.027" y="96.298" width="166.207" height="134.054" filterUnits="userSpaceOnUse">
      <feOffset dy="3" input="SourceAlpha"/>
      <feGaussianBlur stdDeviation="3" result="blur-8"/>
      <feFlood flood-opacity="0.161"/>
      <feComposite operator="in" in2="blur-8"/>
      <feComposite in="SourceGraphic"/>
    </filter>
    <filter id="team-process-creation" x="384.271" y="157.267" width="226.45" height="226.45" filterUnits="userSpaceOnUse">
      <feOffset dy="3" input="SourceAlpha"/>
      <feGaussianBlur stdDeviation="3" result="blur-9"/>
      <feFlood flood-opacity="0.161"/>
      <feComposite operator="in" in2="blur-9"/>
      <feComposite in="SourceGraphic"/>
    </filter>
    <filter id="Trazado_1028427" x="577.213" y="219.001" width="104.981" height="104.981" filterUnits="userSpaceOnUse">
      <feOffset dy="3" input="SourceAlpha"/>
      <feGaussianBlur stdDeviation="3" result="blur-10"/>
      <feFlood flood-opacity="0.161"/>
      <feComposite operator="in" in2="blur-10"/>
      <feComposite in="SourceGraphic"/>
    </filter>
    <filter id="Trazado_1028426" x="309.213" y="219.001" width="104.981" height="104.981" filterUnits="userSpaceOnUse">
      <feOffset dy="3" input="SourceAlpha"/>
      <feGaussianBlur stdDeviation="3" result="blur-11"/>
      <feFlood flood-opacity="0.161"/>
      <feComposite operator="in" in2="blur-11"/>
      <feComposite in="SourceGraphic"/>
    </filter>
  </defs>
  <g id="Grupo_1173872" data-name="Grupo 1173872" transform="translate(-340 -3815.172)">
    <g id="Grupo_1173837" data-name="Grupo 1173837">
      <path id="Trazado_1028448" data-name="Trazado 1028448" d="M9635.213,1227.861l-47.979,76.228H9352.621" transform="translate(-8977 2874.172)" fill="none" stroke="#103d47" stroke-width="3"/>
      <path id="Trazado_1030868" data-name="Trazado 1030868" d="M9352.621,1227.861l47.979,76.228h234.612" transform="translate(-8352.174 2874.172)" fill="none" stroke="#103d47" stroke-width="3"/>
      <g id="Rectángulo_414873" data-name="Rectángulo 414873" transform="translate(340 4149)" fill="#fff" stroke="#103d47" stroke-width="2">
        <rect width="264" height="56" rx="28" stroke="none"/>
        <rect x="1" y="1" width="262" height="54" rx="27" fill="none"/>
      </g>
      <g id="Rectángulo_414998" data-name="Rectángulo 414998" transform="translate(1054.661 4149)" fill="#fff" stroke="#103d47" stroke-width="2">
        <rect width="264" height="56" rx="28" stroke="none"/>
        <rect x="1" y="1" width="262" height="54" rx="27" fill="none"/>
      </g>
      <path id="Trazado_1030989" data-name="Trazado 1030989" d="M-93.4-.43v-2.5a4.8,4.8,0,0,0,1.477.855,4.746,4.746,0,0,0,1.609.285,3.569,3.569,0,0,0,.832-.086,1.949,1.949,0,0,0,.594-.238,1.039,1.039,0,0,0,.355-.359.9.9,0,0,0,.117-.449.971.971,0,0,0-.187-.586,2.018,2.018,0,0,0-.512-.477,5.347,5.347,0,0,0-.77-.422q-.445-.2-.961-.414A4.9,4.9,0,0,1-92.8-6.156a2.917,2.917,0,0,1-.645-1.906,3.036,3.036,0,0,1,.352-1.5,2.986,2.986,0,0,1,.957-1.035,4.291,4.291,0,0,1,1.4-.6,7.206,7.206,0,0,1,1.688-.191,10.15,10.15,0,0,1,1.551.105,6.1,6.1,0,0,1,1.246.324v2.336a3.768,3.768,0,0,0-.613-.344,4.859,4.859,0,0,0-.684-.246,5.214,5.214,0,0,0-.7-.145,4.949,4.949,0,0,0-.66-.047,3.443,3.443,0,0,0-.781.082,2,2,0,0,0-.594.23,1.147,1.147,0,0,0-.375.355.843.843,0,0,0-.133.465.888.888,0,0,0,.148.5,1.7,1.7,0,0,0,.422.422,4.477,4.477,0,0,0,.664.391q.391.191.883.395a9.838,9.838,0,0,1,1.207.6,4.291,4.291,0,0,1,.918.715,2.785,2.785,0,0,1,.586.91,3.216,3.216,0,0,1,.2,1.191,3.191,3.191,0,0,1-.355,1.574,2.886,2.886,0,0,1-.965,1.031A4.184,4.184,0,0,1-88.5.023,8.2,8.2,0,0,1-90.2.2,9.492,9.492,0,0,1-91.957.039,5.3,5.3,0,0,1-93.4-.43ZM-82.9-9.266a1.442,1.442,0,0,1-1.023-.371,1.2,1.2,0,0,1-.4-.91,1.153,1.153,0,0,1,.4-.906A1.49,1.49,0,0,1-82.9-11.8a1.486,1.486,0,0,1,1.027.352,1.158,1.158,0,0,1,.395.906,1.191,1.191,0,0,1-.395.922A1.466,1.466,0,0,1-82.9-9.266ZM-81.686,0h-2.469V-8h2.469Zm1.556-.211v-2a5.256,5.256,0,0,0,1.215.547,4.028,4.028,0,0,0,1.145.18,2.455,2.455,0,0,0,1.035-.18.581.581,0,0,0,.379-.547.506.506,0,0,0-.172-.391,1.6,1.6,0,0,0-.441-.273,5.009,5.009,0,0,0-.59-.211q-.32-.094-.617-.211a5.913,5.913,0,0,1-.84-.387,2.427,2.427,0,0,1-.609-.48A1.889,1.889,0,0,1-80-4.8a2.525,2.525,0,0,1-.129-.852A2.192,2.192,0,0,1-79.836-6.8a2.393,2.393,0,0,1,.781-.793,3.57,3.57,0,0,1,1.117-.453A5.825,5.825,0,0,1-76.629-8.2a7.261,7.261,0,0,1,1.078.082,8.047,8.047,0,0,1,1.078.238v1.906a3.9,3.9,0,0,0-1-.41,4.235,4.235,0,0,0-1.051-.137,2.328,2.328,0,0,0-.457.043,1.505,1.505,0,0,0-.379.125.7.7,0,0,0-.258.211.486.486,0,0,0-.094.293.541.541,0,0,0,.141.375,1.221,1.221,0,0,0,.367.27,3.625,3.625,0,0,0,.5.2q.277.09.551.184a7.161,7.161,0,0,1,.891.375,2.848,2.848,0,0,1,.684.477,1.872,1.872,0,0,1,.438.641,2.277,2.277,0,0,1,.152.875A2.282,2.282,0,0,1-74.3-1.23a2.471,2.471,0,0,1-.82.82A3.72,3.72,0,0,1-76.3.051,6.54,6.54,0,0,1-77.684.2,7.149,7.149,0,0,1-80.129-.211Zm12.4.117A3.649,3.649,0,0,1-69.378.2q-2.609,0-2.609-2.711V-6.18h-1.3V-8h1.3V-9.727l2.461-.7V-8h1.8v1.82h-1.8v3.234q0,1.25.992,1.25a1.673,1.673,0,0,0,.8-.227Zm8.517-3.2h-5.219q.125,1.742,2.2,1.742a4.286,4.286,0,0,0,2.32-.625V-.4A6.1,6.1,0,0,1-62.8.2,4.058,4.058,0,0,1-65.806-.879a4.058,4.058,0,0,1-1.07-3A4.281,4.281,0,0,1-65.72-7.031,3.852,3.852,0,0,1-62.876-8.2a3.5,3.5,0,0,1,2.707,1.039,4,4,0,0,1,.957,2.82ZM-61.5-4.812q0-1.719-1.391-1.719a1.328,1.328,0,0,0-1.027.492,2.234,2.234,0,0,0-.527,1.227ZM-45.039,0H-47.5V-4.562q0-1.742-1.281-1.742a1.177,1.177,0,0,0-.992.523,2.151,2.151,0,0,0-.383,1.3V0h-2.469V-4.609q0-1.7-1.258-1.7a1.206,1.206,0,0,0-1.012.5,2.2,2.2,0,0,0-.379,1.359V0h-2.469V-8h2.469v1.25h.031a2.952,2.952,0,0,1,1.074-1.043,2.952,2.952,0,0,1,1.512-.4A2.3,2.3,0,0,1-50.335-6.7,2.959,2.959,0,0,1-47.648-8.2q2.609,0,2.609,3.219Zm8.611,0h-2.336V-1.148h-.031A2.607,2.607,0,0,1-41.178.2a2.492,2.492,0,0,1-1.832-.66,2.366,2.366,0,0,1-.668-1.762q0-2.328,2.758-2.687l2.172-.289q0-1.312-1.422-1.312a4.853,4.853,0,0,0-2.719.852V-7.523a6.116,6.116,0,0,1,1.41-.469,7.413,7.413,0,0,1,1.629-.2q3.422,0,3.422,3.414Zm-2.32-3.25v-.539L-40.2-3.6q-1.2.156-1.2,1.086a.9.9,0,0,0,.293.691,1.126,1.126,0,0,0,.793.27,1.462,1.462,0,0,0,1.133-.48A1.735,1.735,0,0,0-38.748-3.25ZM-22.229,0H-24.7V-1.1h-.031A2.768,2.768,0,0,1-27.206.2,3.033,3.033,0,0,1-29.62-.863a4.382,4.382,0,0,1-.914-2.957A4.77,4.77,0,0,1-29.526-7a3.287,3.287,0,0,1,2.641-1.2,2.246,2.246,0,0,1,2.156,1.109h.031v-4.758h2.469Zm-2.422-3.891v-.6a1.893,1.893,0,0,0-.453-1.3,1.5,1.5,0,0,0-1.18-.516,1.487,1.487,0,0,0-1.281.645,2.993,2.993,0,0,0-.461,1.77,2.59,2.59,0,0,0,.445,1.625,1.479,1.479,0,0,0,1.234.57,1.485,1.485,0,0,0,1.223-.6A2.507,2.507,0,0,0-24.651-3.891Zm11.689.594h-5.219q.125,1.742,2.2,1.742a4.286,4.286,0,0,0,2.32-.625V-.4A6.1,6.1,0,0,1-16.548.2,4.058,4.058,0,0,1-19.556-.879a4.058,4.058,0,0,1-1.07-3A4.281,4.281,0,0,1-19.47-7.031,3.852,3.852,0,0,1-16.626-8.2a3.5,3.5,0,0,1,2.707,1.039,4,4,0,0,1,.957,2.82Zm-2.289-1.516q0-1.719-1.391-1.719a1.328,1.328,0,0,0-1.027.492A2.234,2.234,0,0,0-18.2-4.812ZM2.362-.75A8.063,8.063,0,0,1-1.716.2,5.9,5.9,0,0,1-5.978-1.3,5.443,5.443,0,0,1-7.537-5.422a5.753,5.753,0,0,1,1.7-4.3A6.205,6.205,0,0,1-1.3-11.391a9.2,9.2,0,0,1,3.141.492v2.367a6.242,6.242,0,0,0-3.172-.75,3.405,3.405,0,0,0-2.559,1.02,3.745,3.745,0,0,0-.988,2.723,3.756,3.756,0,0,0,.887,2.672A3.125,3.125,0,0,0-1.6-1.922,3.333,3.333,0,0,0-.162-2.18V-4.367H-2.4V-6.383H2.362ZM11.488-3.3H6.27q.125,1.742,2.2,1.742a4.286,4.286,0,0,0,2.32-.625V-.4A6.1,6.1,0,0,1,7.9.2,4.058,4.058,0,0,1,4.895-.879a4.058,4.058,0,0,1-1.07-3A4.281,4.281,0,0,1,4.98-7.031,3.852,3.852,0,0,1,7.824-8.2a3.5,3.5,0,0,1,2.707,1.039,4,4,0,0,1,.957,2.82ZM9.2-4.812q0-1.719-1.391-1.719a1.328,1.328,0,0,0-1.027.492,2.234,2.234,0,0,0-.527,1.227Zm3.236,4.6v-2a5.256,5.256,0,0,0,1.215.547,4.028,4.028,0,0,0,1.145.18,2.455,2.455,0,0,0,1.035-.18.581.581,0,0,0,.379-.547.506.506,0,0,0-.172-.391,1.6,1.6,0,0,0-.441-.273,5.009,5.009,0,0,0-.59-.211q-.32-.094-.617-.211a5.913,5.913,0,0,1-.84-.387,2.427,2.427,0,0,1-.609-.48,1.889,1.889,0,0,1-.375-.633,2.525,2.525,0,0,1-.129-.852A2.192,2.192,0,0,1,12.728-6.8a2.393,2.393,0,0,1,.781-.793,3.57,3.57,0,0,1,1.117-.453A5.825,5.825,0,0,1,15.935-8.2a7.261,7.261,0,0,1,1.078.082,8.047,8.047,0,0,1,1.078.238v1.906a3.9,3.9,0,0,0-1-.41,4.235,4.235,0,0,0-1.051-.137,2.328,2.328,0,0,0-.457.043,1.505,1.505,0,0,0-.379.125.7.7,0,0,0-.258.211.486.486,0,0,0-.094.293.541.541,0,0,0,.141.375,1.221,1.221,0,0,0,.367.27,3.625,3.625,0,0,0,.5.2q.277.09.551.184a7.161,7.161,0,0,1,.891.375,2.848,2.848,0,0,1,.684.477,1.871,1.871,0,0,1,.438.641,2.277,2.277,0,0,1,.152.875,2.282,2.282,0,0,1-.309,1.215,2.471,2.471,0,0,1-.82.82,3.72,3.72,0,0,1-1.18.461A6.54,6.54,0,0,1,14.881.2,7.149,7.149,0,0,1,12.435-.211Zm12.4.117A3.649,3.649,0,0,1,23.187.2q-2.609,0-2.609-2.711V-6.18h-1.3V-8h1.3V-9.727l2.461-.7V-8h1.8v1.82h-1.8v3.234q0,1.25.992,1.25a1.673,1.673,0,0,0,.8-.227Zm2.642-9.172a1.442,1.442,0,0,1-1.023-.371,1.2,1.2,0,0,1-.4-.91,1.153,1.153,0,0,1,.4-.906,1.49,1.49,0,0,1,1.023-.352,1.486,1.486,0,0,1,1.027.352,1.158,1.158,0,0,1,.395.906,1.191,1.191,0,0,1-.395.922A1.466,1.466,0,0,1,27.477-9.266ZM28.7,0H26.227V-8H28.7Zm5.892.2A4.3,4.3,0,0,1,31.444-.926,4.064,4.064,0,0,1,30.3-3.969a4.065,4.065,0,0,1,1.188-3.105A4.487,4.487,0,0,1,34.7-8.2a4.249,4.249,0,0,1,3.125,1.121,3.985,3.985,0,0,1,1.133,2.965A4.23,4.23,0,0,1,37.788-.961,4.348,4.348,0,0,1,34.588.2Zm.063-6.5a1.647,1.647,0,0,0-1.359.6A2.653,2.653,0,0,0,32.807-4q0,2.3,1.859,2.3,1.773,0,1.773-2.367Q36.44-6.3,34.651-6.3ZM37.3-11.789,34.854-9.266H33.073L35.1-11.789ZM48.278,0H45.817V-4.445q0-1.859-1.328-1.859a1.318,1.318,0,0,0-1.055.492,1.875,1.875,0,0,0-.414,1.25V0H40.551V-8H43.02v1.266h.031A2.829,2.829,0,0,1,45.621-8.2q2.656,0,2.656,3.3Zm14.2,0H60.007V-1.1h-.031A2.768,2.768,0,0,1,57.5.2,3.033,3.033,0,0,1,55.085-.863a4.382,4.382,0,0,1-.914-2.957A4.77,4.77,0,0,1,55.179-7,3.287,3.287,0,0,1,57.82-8.2a2.246,2.246,0,0,1,2.156,1.109h.031v-4.758h2.469ZM60.054-3.891v-.6a1.893,1.893,0,0,0-.453-1.3,1.5,1.5,0,0,0-1.18-.516,1.487,1.487,0,0,0-1.281.645,2.993,2.993,0,0,0-.461,1.77,2.59,2.59,0,0,0,.445,1.625,1.479,1.479,0,0,0,1.234.57,1.485,1.485,0,0,0,1.223-.6A2.507,2.507,0,0,0,60.054-3.891ZM71.743-3.3H66.525q.125,1.742,2.2,1.742a4.286,4.286,0,0,0,2.32-.625V-.4A6.1,6.1,0,0,1,68.157.2,4.058,4.058,0,0,1,65.15-.879a4.058,4.058,0,0,1-1.07-3,4.281,4.281,0,0,1,1.156-3.156A3.852,3.852,0,0,1,68.079-8.2a3.5,3.5,0,0,1,2.707,1.039,4,4,0,0,1,.957,2.82ZM69.454-4.812q0-1.719-1.391-1.719a1.328,1.328,0,0,0-1.027.492,2.234,2.234,0,0,0-.527,1.227ZM80.1,0H77.629V-11.844H80.1Zm8.736,0H86.5V-1.148h-.031A2.607,2.607,0,0,1,84.084.2a2.492,2.492,0,0,1-1.832-.66,2.366,2.366,0,0,1-.668-1.762q0-2.328,2.758-2.687L86.514-5.2q0-1.312-1.422-1.312a4.853,4.853,0,0,0-2.719.852V-7.523a6.116,6.116,0,0,1,1.41-.469,7.413,7.413,0,0,1,1.629-.2q3.422,0,3.422,3.414Zm-2.32-3.25v-.539L85.061-3.6q-1.2.156-1.2,1.086a.9.9,0,0,0,.293.691,1.126,1.126,0,0,0,.793.27,1.462,1.462,0,0,0,1.133-.48A1.735,1.735,0,0,0,86.514-3.25ZM-106.052,19.57v-2.5a4.8,4.8,0,0,0,1.477.855,4.746,4.746,0,0,0,1.609.285,3.569,3.569,0,0,0,.832-.086,1.949,1.949,0,0,0,.594-.238,1.039,1.039,0,0,0,.355-.359.9.9,0,0,0,.117-.449.971.971,0,0,0-.187-.586,2.018,2.018,0,0,0-.512-.477,5.347,5.347,0,0,0-.77-.422q-.445-.2-.961-.414a4.9,4.9,0,0,1-1.957-1.336,2.917,2.917,0,0,1-.645-1.906,3.036,3.036,0,0,1,.352-1.5A2.986,2.986,0,0,1-104.79,9.4a4.291,4.291,0,0,1,1.4-.6,7.206,7.206,0,0,1,1.688-.191,10.15,10.15,0,0,1,1.551.105,6.1,6.1,0,0,1,1.246.324v2.336a3.768,3.768,0,0,0-.613-.344,4.859,4.859,0,0,0-.684-.246,5.214,5.214,0,0,0-.7-.145,4.949,4.949,0,0,0-.66-.047,3.443,3.443,0,0,0-.781.082,2,2,0,0,0-.594.23,1.147,1.147,0,0,0-.375.355.843.843,0,0,0-.133.465.888.888,0,0,0,.148.5,1.7,1.7,0,0,0,.422.422,4.477,4.477,0,0,0,.664.391q.391.191.883.395a9.838,9.838,0,0,1,1.207.6,4.291,4.291,0,0,1,.918.715,2.785,2.785,0,0,1,.586.91,3.216,3.216,0,0,1,.2,1.191,3.191,3.191,0,0,1-.355,1.574,2.886,2.886,0,0,1-.965,1.031,4.184,4.184,0,0,1-1.418.566,8.2,8.2,0,0,1-1.707.172,9.492,9.492,0,0,1-1.754-.156A5.3,5.3,0,0,1-106.052,19.57ZM-89.621,16.7H-94.84q.125,1.742,2.2,1.742a4.286,4.286,0,0,0,2.32-.625V19.6a6.1,6.1,0,0,1-2.883.594,4.058,4.058,0,0,1-3.008-1.074,4.058,4.058,0,0,1-1.07-3,4.281,4.281,0,0,1,1.156-3.156A3.852,3.852,0,0,1-93.285,11.8a3.5,3.5,0,0,1,2.707,1.039,4,4,0,0,1,.957,2.82Zm-2.289-1.516q0-1.719-1.391-1.719a1.328,1.328,0,0,0-1.027.492,2.234,2.234,0,0,0-.527,1.227Zm11.6,3.9A4.526,4.526,0,0,1-81.6,22.535a5.224,5.224,0,0,1-3.734,1.223,5.919,5.919,0,0,1-2.562-.461V21.219a4.907,4.907,0,0,0,2.492.719,2.684,2.684,0,0,0,1.938-.66,2.369,2.369,0,0,0,.688-1.793v-.633h-.031A2.757,2.757,0,0,1-85.3,20.2a3,3,0,0,1-2.43-1.078,4.372,4.372,0,0,1-.9-2.891,4.87,4.87,0,0,1,1-3.227,3.265,3.265,0,0,1,2.633-1.2,2.429,2.429,0,0,1,2.188,1.125h.031V12h2.469Zm-2.437-2.93v-.633a1.945,1.945,0,0,0-.449-1.293,1.453,1.453,0,0,0-1.168-.535,1.51,1.51,0,0,0-1.289.641,3.012,3.012,0,0,0-.469,1.8,2.543,2.543,0,0,0,.445,1.582,1.451,1.451,0,0,0,1.219.582,1.511,1.511,0,0,0,1.238-.59A2.418,2.418,0,0,0-82.744,16.156ZM-70.641,20H-73.1V18.781h-.039A2.792,2.792,0,0,1-75.586,20.2q-2.781,0-2.781-3.367V12h2.461v4.609q0,1.7,1.344,1.7A1.329,1.329,0,0,0-73.5,17.84a1.874,1.874,0,0,0,.4-1.262V12h2.461Zm7.3-5.773a2.142,2.142,0,0,0-1.039-.242,1.5,1.5,0,0,0-1.258.59,2.573,2.573,0,0,0-.453,1.605V20h-2.469V12h2.469v1.484h.031a2.136,2.136,0,0,1,2.109-1.625,1.59,1.59,0,0,1,.609.094Zm2.463-3.492a1.442,1.442,0,0,1-1.023-.371,1.2,1.2,0,0,1-.4-.91,1.153,1.153,0,0,1,.4-.906A1.49,1.49,0,0,1-60.88,8.2a1.486,1.486,0,0,1,1.027.352,1.158,1.158,0,0,1,.395.906,1.191,1.191,0,0,1-.395.922A1.466,1.466,0,0,1-60.88,10.734ZM-59.661,20H-62.13V12h2.469Zm9.908,0h-2.469V18.9h-.031a2.768,2.768,0,0,1-2.477,1.3,3.033,3.033,0,0,1-2.414-1.059,4.382,4.382,0,0,1-.914-2.957A4.77,4.77,0,0,1-57.05,13a3.287,3.287,0,0,1,2.641-1.2,2.246,2.246,0,0,1,2.156,1.109h.031V8.156h2.469Zm-2.422-3.891v-.6a1.893,1.893,0,0,0-.453-1.3,1.5,1.5,0,0,0-1.18-.516,1.487,1.487,0,0,0-1.281.645,2.993,2.993,0,0,0-.461,1.77,2.59,2.59,0,0,0,.445,1.625,1.479,1.479,0,0,0,1.234.57,1.485,1.485,0,0,0,1.223-.6A2.507,2.507,0,0,0-52.175,16.109ZM-41.017,20h-2.336V18.852h-.031A2.607,2.607,0,0,1-45.767,20.2a2.492,2.492,0,0,1-1.832-.66,2.366,2.366,0,0,1-.668-1.762q0-2.328,2.758-2.687l2.172-.289q0-1.312-1.422-1.312a4.853,4.853,0,0,0-2.719.852V12.477a6.116,6.116,0,0,1,1.41-.469,7.413,7.413,0,0,1,1.629-.2q3.422,0,3.422,3.414Zm-2.32-3.25v-.539l-1.453.188q-1.2.156-1.2,1.086a.9.9,0,0,0,.293.691,1.126,1.126,0,0,0,.793.27,1.462,1.462,0,0,0,1.133-.48A1.735,1.735,0,0,0-43.338,16.75Zm12.1,3.25H-33.7V18.9h-.031a2.768,2.768,0,0,1-2.477,1.3,3.033,3.033,0,0,1-2.414-1.059,4.382,4.382,0,0,1-.914-2.957A4.77,4.77,0,0,1-38.531,13a3.287,3.287,0,0,1,2.641-1.2,2.246,2.246,0,0,1,2.156,1.109h.031V8.156h2.469Zm-2.422-3.891v-.6a1.893,1.893,0,0,0-.453-1.3,1.5,1.5,0,0,0-1.18-.516,1.487,1.487,0,0,0-1.281.645,2.993,2.993,0,0,0-.461,1.77,2.59,2.59,0,0,0,.445,1.625,1.479,1.479,0,0,0,1.234.57,1.485,1.485,0,0,0,1.223-.6A2.507,2.507,0,0,0-33.656,16.109ZM-16.911,20H-19.38V18.9h-.031a2.768,2.768,0,0,1-2.477,1.3A3.033,3.033,0,0,1-24.3,19.137a4.382,4.382,0,0,1-.914-2.957A4.77,4.77,0,0,1-24.208,13a3.287,3.287,0,0,1,2.641-1.2,2.246,2.246,0,0,1,2.156,1.109h.031V8.156h2.469Zm-2.422-3.891v-.6a1.893,1.893,0,0,0-.453-1.3,1.5,1.5,0,0,0-1.18-.516,1.487,1.487,0,0,0-1.281.645,2.993,2.993,0,0,0-.461,1.77,2.59,2.59,0,0,0,.445,1.625,1.479,1.479,0,0,0,1.234.57,1.485,1.485,0,0,0,1.223-.6A2.507,2.507,0,0,0-19.333,16.109Zm11.689.594h-5.219q.125,1.742,2.2,1.742a4.286,4.286,0,0,0,2.32-.625V19.6a6.1,6.1,0,0,1-2.883.594,4.058,4.058,0,0,1-3.008-1.074,4.058,4.058,0,0,1-1.07-3,4.281,4.281,0,0,1,1.156-3.156A3.852,3.852,0,0,1-11.308,11.8,3.5,3.5,0,0,1-8.6,12.844a4,4,0,0,1,.957,2.82Zm-2.289-1.516q0-1.719-1.391-1.719a1.328,1.328,0,0,0-1.027.492,2.234,2.234,0,0,0-.527,1.227ZM.711,20H-1.758V8.156H.711Zm8.736,0H7.111V18.852H7.08A2.607,2.607,0,0,1,4.7,20.2a2.492,2.492,0,0,1-1.832-.66A2.366,2.366,0,0,1,2.2,17.773q0-2.328,2.758-2.687L7.127,14.8q0-1.312-1.422-1.312a4.853,4.853,0,0,0-2.719.852V12.477a6.116,6.116,0,0,1,1.41-.469,7.413,7.413,0,0,1,1.629-.2q3.422,0,3.422,3.414Zm-2.32-3.25v-.539L5.673,16.4q-1.2.156-1.2,1.086a.9.9,0,0,0,.293.691,1.126,1.126,0,0,0,.793.27,1.462,1.462,0,0,0,1.133-.48A1.735,1.735,0,0,0,7.127,16.75ZM18.583,20H16.059V8.8h2.523Zm10.033,0H26.155V15.555q0-1.859-1.328-1.859a1.318,1.318,0,0,0-1.055.492,1.875,1.875,0,0,0-.414,1.25V20H20.889V12h2.469v1.266h.031A2.829,2.829,0,0,1,25.96,11.8q2.656,0,2.656,3.3Zm7.173-9.953a2.494,2.494,0,0,0-.914-.187q-1.188,0-1.187,1.289V12h1.828v1.82H33.688V20H31.227V13.82H29.883V12h1.344v-.992a2.88,2.88,0,0,1,.891-2.2,3.4,3.4,0,0,1,2.422-.836,4.253,4.253,0,0,1,1.25.156ZM40.517,20.2a4.3,4.3,0,0,1-3.145-1.121,4.064,4.064,0,0,1-1.145-3.043,4.065,4.065,0,0,1,1.188-3.105A4.487,4.487,0,0,1,40.627,11.8a4.249,4.249,0,0,1,3.125,1.121,3.985,3.985,0,0,1,1.133,2.965,4.23,4.23,0,0,1-1.168,3.148A4.348,4.348,0,0,1,40.517,20.2Zm.063-6.5a1.647,1.647,0,0,0-1.359.6,2.653,2.653,0,0,0-.484,1.7q0,2.3,1.859,2.3,1.773,0,1.773-2.367Q42.369,13.7,40.58,13.7Zm11.127.531a2.142,2.142,0,0,0-1.039-.242,1.5,1.5,0,0,0-1.258.59,2.573,2.573,0,0,0-.453,1.605V20H46.488V12h2.469v1.484h.031A2.136,2.136,0,0,1,51.1,11.859a1.59,1.59,0,0,1,.609.094ZM65.607,20H63.146V15.438q0-1.742-1.281-1.742a1.177,1.177,0,0,0-.992.523,2.151,2.151,0,0,0-.383,1.3V20H58.021V15.391q0-1.7-1.258-1.7a1.206,1.206,0,0,0-1.012.5,2.2,2.2,0,0,0-.379,1.359V20H52.9V12h2.469v1.25H55.4A3.031,3.031,0,0,1,57.989,11.8,2.3,2.3,0,0,1,60.31,13.3,2.959,2.959,0,0,1,63,11.8q2.609,0,2.609,3.219Zm8.611,0H71.882V18.852H71.85A2.607,2.607,0,0,1,69.468,20.2a2.492,2.492,0,0,1-1.832-.66,2.366,2.366,0,0,1-.668-1.762q0-2.328,2.758-2.687L71.9,14.8q0-1.312-1.422-1.312a4.853,4.853,0,0,0-2.719.852V12.477a6.116,6.116,0,0,1,1.41-.469,7.413,7.413,0,0,1,1.629-.2q3.422,0,3.422,3.414ZM71.9,16.75v-.539l-1.453.188q-1.2.156-1.2,1.086a.9.9,0,0,0,.293.691,1.126,1.126,0,0,0,.793.27,1.462,1.462,0,0,0,1.133-.48A1.735,1.735,0,0,0,71.9,16.75Zm10.338,2.961a4.881,4.881,0,0,1-2.414.484,4.083,4.083,0,0,1-2.984-1.117A3.859,3.859,0,0,1,75.7,16.2a4.251,4.251,0,0,1,1.223-3.215,4.518,4.518,0,0,1,3.27-1.176,4.2,4.2,0,0,1,2.047.375v2.094a2.814,2.814,0,0,0-1.727-.578,2.275,2.275,0,0,0-1.684.621,2.317,2.317,0,0,0-.621,1.715A2.28,2.28,0,0,0,78.8,17.7a2.182,2.182,0,0,0,1.633.605,3.258,3.258,0,0,0,1.8-.578ZM85.1,10.734a1.442,1.442,0,0,1-1.023-.371,1.2,1.2,0,0,1-.4-.91,1.153,1.153,0,0,1,.4-.906,1.671,1.671,0,0,1,2.051,0,1.158,1.158,0,0,1,.395.906,1.191,1.191,0,0,1-.395.922A1.466,1.466,0,0,1,85.1,10.734ZM86.322,20H83.854V12h2.469Zm5.892.2a4.3,4.3,0,0,1-3.145-1.121,4.064,4.064,0,0,1-1.145-3.043,4.065,4.065,0,0,1,1.188-3.105A4.487,4.487,0,0,1,92.324,11.8a4.249,4.249,0,0,1,3.125,1.121,3.985,3.985,0,0,1,1.133,2.965,4.23,4.23,0,0,1-1.168,3.148A4.348,4.348,0,0,1,92.215,20.2Zm.063-6.5a1.647,1.647,0,0,0-1.359.6,2.653,2.653,0,0,0-.484,1.7q0,2.3,1.859,2.3,1.773,0,1.773-2.367Q94.066,13.7,92.277,13.7Zm2.648-5.484L92.48,10.734H90.7L92.73,8.211ZM105.9,20h-2.461V15.555q0-1.859-1.328-1.859a1.318,1.318,0,0,0-1.055.492,1.875,1.875,0,0,0-.414,1.25V20H98.177V12h2.469v1.266h.031a2.829,2.829,0,0,1,2.57-1.461q2.656,0,2.656,3.3Z" transform="translate(471 4173)" fill="#212429"/>
      <path id="Trazado_1030990" data-name="Trazado 1030990" d="M-84.611-.43v-2.5a4.8,4.8,0,0,0,1.477.855,4.746,4.746,0,0,0,1.609.285,3.569,3.569,0,0,0,.832-.086,1.949,1.949,0,0,0,.594-.238,1.039,1.039,0,0,0,.355-.359.9.9,0,0,0,.117-.449.971.971,0,0,0-.187-.586,2.018,2.018,0,0,0-.512-.477,5.347,5.347,0,0,0-.77-.422q-.445-.2-.961-.414a4.9,4.9,0,0,1-1.957-1.336,2.917,2.917,0,0,1-.645-1.906,3.036,3.036,0,0,1,.352-1.5,2.986,2.986,0,0,1,.957-1.035,4.291,4.291,0,0,1,1.4-.6,7.206,7.206,0,0,1,1.688-.191,10.15,10.15,0,0,1,1.551.105,6.1,6.1,0,0,1,1.246.324v2.336a3.768,3.768,0,0,0-.613-.344,4.859,4.859,0,0,0-.684-.246,5.214,5.214,0,0,0-.7-.145,4.949,4.949,0,0,0-.66-.047,3.443,3.443,0,0,0-.781.082,2,2,0,0,0-.594.23,1.147,1.147,0,0,0-.375.355A.843.843,0,0,0-82-8.273a.888.888,0,0,0,.148.5,1.7,1.7,0,0,0,.422.422,4.477,4.477,0,0,0,.664.391q.391.191.883.395a9.838,9.838,0,0,1,1.207.6,4.291,4.291,0,0,1,.918.715,2.785,2.785,0,0,1,.586.91,3.216,3.216,0,0,1,.2,1.191,3.191,3.191,0,0,1-.355,1.574A2.886,2.886,0,0,1-78.29-.543a4.184,4.184,0,0,1-1.418.566A8.2,8.2,0,0,1-81.415.2,9.492,9.492,0,0,1-83.169.039,5.3,5.3,0,0,1-84.611-.43Zm10.494-8.836a1.442,1.442,0,0,1-1.023-.371,1.2,1.2,0,0,1-.4-.91,1.153,1.153,0,0,1,.4-.906,1.49,1.49,0,0,1,1.023-.352,1.486,1.486,0,0,1,1.027.352,1.158,1.158,0,0,1,.395.906,1.191,1.191,0,0,1-.395.922A1.466,1.466,0,0,1-74.117-9.266ZM-72.9,0h-2.469V-8H-72.9Zm1.556-.211v-2a5.256,5.256,0,0,0,1.215.547,4.028,4.028,0,0,0,1.145.18,2.455,2.455,0,0,0,1.035-.18.581.581,0,0,0,.379-.547A.506.506,0,0,0-67.74-2.6a1.6,1.6,0,0,0-.441-.273,5.009,5.009,0,0,0-.59-.211q-.32-.094-.617-.211a5.913,5.913,0,0,1-.84-.387,2.427,2.427,0,0,1-.609-.48,1.889,1.889,0,0,1-.375-.633,2.525,2.525,0,0,1-.129-.852A2.192,2.192,0,0,1-71.049-6.8a2.393,2.393,0,0,1,.781-.793,3.57,3.57,0,0,1,1.117-.453A5.825,5.825,0,0,1-67.842-8.2a7.261,7.261,0,0,1,1.078.082,8.047,8.047,0,0,1,1.078.238v1.906a3.9,3.9,0,0,0-1-.41,4.235,4.235,0,0,0-1.051-.137,2.328,2.328,0,0,0-.457.043,1.505,1.505,0,0,0-.379.125.7.7,0,0,0-.258.211.486.486,0,0,0-.094.293.541.541,0,0,0,.141.375,1.221,1.221,0,0,0,.367.27,3.625,3.625,0,0,0,.5.2q.277.09.551.184a7.161,7.161,0,0,1,.891.375,2.848,2.848,0,0,1,.684.477,1.872,1.872,0,0,1,.438.641,2.277,2.277,0,0,1,.152.875A2.282,2.282,0,0,1-65.51-1.23a2.471,2.471,0,0,1-.82.82,3.72,3.72,0,0,1-1.18.461A6.54,6.54,0,0,1-68.9.2,7.149,7.149,0,0,1-71.342-.211Zm12.4.117A3.649,3.649,0,0,1-60.59.2Q-63.2.2-63.2-2.516V-6.18h-1.3V-8h1.3V-9.727l2.461-.7V-8h1.8v1.82h-1.8v3.234q0,1.25.992,1.25a1.673,1.673,0,0,0,.8-.227Zm8.517-3.2h-5.219q.125,1.742,2.2,1.742a4.286,4.286,0,0,0,2.32-.625V-.4A6.1,6.1,0,0,1-54.01.2,4.058,4.058,0,0,1-57.018-.879a4.058,4.058,0,0,1-1.07-3,4.281,4.281,0,0,1,1.156-3.156A3.852,3.852,0,0,1-54.089-8.2a3.5,3.5,0,0,1,2.707,1.039,4,4,0,0,1,.957,2.82Zm-2.289-1.516q0-1.719-1.391-1.719a1.328,1.328,0,0,0-1.027.492,2.234,2.234,0,0,0-.527,1.227ZM-36.251,0h-2.461V-4.562q0-1.742-1.281-1.742a1.177,1.177,0,0,0-.992.523,2.151,2.151,0,0,0-.383,1.3V0h-2.469V-4.609q0-1.7-1.258-1.7a1.206,1.206,0,0,0-1.012.5,2.2,2.2,0,0,0-.379,1.359V0h-2.469V-8h2.469v1.25h.031A2.952,2.952,0,0,1-45.38-7.793a2.952,2.952,0,0,1,1.512-.4A2.3,2.3,0,0,1-41.548-6.7,2.959,2.959,0,0,1-38.86-8.2q2.609,0,2.609,3.219Zm8.611,0h-2.336V-1.148h-.031A2.607,2.607,0,0,1-32.39.2a2.492,2.492,0,0,1-1.832-.66,2.366,2.366,0,0,1-.668-1.762q0-2.328,2.758-2.687L-29.96-5.2q0-1.312-1.422-1.312a4.853,4.853,0,0,0-2.719.852V-7.523a6.116,6.116,0,0,1,1.41-.469,7.413,7.413,0,0,1,1.629-.2q3.422,0,3.422,3.414Zm-2.32-3.25v-.539l-1.453.188q-1.2.156-1.2,1.086a.9.9,0,0,0,.293.691,1.126,1.126,0,0,0,.793.27,1.462,1.462,0,0,0,1.133-.48A1.735,1.735,0,0,0-29.96-3.25ZM-13.442,0H-15.91V-1.1h-.031A2.768,2.768,0,0,1-18.418.2,3.033,3.033,0,0,1-20.832-.863a4.382,4.382,0,0,1-.914-2.957A4.77,4.77,0,0,1-20.738-7,3.287,3.287,0,0,1-18.1-8.2a2.246,2.246,0,0,1,2.156,1.109h.031v-4.758h2.469Zm-2.422-3.891v-.6a1.893,1.893,0,0,0-.453-1.3A1.5,1.5,0,0,0-17.5-6.3a1.487,1.487,0,0,0-1.281.645,2.993,2.993,0,0,0-.461,1.77,2.59,2.59,0,0,0,.445,1.625,1.479,1.479,0,0,0,1.234.57,1.485,1.485,0,0,0,1.223-.6A2.507,2.507,0,0,0-15.863-3.891ZM-4.174-3.3H-9.393q.125,1.742,2.2,1.742a4.286,4.286,0,0,0,2.32-.625V-.4A6.1,6.1,0,0,1-7.76.2,4.058,4.058,0,0,1-10.768-.879a4.058,4.058,0,0,1-1.07-3,4.281,4.281,0,0,1,1.156-3.156A3.852,3.852,0,0,1-7.838-8.2,3.5,3.5,0,0,1-5.131-7.156a4,4,0,0,1,.957,2.82ZM-6.463-4.812q0-1.719-1.391-1.719a1.328,1.328,0,0,0-1.027.492,2.234,2.234,0,0,0-.527,1.227ZM11.149-.75A8.063,8.063,0,0,1,7.071.2,5.9,5.9,0,0,1,2.809-1.3,5.443,5.443,0,0,1,1.251-5.422a5.753,5.753,0,0,1,1.7-4.3,6.205,6.205,0,0,1,4.531-1.664,9.2,9.2,0,0,1,3.141.492v2.367a6.242,6.242,0,0,0-3.172-.75A3.405,3.405,0,0,0,4.9-8.262a3.745,3.745,0,0,0-.988,2.723,3.756,3.756,0,0,0,.887,2.672,3.125,3.125,0,0,0,2.395.945A3.333,3.333,0,0,0,8.626-2.18V-4.367H6.384V-6.383h4.766ZM20.276-3.3H15.057q.125,1.742,2.2,1.742a4.286,4.286,0,0,0,2.32-.625V-.4A6.1,6.1,0,0,1,16.69.2,4.058,4.058,0,0,1,13.682-.879a4.058,4.058,0,0,1-1.07-3,4.281,4.281,0,0,1,1.156-3.156A3.852,3.852,0,0,1,16.612-8.2a3.5,3.5,0,0,1,2.707,1.039,4,4,0,0,1,.957,2.82ZM17.987-4.812q0-1.719-1.391-1.719a1.328,1.328,0,0,0-1.027.492,2.234,2.234,0,0,0-.527,1.227Zm3.236,4.6v-2a5.256,5.256,0,0,0,1.215.547,4.028,4.028,0,0,0,1.145.18,2.455,2.455,0,0,0,1.035-.18A.581.581,0,0,0,25-2.211a.506.506,0,0,0-.172-.391,1.6,1.6,0,0,0-.441-.273,5.009,5.009,0,0,0-.59-.211q-.32-.094-.617-.211a5.913,5.913,0,0,1-.84-.387,2.427,2.427,0,0,1-.609-.48,1.889,1.889,0,0,1-.375-.633,2.525,2.525,0,0,1-.129-.852A2.192,2.192,0,0,1,21.516-6.8,2.393,2.393,0,0,1,22.3-7.6a3.57,3.57,0,0,1,1.117-.453A5.825,5.825,0,0,1,24.723-8.2a7.261,7.261,0,0,1,1.078.082,8.047,8.047,0,0,1,1.078.238v1.906a3.9,3.9,0,0,0-1-.41,4.235,4.235,0,0,0-1.051-.137,2.328,2.328,0,0,0-.457.043,1.505,1.505,0,0,0-.379.125.7.7,0,0,0-.258.211.486.486,0,0,0-.094.293.541.541,0,0,0,.141.375,1.221,1.221,0,0,0,.367.27,3.625,3.625,0,0,0,.5.2q.277.09.551.184a7.161,7.161,0,0,1,.891.375,2.848,2.848,0,0,1,.684.477,1.871,1.871,0,0,1,.438.641,2.277,2.277,0,0,1,.152.875,2.282,2.282,0,0,1-.309,1.215,2.471,2.471,0,0,1-.82.82,3.72,3.72,0,0,1-1.18.461A6.54,6.54,0,0,1,23.668.2,7.149,7.149,0,0,1,21.223-.211Zm12.4.117A3.649,3.649,0,0,1,31.974.2q-2.609,0-2.609-2.711V-6.18h-1.3V-8h1.3V-9.727l2.461-.7V-8h1.8v1.82h-1.8v3.234q0,1.25.992,1.25a1.673,1.673,0,0,0,.8-.227Zm2.642-9.172a1.442,1.442,0,0,1-1.023-.371,1.2,1.2,0,0,1-.4-.91,1.153,1.153,0,0,1,.4-.906,1.49,1.49,0,0,1,1.023-.352,1.486,1.486,0,0,1,1.027.352,1.158,1.158,0,0,1,.395.906,1.191,1.191,0,0,1-.395.922A1.466,1.466,0,0,1,36.265-9.266ZM37.484,0H35.015V-8h2.469Zm5.892.2A4.3,4.3,0,0,1,40.231-.926a4.064,4.064,0,0,1-1.145-3.043,4.065,4.065,0,0,1,1.188-3.105A4.487,4.487,0,0,1,43.485-8.2,4.249,4.249,0,0,1,46.61-7.074a3.985,3.985,0,0,1,1.133,2.965A4.23,4.23,0,0,1,46.575-.961,4.348,4.348,0,0,1,43.376.2Zm.063-6.5a1.647,1.647,0,0,0-1.359.6A2.653,2.653,0,0,0,41.595-4q0,2.3,1.859,2.3,1.773,0,1.773-2.367Q45.228-6.3,43.438-6.3Zm2.648-5.484L43.642-9.266H41.86l2.031-2.523ZM57.065,0H54.6V-4.445Q54.6-6.3,53.276-6.3a1.318,1.318,0,0,0-1.055.492,1.875,1.875,0,0,0-.414,1.25V0H49.339V-8h2.469v1.266h.031A2.829,2.829,0,0,1,54.409-8.2q2.656,0,2.656,3.3Zm14.2,0H68.795V-1.1h-.031A2.768,2.768,0,0,1,66.287.2,3.033,3.033,0,0,1,63.873-.863a4.382,4.382,0,0,1-.914-2.957A4.77,4.77,0,0,1,63.967-7a3.287,3.287,0,0,1,2.641-1.2,2.246,2.246,0,0,1,2.156,1.109h.031v-4.758h2.469ZM68.842-3.891v-.6a1.893,1.893,0,0,0-.453-1.3,1.5,1.5,0,0,0-1.18-.516,1.487,1.487,0,0,0-1.281.645,2.993,2.993,0,0,0-.461,1.77,2.59,2.59,0,0,0,.445,1.625,1.479,1.479,0,0,0,1.234.57,1.485,1.485,0,0,0,1.223-.6A2.507,2.507,0,0,0,68.842-3.891ZM80.531-3.3H75.312q.125,1.742,2.2,1.742a4.286,4.286,0,0,0,2.32-.625V-.4A6.1,6.1,0,0,1,76.945.2,4.058,4.058,0,0,1,73.937-.879a4.058,4.058,0,0,1-1.07-3,4.281,4.281,0,0,1,1.156-3.156A3.852,3.852,0,0,1,76.867-8.2a3.5,3.5,0,0,1,2.707,1.039,4,4,0,0,1,.957,2.82ZM78.242-4.812q0-1.719-1.391-1.719a1.328,1.328,0,0,0-1.027.492A2.234,2.234,0,0,0,75.3-4.812ZM-60.782,20h-2.469V8.156h2.469Zm8.736,0h-2.336V18.852h-.031A2.607,2.607,0,0,1-56.8,20.2a2.492,2.492,0,0,1-1.832-.66,2.366,2.366,0,0,1-.668-1.762q0-2.328,2.758-2.687l2.172-.289q0-1.312-1.422-1.312a4.853,4.853,0,0,0-2.719.852V12.477a6.116,6.116,0,0,1,1.41-.469,7.413,7.413,0,0,1,1.629-.2q3.422,0,3.422,3.414Zm-2.32-3.25v-.539l-1.453.188q-1.2.156-1.2,1.086a.9.9,0,0,0,.293.691,1.126,1.126,0,0,0,.793.27,1.462,1.462,0,0,0,1.133-.48A1.735,1.735,0,0,0-54.367,16.75ZM-38.715,20h-6.719V8.8h6.461v2.055H-42.91v2.492h3.664v2.047H-42.91v2.563h4.2Zm9.283,0h-2.461V15.555q0-1.859-1.328-1.859a1.318,1.318,0,0,0-1.055.492,1.875,1.875,0,0,0-.414,1.25V20h-2.469V12h2.469v1.266h.031a2.829,2.829,0,0,1,2.57-1.461q2.656,0,2.656,3.3Zm9.142-3.3h-5.219q.125,1.742,2.2,1.742a4.286,4.286,0,0,0,2.32-.625V19.6a6.1,6.1,0,0,1-2.883.594,4.058,4.058,0,0,1-3.008-1.074,4.058,4.058,0,0,1-1.07-3A4.281,4.281,0,0,1-26.8,12.969,3.852,3.852,0,0,1-23.954,11.8a3.5,3.5,0,0,1,2.707,1.039,4,4,0,0,1,.957,2.82Zm-2.289-1.516q0-1.719-1.391-1.719A1.328,1.328,0,0,0-25,13.961a2.234,2.234,0,0,0-.527,1.227Zm8.978-.961a2.142,2.142,0,0,0-1.039-.242,1.5,1.5,0,0,0-1.258.59,2.573,2.573,0,0,0-.453,1.605V20H-18.82V12h2.469v1.484h.031a2.136,2.136,0,0,1,2.109-1.625,1.59,1.59,0,0,1,.609.094Zm8.931,4.859a4.526,4.526,0,0,1-1.289,3.449,5.224,5.224,0,0,1-3.734,1.223,5.919,5.919,0,0,1-2.563-.461V21.219a4.907,4.907,0,0,0,2.492.719,2.684,2.684,0,0,0,1.938-.66,2.369,2.369,0,0,0,.688-1.793v-.633H-7.17A2.757,2.757,0,0,1-9.662,20.2a3,3,0,0,1-2.43-1.078,4.372,4.372,0,0,1-.9-2.891,4.87,4.87,0,0,1,1-3.227,3.265,3.265,0,0,1,2.633-1.2A2.429,2.429,0,0,1-7.17,12.93h.031V12H-4.67Zm-2.437-2.93v-.633a1.945,1.945,0,0,0-.449-1.293A1.453,1.453,0,0,0-8.724,13.7a1.51,1.51,0,0,0-1.289.641,3.012,3.012,0,0,0-.469,1.8,2.543,2.543,0,0,0,.445,1.582,1.451,1.451,0,0,0,1.219.582,1.511,1.511,0,0,0,1.238-.59A2.418,2.418,0,0,0-7.107,16.156ZM-.137,20H-2.605V12H-.137ZM1.137,8.211l-2.445,2.523H-3.09l2.031-2.523ZM8.6,20H6.263V18.852H6.232A2.607,2.607,0,0,1,3.849,20.2a2.492,2.492,0,0,1-1.832-.66,2.366,2.366,0,0,1-.668-1.762q0-2.328,2.758-2.687L6.279,14.8q0-1.312-1.422-1.312a4.853,4.853,0,0,0-2.719.852V12.477a6.116,6.116,0,0,1,1.41-.469,7.413,7.413,0,0,1,1.629-.2Q8.6,11.8,8.6,15.219Zm-2.32-3.25v-.539L4.826,16.4q-1.2.156-1.2,1.086a.9.9,0,0,0,.293.691,1.126,1.126,0,0,0,.793.27,1.462,1.462,0,0,0,1.133-.48A1.735,1.735,0,0,0,6.279,16.75Zm13.425,5.8H17.688a9.8,9.8,0,0,1-2.523-6.836A10.428,10.428,0,0,1,17.688,8.8h2a11.228,11.228,0,0,0-2.367,6.914A10.859,10.859,0,0,0,19.7,22.547Zm.9-2.977v-2.5a4.8,4.8,0,0,0,1.477.855,4.746,4.746,0,0,0,1.609.285,3.569,3.569,0,0,0,.832-.086,1.949,1.949,0,0,0,.594-.238,1.039,1.039,0,0,0,.355-.359.9.9,0,0,0,.117-.449.971.971,0,0,0-.187-.586,2.018,2.018,0,0,0-.512-.477,5.347,5.347,0,0,0-.77-.422q-.445-.2-.961-.414A4.9,4.9,0,0,1,21.2,13.844a2.917,2.917,0,0,1-.645-1.906,3.036,3.036,0,0,1,.352-1.5A2.986,2.986,0,0,1,21.866,9.4a4.291,4.291,0,0,1,1.4-.6,7.206,7.206,0,0,1,1.688-.191,10.15,10.15,0,0,1,1.551.105,6.1,6.1,0,0,1,1.246.324v2.336a3.768,3.768,0,0,0-.613-.344,4.859,4.859,0,0,0-.684-.246,5.214,5.214,0,0,0-.7-.145,4.949,4.949,0,0,0-.66-.047,3.443,3.443,0,0,0-.781.082,2,2,0,0,0-.594.23,1.147,1.147,0,0,0-.375.355.843.843,0,0,0-.133.465.888.888,0,0,0,.148.5,1.7,1.7,0,0,0,.422.422,4.477,4.477,0,0,0,.664.391q.391.191.883.395a9.837,9.837,0,0,1,1.207.6,4.291,4.291,0,0,1,.918.715,2.785,2.785,0,0,1,.586.91,3.216,3.216,0,0,1,.2,1.191,3.191,3.191,0,0,1-.355,1.574,2.886,2.886,0,0,1-.965,1.031,4.184,4.184,0,0,1-1.418.566A8.2,8.2,0,0,1,23.8,20.2a9.492,9.492,0,0,1-1.754-.156A5.3,5.3,0,0,1,20.6,19.57Zm18.681-.32a8.063,8.063,0,0,1-4.078.945,5.9,5.9,0,0,1-4.262-1.5,5.443,5.443,0,0,1-1.559-4.121,5.753,5.753,0,0,1,1.7-4.3,6.205,6.205,0,0,1,4.531-1.664,9.2,9.2,0,0,1,3.141.492v2.367a6.242,6.242,0,0,0-3.172-.75,3.405,3.405,0,0,0-2.559,1.02,3.745,3.745,0,0,0-.988,2.723,3.756,3.756,0,0,0,.887,2.672,3.125,3.125,0,0,0,2.395.945,3.333,3.333,0,0,0,1.438-.258V15.633H34.52V13.617h4.766Zm8.9.75H41.467V8.8h6.461v2.055H43.99v2.492h3.664v2.047H43.99v2.563h4.2Zm9.283,0H55.007V15.555q0-1.859-1.328-1.859a1.318,1.318,0,0,0-1.055.492,1.875,1.875,0,0,0-.414,1.25V20H49.742V12H52.21v1.266h.031a2.829,2.829,0,0,1,2.57-1.461q2.656,0,2.656,3.3Zm3.056,2.547h-2a10.8,10.8,0,0,0,2.391-6.836A11.2,11.2,0,0,0,58.525,8.8H60.54a10.428,10.428,0,0,1,2.531,6.914A9.82,9.82,0,0,1,60.525,22.547Z" transform="translate(1187.661 4172)" fill="#212429"/>
      <g id="Grupo_1173332" data-name="Grupo 1173332" transform="translate(362.856 3815.172)">
        <g id="Grupo_1173331" data-name="Grupo 1173331" clip-path="url(#clip-path)">
          <g id="Grupo_1173330" data-name="Grupo 1173330">
            <g id="Grupo_1173329" data-name="Grupo 1173329" clip-path="url(#clip-path)">
              <g transform="matrix(1, 0, 0, 1, -22.86, 0)" filter="url(#Trazado_1028299)">
                <path id="Trazado_1028299-2" data-name="Trazado 1028299" d="M926.145,155.714A136.059,136.059,0,1,1,790.086,19.655,136.06,136.06,0,0,1,926.145,155.714" transform="translate(22.86)" fill="#afb42b"/>
              </g>
              <path id="Trazado_1028300" data-name="Trazado 1028300" d="M884.506,167.353c-5.852-3.645-4.617-8.331-2.807-14.028a37.465,37.465,0,0,0,3.827-11.164c3.086-16.872-6.3-25.469-13.268-31.769-8.979-8.114-1.926-12.02-.459-20.1,2.592-14.264-9.541-18.725-7.865-26.6,3.051-14.32-9-31.278-23.8-45.737l0,.006C833.229,8.5,822.543,4.35,810.279,2.847,786.106-.117,770.785,16.621,761.791,40.4c-11.476,30.352,2.537,66.247,33.375,70.2,5.029.644,41.182,51.606,43.3,60.647s36.594,3.706,30.277,19.567c-2.847,7.155,1.307,8.794,3.881,8.434,6.241-.874,3.2-6.494,3.2-6.494s.239,4.709-3.029,4.133c-1.451-.256-2.863-1.721-.2-5,4.539-5.589,6.973-7.76,1.586-16.629-3.424-5.636-1.977-8.72.918-12.533a13.042,13.042,0,0,0,.451,1.8c1.563,4.784,8.727,7.4,9.775,10.782s-8.685,5-4.435,12.485c-.281-6.191,3.244-5.153,6.322-6.94,5.385-3.128,3.83-9.427-2.7-13.5" fill="#963f04"/>
              <path id="Trazado_1028301" data-name="Trazado 1028301" d="M765.565,62.258l5.855,3.787,5.588,17.43-5.588-.55-4.2-8.037Z" fill="#e27d39"/>
              <path id="Trazado_1028302" data-name="Trazado 1028302" d="M816.555,110.6a17.7,17.7,0,0,0-4.881-.6c-1.5.253,1.244,3.69,1.244,3.69s3.373-1.879,3.637-3.085" fill="#3e5068"/>
              <path id="Trazado_1028303" data-name="Trazado 1028303" d="M821.6,121.084c-6.766-2.33-10.029-9.24-9.578-13.558.176-1.679,1.6-13.41,1.6-13.41-8.556,4.144-15.589,7.251-15.589,7.251s-6.665-3.916-14.581-8.149c0,0-1.447,12.046-1.584,13.086-1.673,12.673-9.193,13.073-18.041,14.8L774.2,165.984Z" fill="#fcc397"/>
              <path id="Trazado_1028304" data-name="Trazado 1028304" d="M784.035,88.487l-.937,7.648a83.546,83.546,0,0,0,11.486,8.619,4.117,4.117,0,0,0,3.234.517,98.41,98.41,0,0,0,15.131-5.6l.922-7.528Z" fill="#ea9f6c"/>
              <path id="Trazado_1028305" data-name="Trazado 1028305" d="M838.471,56.638a4.118,4.118,0,0,0-3.074-.114c2.326-10.092,4.191-20.323,2.933-22.952A41.243,41.243,0,0,0,807.961,10.7h0a41.24,41.24,0,0,0-34.994,14.858c-1.836,2.224-2.5,12.42-2.691,22.67a3.806,3.806,0,0,0-2.18-.229c-3.131.643-4.791,5.441-3.707,10.711.9,4.334,3.363,7.635,5.953,8.316.063,2.918.127,4.75.127,4.75,4.18,17.18,19.537,27.262,24.582,30.154a4.305,4.305,0,0,0,3.24.464c5.413-1.514,23.016-7.551,31.3-23.37,0,0,.5-1.757,1.268-4.563,2.81.546,6.468-2.152,8.586-6.53,2.342-4.847,1.906-9.9-.973-11.294" fill="#fcc397"/>
              <path id="Trazado_1028306" data-name="Trazado 1028306" d="M811.875,49.374c.668-.355,5.883-2.752,10.732-1.931,2.053.348,3.608,1.406,5.735,3.334-1.446-.382-3.615-1.861-5.541-2.074-4.455-.49-8.856,1.618-10.313,2.4-1.295.687-1.906-1.038-.613-1.725" fill="#663412"/>
              <path id="Trazado_1028307" data-name="Trazado 1028307" d="M795.113,47.327c-.586-.54-6.363-4.152-9.795-4.116a12.506,12.506,0,0,0-5.537,1.679c-5.057,2.834,1.887-1.122,5.289-.323a23.339,23.339,0,0,1,9.041,4.294c1.045.962,2.049-.574,1-1.534" fill="#663412"/>
              <path id="Trazado_1028308" data-name="Trazado 1028308" d="M794.5,56.455c-3.951.8-5.51,1.406-7.574,1.238-3.014-.245-5.26-2.246-5.031-4.122s2.851-3.1,5.851-2.729,6.5,4.151,6.754,5.613" fill="#fff"/>
              <path id="Trazado_1028309" data-name="Trazado 1028309" d="M790.254,54.691a3.193,3.193,0,1,1-2.752-3.729,3.277,3.277,0,0,1,2.752,3.729" fill="#7b9368"/>
              <path id="Trazado_1028310" data-name="Trazado 1028310" d="M789.381,54.245a2.165,2.165,0,1,1-1.867-2.528,2.222,2.222,0,0,1,1.867,2.528"/>
              <path id="Trazado_1028311" data-name="Trazado 1028311" d="M789.77,53.99a.934.934,0,0,1-1.117.665c-.563-.069-.977-.478-.922-.915a.934.934,0,0,1,1.117-.665c.563.069.975.477.922.915" fill="#fff"/>
              <path id="Trazado_1028312" data-name="Trazado 1028312" d="M794.2,55.592c-1.924-4.7-7.436-5.548-11.2-4.65-3.311.789-3.85.092-3.959-.079-.1,1.232,1.205,3.927,4.459,5.6a3.789,3.789,0,0,1-1.561-2.158c.578-1.951,4.981-2.627,7.746-1.41,3.979,1.758,4.821,3.585,4.821,3.585a3.361,3.361,0,0,0-.307-.883"/>
              <path id="Trazado_1028313" data-name="Trazado 1028313" d="M810.279,58.389c3.7,1.734,5.084,2.705,7.158,3.044,3.026.5,5.721-.9,5.951-2.776s-2.05-3.7-5.095-4.071-7.414,2.446-8.014,3.8" fill="#fff"/>
              <path id="Trazado_1028314" data-name="Trazado 1028314" d="M814.889,57.71a3.238,3.238,0,1,0,3.619-2.947,3.3,3.3,0,0,0-3.619,2.947" fill="#7b9368"/>
              <path id="Trazado_1028315" data-name="Trazado 1028315" d="M815.857,57.491a2.194,2.194,0,1,0,2.453-2,2.238,2.238,0,0,0-2.453,2"/>
              <path id="Trazado_1028316" data-name="Trazado 1028316" d="M818.871,57.735c-.055.434.365.847.936.917a.947.947,0,0,0,1.132-.664c.055-.438-.367-.849-.937-.919a.943.943,0,0,0-1.131.666" fill="#fff"/>
              <path id="Trazado_1028317" data-name="Trazado 1028317" d="M826.865,56.726c-.152.139-.852.685-3.916-.886-3.49-1.788-9.121-2.3-12.16,1.785a3.461,3.461,0,0,0-.52.783s1.278-1.568,5.621-2.305c3.018-.509,7.186,1.215,7.284,3.248a3.781,3.781,0,0,1-2.059,1.716c2.172-.5,5.393-2.162,5.75-4.341"/>
              <path id="Trazado_1028318" data-name="Trazado 1028318" d="M849.473,45.094C852.137,23.358,834.7,3.331,810.528.368S764.6,12.627,761.936,34.363a42.612,42.612,0,0,0,2.131,20.552c.154-3.607,1.675-6.43,4.025-6.915a3.639,3.639,0,0,1,1.6.046c.609,4.712,1.459,8.019,1.771,5.469.369-3.009,1.652-8.466,2.654-12.477,1.973-5.373,2.1-14.858,17.448-13.845-.2-12.819,45.406-9.109,43.269,22.48-.037,3.932-.154,8.7-.484,11.386-.311,2.522,1.211-.4,2.859-4.745a3.592,3.592,0,0,1,1.258.324c2.262,1.093,3.008,4.453,2.092,8.193a36.677,36.677,0,0,0,8.91-19.737" fill="#b7642c"/>
              <path id="Trazado_1028319" data-name="Trazado 1028319" d="M802.357,73.353l-4.1-.5a3.247,3.247,0,0,1-2.7-2.643,3.962,3.962,0,0,0-.379,1.251c-.24,1.965,2.076,2.889,3.844,3.105l2.174.267c1.765.216,4.236-.121,4.478-2.085a3.905,3.905,0,0,0-.064-1.305,3.25,3.25,0,0,1-3.258,1.912" fill="#ea9f6c"/>
              <path id="Trazado_1028320" data-name="Trazado 1028320" d="M765.576,51.451c.02-.412,1.043-2.145,2-1.709,1.465.668,2.062,3.751,2.342,6.795s-.287,5.17-.531,4.33c-.344-1.182-.338-4.829-1.733-8.431-.928-2.392-2.228,2.251-2.078-.985" fill="#ea9f6c"/>
              <path id="Trazado_1028321" data-name="Trazado 1028321" d="M840.1,60.588c.082-.4-.492-2.334-1.527-2.142-1.584.3-2.909,3.142-3.914,6.029s-.971,5.086-.53,4.33c.619-1.064,1.491-4.605,3.717-7.763,1.477-2.1,1.619,2.722,2.254-.454" fill="#ea9f6c"/>
              <path id="Trazado_1028322" data-name="Trazado 1028322" d="M788.648,68.81c-1.107,2.434-5.18,2.964-9.092,1.182s-6.181-5.2-5.072-7.635,5.178-2.964,9.092-1.182,6.181,5.2,5.072,7.635" fill="#ffb18a"/>
              <path id="Trazado_1028323" data-name="Trazado 1028323" d="M812.393,71.721c.488,2.63,4.311,4.128,8.535,3.343s7.258-3.552,6.768-6.183-4.311-4.128-8.533-3.343-7.256,3.552-6.77,6.183" fill="#ffb18a"/>
              <path id="Trazado_1028324" data-name="Trazado 1028324" d="M789.3,79.645c-1.156-.662-1.377-.462-1.553-.308-.228.219-.3.192.36,1.349l1.42,2.459S792.153,90,798.608,90.5a11.246,11.246,0,0,0,10.363-5.377c.359-.572,1.168-1.433,1.4-1.749.762-1.042.664-1.085.526-1.268-.375-.521-.455-.273-1.3.032a46.266,46.266,0,0,1-10.566-.368c-5.133-.766-8.821-1.609-9.731-2.125" fill="#c6523c"/>
              <path id="Trazado_1028325" data-name="Trazado 1028325" d="M804.807,85.414c1.586-.289,2.225-1.581,2.82-3.232a50.945,50.945,0,0,1-9.281-.607,76.814,76.814,0,0,1-7.918-1.53c.172,1.977.481,2.234,1.988,3.242-1.275-.085-1.664,1.087-1.668,2.516a13.22,13.22,0,0,0,7.623,4.184c4.04.366,6.657-.508,8.229-2.235-.223-.927-.709-2.165-1.793-2.338" fill="#fff"/>
              <path id="Trazado_1028326" data-name="Trazado 1028326" d="M789.584,79.795s.2,1.785,8.773,2.77c8.5.977,10.458-.337,10.458-.337s-6.321-1.537-9.815-1.9c-3.225-.34-9.416-.529-9.416-.529" fill="#fc7365"/>
              <path id="Trazado_1028327" data-name="Trazado 1028327" d="M824.979,213.577c.086-.553.191-1.128.293-1.7.168-.937.353-1.893.561-2.873A158.209,158.209,0,0,1,840.9,168.938c.439-.679,5.477-45.193.3-45.193l-15.613-2.783c-.1.069-.2.137-.3.206l-7.531-1.659c-10.194,2.581-19.8,2.821-24.493,11-1.677,2.923-12.127,20.185-12.127,20.185s-6.47-31.03-10.22-32.078c0,0-28.014,3.787-30.287,5.133s-4.207,3.033-6.272,7.455-6.123,16.359-8.314,28.69-6.58,31.029-6.58,31.029l18.912,4.278,2.07-9.939a23.26,23.26,0,0,0,12.691,12.588,124.649,124.649,0,0,1,3.272,15.726c.262,1.839.492,3.662.707,5.479.172,1.443.324,2.878.465,4.3q.41,4.2.617,8.3.074,1.443.117,2.871c.1,3.34.1,6.616-.049,9.8a57.427,57.427,0,0,0-11.4,11.539c4.758,1.4,11.338,3.244,13.611,3.462,5.4.519,8.938-5.047,8.938-5.047s-2.022,8.1,12.484,9.277c14.578,1.187,43.912-1.973,55.92-3.4a57.751,57.751,0,0,0-14.7-16.119c-.051-1.145-.084-3.652-.1-4.819-.015-.9-.013-.461-.009-1.372a161.6,161.6,0,0,1,1.986-24.276" fill="#5a6c92"/>
              <path id="Trazado_1028328" data-name="Trazado 1028328" d="M788.6,81.475s.434,8.269,9.019,9.6c8.006,1.241,12.135-7.044,12.135-7.044s-3.658,4.289-11.125,3.617S788.6,81.475,788.6,81.475" fill="#fc7365"/>
              <path id="Trazado_1028329" data-name="Trazado 1028329" d="M743.949,153.5s-4.674,20.7-5.375,27.422c-.193,1.851-2.484-2.073-2.484-2.073s1.255-15.2,7.859-25.349" fill="#3e5068"/>
              <path id="Trazado_1028330" data-name="Trazado 1028330" d="M792.2,198.1c-3.606-.56-10.082-3.283-12.207-6.486a13.858,13.858,0,0,0,8.533,9.155c18.709,6.031,28.455-11.371,28.455-11.371-5.59,4.3-15.291,10.175-24.781,8.7" fill="#3e5068"/>
              <path id="Trazado_1028331" data-name="Trazado 1028331" d="M783.951,146.431s-11.764,18.459-12.725,34.423c-2.259,25.4-1.822,73.426-1.822,73.426s-1.369-15.474-1.5-27.142c-.1-9.277.506-25.211,1.3-42.853.576-12.838,5.326-23.685,11.926-33.59a36.375,36.375,0,0,1,2.822-4.264" fill="#3e5068"/>
              <path id="Trazado_1028332" data-name="Trazado 1028332" d="M777.678,221.01c1.6-2.592,38.463-7.07,47.594-9.132q.252-1.4.56-2.873c-.287.051-.568.1-.836.167-2.9.69-9.685,1.741-16.873,2.856-21.379,3.311-29.939-3.788-32.685-2.282-6.426-.474-4.51,10.889,2.24,11.264" fill="#3e5068"/>
              <path id="Trazado_1028333" data-name="Trazado 1028333" d="M781.129,150.816l9.959-22.487,25.277-17.218,12.606,11.262-31.5,25.483-6.11-12.95Z" fill="#3e5068"/>
              <path id="Trazado_1028334" data-name="Trazado 1028334" d="M816.555,110.6l13.731,10.848-32.11,22.616-7.088-15.734Z" fill="#5a6c92"/>
              <path id="Trazado_1028335" data-name="Trazado 1028335" d="M781.26,109.517a68.882,68.882,0,0,0-2.68,16.228l2.549,25.071-10.7-24.889-9.234-5.7Z" fill="#3e5068"/>
              <path id="Trazado_1028336" data-name="Trazado 1028336" d="M845.586,280.01a136.743,136.743,0,0,1-109.539.62,60.1,60.1,0,0,1,6.474-18.067,59.448,59.448,0,0,1,4.334-6.7c4.758,1.4,11.338,3.244,13.612,3.462,5.4.519,8.937-5.047,8.937-5.047s-2.021,8.1,12.485,9.277c14.578,1.187,43.912-1.973,55.92-3.4.4.655.8,1.309,1.183,1.98a60.144,60.144,0,0,1,6.594,17.867" fill="#3f3f3f"/>
              <path id="Trazado_1028337" data-name="Trazado 1028337" d="M780.24,110.077l-19.1,10.132,10.8,4.593Z" fill="#5a6c92"/>
              <path id="Trazado_1028338" data-name="Trazado 1028338" d="M715.762,205.9l.307-.619,34.211,14.794-6.043,2.083-21.961-10.726Z" fill="#ea9f6c"/>
              <path id="Trazado_1028339" data-name="Trazado 1028339" d="M743.383,182.412A21.11,21.11,0,0,1,740,179.9a3.778,3.778,0,0,0-.679,5.1c-.426.572-1.084,1.507-1.938,2.87-1.531,2.453-8.435-10.357-8.435-10.357l-2.293-.348c-.762.478-3.67,1.088-4.848,4.046a7.453,7.453,0,0,1-.934,1.541c-.347.518-2.261,2.24-2.546,4.07s.064,2.493-.239,3.031a13.7,13.7,0,0,0-.394,8.391c.5,3.205,7.925,7.806,14.037,3.138,1.508-.12,3.6-.051,6.011-3.821l6.973-11.542a2.827,2.827,0,0,0-1.328-3.6" fill="#fcc397"/>
              <path id="Trazado_1028340" data-name="Trazado 1028340" d="M734.342,194.919s-4.1-3.043-5.131-3.629a24.235,24.235,0,0,0-6.349-2.623c-2.084-.322-2.323,3.884-1.024,4.894.684.529.7.278,1.418.332-1.5.831-3.049,1.653-2.045,1.464,1.235-.236,1.365-.776,3.61-1.1a29.659,29.659,0,0,1,3.162,1.313c6.015,2.82,6.4.113,6.359-.653" fill="#ea9f6c"/>
              <path id="Trazado_1028341" data-name="Trazado 1028341" d="M733.887,194.286c.047.766.355,3.449-5.7.715-4.186-1.894-6.533-.442-7.834-1.447s.627-5.785,2.709-5.459a24.344,24.344,0,0,1,6.353,2.625c1.024.586,4.469,3.566,4.469,3.566" fill="#fcc397"/>
              <path id="Trazado_1028342" data-name="Trazado 1028342" d="M730.4,194.478a5.739,5.739,0,0,1,.82-1.48,8.969,8.969,0,0,1,2.559,1.24c.494.39.64,1.48-.486,1.488a9.018,9.018,0,0,1-2.893-1.248" fill="#e26954"/>
              <path id="Trazado_1028343" data-name="Trazado 1028343" d="M733.922,188.739a107.234,107.234,0,0,0-10.824-.992,13.214,13.214,0,0,0-2.783-.052c-.493-.286-.912-.008-.856.282s-.039.254,1.063.171a7.157,7.157,0,0,1,2.543-.053,6.256,6.256,0,0,1,.759.232c2.051,1.367,6.049,3.421,6.549,3.759.52.348,3.885,6.616,8.619,1.927Z" fill="#ea9f6c"/>
              <path id="Trazado_1028344" data-name="Trazado 1028344" d="M736.484,184.406c-.982-1-9.1-2.484-11.3-2.276a5.029,5.029,0,0,0-1.967.068c-.5.1-1.1-.238-1.238.3s1.2.109,1.483.054a4.394,4.394,0,0,1,1.621.042c.838.224,5.5,3.712,7.515,5.57.967.888,4.616,6.5,8.735,2.131,0,0-3.866-4.89-4.848-5.892" fill="#ea9f6c"/>
              <path id="Trazado_1028345" data-name="Trazado 1028345" d="M729.928,167.836c-.225-.518-.145-1.051.178-1.192l1.439-.625c.324-.14.77.167.992.684l.932,2.144c.223.519.147,1.05-.178,1.192l-1.441.625c-.322.14-.768-.165-.99-.683Z" fill="#c2c4c2"/>
              <rect id="Rectángulo_414861" data-name="Rectángulo 414861" width="1.426" height="27.263" transform="translate(730.275 168.633) rotate(-23.461)" fill="#369e3b"/>
              <rect id="Rectángulo_414862" data-name="Rectángulo 414862" width="1.413" height="27.262" transform="translate(731.584 168.058) rotate(-23.46)" fill="#72dd5b"/>
              <rect id="Rectángulo_414863" data-name="Rectángulo 414863" width="1.425" height="27.262" transform="matrix(0.917, -0.398, 0.398, 0.917, 730.95, 168.299)" fill="#40c140"/>
              <path id="Trazado_1028346" data-name="Trazado 1028346" d="M743.732,192.489l-2.615,1.135,3.513,4.515Z" fill="#fcea9d"/>
              <path id="Trazado_1028347" data-name="Trazado 1028347" d="M743.447,196.621l1.184,1.519-.3-1.9Z" fill="#515151"/>
              <rect id="Rectángulo_414864" data-name="Rectángulo 414864" width="2.843" height="1.522" transform="translate(730.25 168.576) rotate(-23.437)" fill="#3a3a3a"/>
              <path id="Trazado_1028348" data-name="Trazado 1028348" d="M736.244,184.174c-.875-.9-4.687-4.223-5.7-5.15.066-.236-.076-.771.342-.5,1.107.723,3,2.345,3.554,2.789,2.784,2.245,4.436,1.4,5.951-.421-5.7-6.52-8.3-7.626-9.419-8.244A2.671,2.671,0,0,0,727.4,174.2c-.7,1.628-1.234,3.258-1.3,3.449-.048.134.778.073,1.838.179a2.094,2.094,0,0,0-1.047.591c-1.076,1.069-2.242,2.611-2.066,3.52.072.365.865.19,1.275.482a71.673,71.673,0,0,1,6.772,4.99c.963.89,4.3,6.359,7.969,2.906,0,0-3.612-5.148-4.6-6.145" fill="#fcc397"/>
              <path id="Trazado_1028349" data-name="Trazado 1028349" d="M738.693,194.025l-5.07-5.272s-6.653-5.364-7.172-5.712-1.012-.9-2.211.485c-.973,1.125-2.756,2.7-2.051,3.8.17.261.871.424,1.455.66a72.1,72.1,0,0,1,6.936,3.533c.519.349,3.9,5.979,8.113,2.509" fill="#fcc397"/>
              <path id="Trazado_1028350" data-name="Trazado 1028350" d="M735.252,179.528a7.283,7.283,0,0,1,1.5-1.534,11.407,11.407,0,0,1,2.713,2.382c.47.643.283,2.027-1.1,1.656-1.08-.29-3.117-2.5-3.117-2.5" fill="#e26954"/>
              <path id="Trazado_1028351" data-name="Trazado 1028351" d="M740.971,190.419l-2.275-3.111a2.263,2.263,0,0,0-1.038.325c-.462.306,1.268,2.707,1.792,2.868a3.876,3.876,0,0,0,1.521-.082" fill="#e26954"/>
              <path id="Trazado_1028352" data-name="Trazado 1028352" d="M738.748,193.934l-2.738-2.715a2.265,2.265,0,0,0-.971.485c-.408.375,1.678,2.472,2.219,2.549a3.883,3.883,0,0,0,1.49-.319" fill="#e26954"/>
              <path id="Trazado_1028353" data-name="Trazado 1028353" d="M684.293,188.061s1.312-1.512,4.812-1.5,23.317,12.447,23.317,12.447l32.189-4.312-.625,7.876-30.472,1.251-2.967-.564-1.522-.667-.25-1.02-24.482-13.252Z" fill="#fff"/>
              <path id="Trazado_1028354" data-name="Trazado 1028354" d="M744.611,194.694l46.943,20.128v2.96l-47.318-18.776Z" fill="#dbdbdb"/>
              <path id="Trazado_1028355" data-name="Trazado 1028355" d="M683.606,187.693l25.753,13.752s.5,1.75,4.375,1.25,30.253-3.375,30.253-3.375l47.88,19.377-31.628,6.125-48.13-20.5s-2.848-.625-3.5-2.125-25-13.627-25-13.627Z" fill="#752b0b"/>
              <path id="Trazado_1028356" data-name="Trazado 1028356" d="M791.867,217.572V218.7L743.986,199.32l-30.473,3.4,30.811-4.347Z" fill="#9b5e26"/>
              <path id="Trazado_1028357" data-name="Trazado 1028357" d="M715.762,205.9s13.752,7.781,15.432,8.508c4.275,1.851,10.636,5.545,13.586,5.9,1.271.152-13.137-6.14-14.836-8.147-.916-1.084-.762-3.066,1.584-3.084,5.668-.044,10.084,4.167,19.033,4.941,10.193.882,10.976,7.644,10.976,7.644s4.987,6.6-3.1,7.9c-9.936,1.588-24.5-3.518-28.99-6.48-.983-.65-11.854-14.648-14.475-17.363.236.054.508.119.793.187" fill="#fcc397"/>
              <path id="Trazado_1028358" data-name="Trazado 1028358" d="M734.039,211.457a7.7,7.7,0,0,1-1.121,1.994,12.087,12.087,0,0,1-3.447-1.7c-.666-.53-.856-2.006.67-2.008,1.191,0,3.9,1.711,3.9,1.711" fill="#e26954"/>
              <path id="Trazado_1028359" data-name="Trazado 1028359" d="M853.785,137.549c-2.94-11.056-9.193-15.164-18.053-14.287-16.734,1.6-13.785,26.675-12.992,30.247,1.492,6.718,3.285,13.324,6.861,17.237,2.045,14.107,2.942,27,2.178,32.14-.463,3.109-1.014,6.107-1.256,8.573a18.115,18.115,0,0,0-4.9.339c-8.5,2.024-46.318,6.586-47.943,9.211a148.829,148.829,0,0,1-16.5-2.312,15.1,15.1,0,0,0-5.194,12.161c7.252,2.873,19.383,4.716,19.383,4.716s-.25,2.75,6,3.251,46.006,3.251,69.758-8.94a12.4,12.4,0,0,0,.721-1.981c11.406-27.29,4.619-80.288,1.941-90.355" fill="#5a6c92"/>
              <path id="Trazado_1028360" data-name="Trazado 1028360" d="M797.836,239.44c-8.131,0-14.309-.443-16.471-.615-6.25-.5-6-3.251-6-3.251a125.83,125.83,0,0,1-17.175-3.918q.072,1.443.117,2.871c5.543,1.735,19.17,7.333,22.636,7.612,2.914.232,9.164,0,16.893,0,7.447,0,16.268-1.717,25.166-2.914-.016-.9-.014-.461-.01-1.372a188.6,188.6,0,0,1-25.156,1.587" fill="#3e5068"/>
              <path id="Trazado_1028361" data-name="Trazado 1028361" d="M730.229,219.915c.969.343-1.1,1.151-3.17-1s-8.56-9.06-8.56-9.06,9.322,9.215,11.73,10.062" fill="#ea9f6c"/>
              <path id="Trazado_1028362" data-name="Trazado 1028362" d="M775.438,151.495a1.739,1.739,0,1,1-1.718-2.009,1.88,1.88,0,0,1,1.718,2.009" fill="#3e5068"/>
              <path id="Trazado_1028363" data-name="Trazado 1028363" d="M768.25,174.715a1.689,1.689,0,1,1-1.658-2.008,1.859,1.859,0,0,1,1.658,2.008" fill="#3e5068"/>
              <path id="Trazado_1028364" data-name="Trazado 1028364" d="M767.266,198.139a1.647,1.647,0,1,1-1.6-2.01,1.841,1.841,0,0,1,1.6,2.01" fill="#3e5068"/>
              <path id="Trazado_1028365" data-name="Trazado 1028365" d="M767.266,240.742a1.647,1.647,0,1,1-1.6-2.009,1.842,1.842,0,0,1,1.6,2.009" fill="#3e5068"/>
              <path id="Trazado_1028366" data-name="Trazado 1028366" d="M785.123,22.874c-4.6-1.417-12.486-3.019-16.367,6.427-3.864,9.4-7.272,18.546-6.537,34.393.627,13.527,6.5,33.554,15.353,40.3-4.166-1.937-16.7-13.926-19.611-32.949-2.963-19.378,5.6-42.752,10.584-49.42,6.049-8.1,16.578,1.247,16.578,1.247" fill="#d87736"/>
              <path id="Trazado_1028367" data-name="Trazado 1028367" d="M774.44,81.761a16.756,16.756,0,0,1-7.216-12.807c-1.159-16.8,1.451-26.223,4.793-35.623,3.359-9.445,8.674-9.783,13.106-10.458,0,0-7.99-4.5-13.227,3.6C767.583,33.138,761,55.055,764.076,72s12.857,20.53,18.1,19.954a48.876,48.876,0,0,1-7.735-10.188" fill="#d87736"/>
              <path id="Trazado_1028368" data-name="Trazado 1028368" d="M863.6,124.8c.562,2.789,6.359,6.587,6.385,12.263s-5.207,9.979-8.408,15.88c-3.041,5.606-2.362,10.767,1.349,14.788s4.983,9.841-.676,14.9c-4.007,3.585-.324,9.876,3.6,7.923a4.208,4.208,0,0,0,2.141-4.522c-.188,2.287-1.938,3.948-3.416,3.472-2.682-.86-2.207-3.808-1.42-4.821s2.929-2.4,4.5-4.64c2.7-3.863,2.611-8.5.474-13.183s-3.4-8.491.762-14.114,6.949-8.691,7.649-15.682c.392-3.94-2.053-6.1-7.649-9.733-4.281-2.781-4.723-6.409-4.047-7.758A6.5,6.5,0,0,0,863.6,124.8" fill="#b7642c"/>
              <path id="Trazado_1028369" data-name="Trazado 1028369" d="M781.879,22.067c-2.791.15-6.588,1.579-9.623,5.716s-7.812,22.386-7.871,30.929,3.316,23.218,7.279,29.037c-3.885-3.964-9.7-13.494-10.519-28.76C759.113,21.232,774.533,21.2,775.8,21.036s6.082,1.031,6.082,1.031" fill="#e0a43b"/>
              <path id="Trazado_1028370" data-name="Trazado 1028370" d="M860.391,106.36c-.506,3.317-3.541,16.788,10.74,25.583,9.391,5.784,6.615,12.608,3.768,17.543s2.168,8.963,6.353,10.8c4.877,2.136,4.877,10.627-3.373,10.416-10.484-.269-5.258,15.251,2.922,5.758-1.713.947-3.871,1.914-5.467.441s-1.08-4.519,3.668-4.19,11.246-.454,12.6-6.723c1.686-7.839-5.184-8.469-9-12.488-4.5-4.743,6.127-13.287-.451-25.432-4.406-8.137-17.541-7.452-15.168-31.119s-6.592,9.415-6.592,9.415" fill="#d87736"/>
              <path id="Trazado_1028371" data-name="Trazado 1028371" d="M790.086,23.313c.977-6.635,4.961-7.711,12.416-7.061s26.633,7.93,30.328,20.418S843.545,63.455,848,71.047s11.09,12.183,13.074,20.158-.871,13.028-.687,15.155,6.916-10.012,6.578-15.155-4-8.4-8.35-16.316-2.6-4.731-5.144-22.675-11.166-25.6-15.4-29.238S822.7,13.028,811.227,10.562c-10.789-2.318-26.84,1.281-21.141,12.751" fill="#e0a43b"/>
              <path id="Trazado_1028372" data-name="Trazado 1028372" d="M827.748,28.474c19.047,18.454,12.191,37.265,25.285,47.6,11.8,9.313,17.424,23.932,8.229,35.569-4.162,5.271-10.121,13.188-6.811,17.06,6.145,7.187,15.078,5.021,5.959,20.05.615-.726,3.658-7.875-.283-10.394-12.385-5.487-22.42-13.428-18.447-26.487s12.488-7.884-2.84-27.41c-9.6-12.235-5.481-12.657-4.541-31.372.793-15.759-6.551-24.616-6.551-24.616" fill="#d87736"/>
              <path id="Trazado_1028373" data-name="Trazado 1028373" d="M834.561,65.7c.756-3.425-5.773,9.434-3.795,15.649s5.279,6.143,5.443,9.972-.824,6.634-5.113,12.407-.824,8.66.66,9.691,4.783,1.773,6.928,4.536a6.6,6.6,0,0,1,0,8.205c-1.65,1.98-4.6,4.085-4.115,7.321s4.342,3.72,5.545,3.551a4.674,4.674,0,0,0,3.683-2.713,6.008,6.008,0,0,1-4.144,1.336,2.756,2.756,0,0,1-2.289-4.273c.99-1.428,5.642-4.707,6.433-6.706a8.878,8.878,0,0,0-3.1-10.392c-2.674-1.979-4.489-3.533-2.178-7.539s4.453-6.87,4.617-11.953-2.473-8.877-5.443-12.341-5.444-6.286-3.133-16.751" fill="#d87736"/>
              <path id="Trazado_1028374" data-name="Trazado 1028374" d="M812.148,8.3c17.84,4.744,32.271,16.137,37.29,29.79,4.306,11.719,3.257,17.113,3.849,25.736s3.463,12.421,7.609,16.585,6.016,9.065,2.167,18.768,3.5-.464,5.628-5.571c2.072-4.984,2.666-13.965-6.221-20.48-5.8-4.252-2.371-11.639-2.371-19.933s-1.8-13.517-7.107-21.327c-8.573-12.6-26.922-23.3-40.844-23.568" fill="#d87736"/>
              <g transform="matrix(1, 0, 0, 1, -22.86, 0)" filter="url(#Trazado_1028375)">
                <path id="Trazado_1028375-2" data-name="Trazado 1028375" d="M0,159.962A137.337,137.337,0,1,0,137.337,22.625,137.334,137.334,0,0,0,0,159.962" transform="translate(22.86)" fill="#fb8c00"/>
              </g>
              <path id="Trazado_1028376" data-name="Trazado 1028376" d="M169.168,123.345c-5.421-2.153-10.342-7.436-11.418-11.369l-.329-15c-3.3,2.353-6.427,3.943-10.174,6.348-1.76.421-8.62.628-10.84-.067-5.546-3.25-11.744-6.9-17.685-12.374l-.655,21.5c-1.4,3.779-6.531,8.615-11.876,10.8l32.054,8.251Z" fill="#fcc397"/>
              <path id="Trazado_1028377" data-name="Trazado 1028377" d="M157.655,210.142a5.273,5.273,0,0,1,3.811.91V132.093H111.7v84.919c10.73-1.163,23.926-3.492,45.951-6.87" fill="#e5e5e5"/>
              <path id="Trazado_1028378" data-name="Trazado 1028378" d="M217.168,139.566A19.633,19.633,0,0,0,198.787,126.8l-29.619-3.452c-1.153-.459-5.205-1.064-6.284-1.761L139.378,213l-2.079.329-24.08-94.6a25.561,25.561,0,0,1-7.028,4.462L76.831,126.8a19.6,19.6,0,0,0-18.026,11.909c-6.156,12.028-7.836,55.246-5.545,79.27,1.153,14.718,6.526,31.593,21.078,34.505a70.664,70.664,0,0,0,10.152,1.132c-.788,34.847-.631,29.3-.83,32.8a137.715,137.715,0,0,0,108.31-.42l-.48-29.625c11.377-1.434,20.144-3.929,22.126-7.631,9.487-17.735,10.477-95.4,3.552-109.169" fill="#333"/>
              <path id="Trazado_1028379" data-name="Trazado 1028379" d="M189.779,171.775s-4.086,25.2-5.789,39.843c-.795.681-8.173,3.064-8.173,3.064s5.959-13.281,13.962-42.907" fill="#161616"/>
              <path id="Trazado_1028380" data-name="Trazado 1028380" d="M110.938,261.549l-4.956.062a24.022,24.022,0,0,1,.53,4.711,23.568,23.568,0,0,1-3.688,12.98,23.828,23.828,0,0,1-12.382,9.777c1.361.5,4.114,1.447,6.756,2.254a28.609,28.609,0,0,0,13.74-29.784" fill="#515151"/>
              <path id="Trazado_1028381" data-name="Trazado 1028381" d="M136.634,99.42a106.091,106.091,0,0,1-18.243-7.84v9.636c2.975,1.889,7.392,4.783,10.472,6.7a12.929,12.929,0,0,0,4.445,1.245h11.321a12.037,12.037,0,0,0,4.463-1.219c2.483-1.643,5.335-3.942,8.43-5.989V91.335a136.55,136.55,0,0,1-20.888,8.085" fill="#ea9f6c"/>
              <path id="Trazado_1028382" data-name="Trazado 1028382" d="M175.49,49.814a4.382,4.382,0,0,0-3.147.21c.418-12.177.307-23.092-1.239-25.519-8.572-13.445-18.64-19.29-33.465-19.849h0c-14.824.559-23.776,6.4-32.347,19.849-1.585,2.488-1.853,13.89-1.62,26.429a5.126,5.126,0,0,0-4.69-1.131c-3.27,1.1-4.419,6.457-2.564,11.959,1.6,4.746,4.911,8.048,7.888,8.159.275,6.029.569,11.306.776,14.763a10.406,10.406,0,0,0,3.3,6.333c8.357,5.737,14.224,9.775,19.4,12.838a9.712,9.712,0,0,0,3.569,1.011h12a14.729,14.729,0,0,0,4.082-1.117c5.127-3,10.92-7.031,19.125-12.55,1.081-.727,3.5-3.777,3.7-6.345.278-3.493.685-8.933,1.081-15.156,2.613-.82,5.274-3.828,6.666-7.914,1.874-5.5.743-10.858-2.521-11.97" fill="#fcc397"/>
              <path id="Trazado_1028383" data-name="Trazado 1028383" d="M146.148,44.488c1.08-.43,14.059-3.716,16.982,3.224,2.452,5.827-2.662-.34-6.528-.794A55.5,55.5,0,0,0,146.6,46.41c-1.578.034-1.921-1.341-.449-1.922" fill="#875d41"/>
              <path id="Trazado_1028384" data-name="Trazado 1028384" d="M127.743,44.943c-1.025-.464-13.549-3.562-16.552,2.613-2.729,5.627,2.607-.245,6.364-.56a83.342,83.342,0,0,1,9.671-.141c1.532.006,1.911-1.272.517-1.912" fill="#875d41"/>
              <path id="Trazado_1028385" data-name="Trazado 1028385" d="M128.37,55.39a21.8,21.8,0,0,1-7.981,1.492c-3.212,0-6.143-1.08-6.143-3.118s2.893-3.5,6.156-3.5,7.511,3.591,7.968,5.124" fill="#fff"/>
              <path id="Trazado_1028386" data-name="Trazado 1028386" d="M123.656,53.6a3.1,3.1,0,1,1-3.1-3.273,3.188,3.188,0,0,1,3.1,3.273" fill="#7b9368"/>
              <path id="Trazado_1028387" data-name="Trazado 1028387" d="M122.637,53.624a1.99,1.99,0,1,1-1.985-2.1,2.044,2.044,0,0,1,1.985,2.1"/>
              <path id="Trazado_1028388" data-name="Trazado 1028388" d="M123.726,53.664a1.031,1.031,0,1,1-1-.772.905.905,0,0,1,1,.772" fill="#fff"/>
              <path id="Trazado_1028389" data-name="Trazado 1028389" d="M128.375,55.412s-1.139-1.847-5.632-3.2c-3.22-.974-8.056.438-8.143,2.73-1.349-.98-1.391-2.791,2.05-4.074a9.4,9.4,0,0,1,11.284,3.64,2.911,2.911,0,0,1,.441.907" fill="#ea9f6c"/>
              <path id="Trazado_1028390" data-name="Trazado 1028390" d="M145.886,55.39c4.127,1.372,5.5,1.533,7.868,1.471,3.217-.08,6.15-.893,6.15-2.934s-2.787-3.661-6.048-3.661-7.509,3.591-7.97,5.124" fill="#fff"/>
              <path id="Trazado_1028391" data-name="Trazado 1028391" d="M150.559,53.52a3.1,3.1,0,1,0,3.1-3.272,3.19,3.19,0,0,0-3.1,3.272" fill="#7b9368"/>
              <path id="Trazado_1028392" data-name="Trazado 1028392" d="M151.663,53.536a1.992,1.992,0,1,0,1.987-2.1,2.046,2.046,0,0,0-1.987,2.1"/>
              <path id="Trazado_1028393" data-name="Trazado 1028393" d="M154.762,53.323a1.03,1.03,0,1,0,1-.774.908.908,0,0,0-1,.774" fill="#fff"/>
              <path id="Trazado_1028394" data-name="Trazado 1028394" d="M145.881,55.412s1.141-1.847,5.634-3.2c3.223-.974,8.054.438,8.145,2.73,1.347-.98,1.216-2.879-2.227-4.162a9.212,9.212,0,0,0-11.109,3.728,2.9,2.9,0,0,0-.443.907" fill="#ea9f6c"/>
              <path id="Trazado_1028395" data-name="Trazado 1028395" d="M139.5,73.314h-5.172a4.069,4.069,0,0,1-3.755-2.871,4.879,4.879,0,0,0-.279,1.612c0,2.474,3.019,3.273,5.249,3.273h2.743c2.227,0,5.246-.8,5.246-3.273a4.829,4.829,0,0,0-.28-1.612,4.07,4.07,0,0,1-3.752,2.871" fill="#ea9f6c"/>
              <path id="Trazado_1028396" data-name="Trazado 1028396" d="M96.74,53.828c-.037-.444.834-2.434,1.914-2.091,1.655.522,2.7,3.746,3.4,6.97s.369,5.571,0,4.707c-.526-1.221-.994-5.127-2.964-8.8-1.308-2.442-2.091,2.7-2.351-.785" fill="#ea9f6c"/>
              <path id="Trazado_1028397" data-name="Trazado 1028397" d="M177.755,53.828c.033-.444-.834-2.434-1.916-2.091-1.658.522-2.7,3.746-3.4,6.97s-.371,5.571,0,4.707c.522-1.221.993-5.127,2.961-8.8,1.308-2.442,2.091,2.7,2.354-.785" fill="#ea9f6c"/>
              <path id="Trazado_1028398" data-name="Trazado 1028398" d="M164.145,6.463c-5.568-9.745-37.3-5.576-47.408-2.788S100,12.039,100.355,20.755c.3,7.534.343,24.438.348,28.881a5.965,5.965,0,0,1,2.555,1.027l1.976,9.134,2.091-14.292S103.143,17.619,130.332,22.5c-3.835,2.091-10.805,9.413-10.805,9.413s16.036-3.836,22.308-6.276,0,5.23,0,5.23,12.2-4.533,16.038-5.924,7.666-.352,8.364,6.272,2.439,31.721,2.439,31.721l4.38-13.14a4.984,4.984,0,0,1,1.017-.167c.139-2.653.313-5.955.53-10.049,2.091-39.739-6.274-25.792-10.458-33.114" fill="#875d41"/>
              <path id="Trazado_1028399" data-name="Trazado 1028399" d="M127.79,84.6c.229,1.224,2.191,4.161,3.336,4.161h11.452c1.15,0,3.11-2.937,3.337-4.161Z" fill="#ea8c63"/>
              <path id="Trazado_1028400" data-name="Trazado 1028400" d="M142.212,85.15c-2.43-.3-10.434-.167-11.679-.109-3.193.146-5.055-1.637-4.941-1.979.187-.552.6-.423.955.114.327.487,2.422.322,3.465.1,5.277-1.136,3.92.137,6.5.178,2.422.038,1.593-1.181,6.17-.148,1.551.351,3.674.883,4.458.489.532-.265.944-.558,1.088,0,.138.527-2.133,1.834-6.014,1.357" fill="#d87350"/>
              <g id="Grupo_1173325" data-name="Grupo 1173325" opacity="0.4">
                <g id="Grupo_1173324" data-name="Grupo 1173324">
                  <g id="Grupo_1173323" data-name="Grupo 1173323" clip-path="url(#clip-path-3)">
                    <path id="Rectángulo_414865" data-name="Rectángulo 414865" d="M5.448,0h12.43a5.449,5.449,0,0,1,5.449,5.449v5.107a5.449,5.449,0,0,1-5.449,5.449H5.449A5.449,5.449,0,0,1,0,10.556V5.448A5.448,5.448,0,0,1,5.448,0Z" transform="translate(109.357 46.061)" fill="#fff"/>
                  </g>
                </g>
              </g>
              <g id="Grupo_1173328" data-name="Grupo 1173328" opacity="0.4">
                <g id="Grupo_1173327" data-name="Grupo 1173327">
                  <g id="Grupo_1173326" data-name="Grupo 1173326" clip-path="url(#clip-path-4)">
                    <path id="Rectángulo_414867" data-name="Rectángulo 414867" d="M5.448,0h12.43a5.449,5.449,0,0,1,5.449,5.449v5.107a5.449,5.449,0,0,1-5.449,5.449H5.449A5.449,5.449,0,0,1,0,10.556V5.448A5.448,5.448,0,0,1,5.448,0Z" transform="translate(140.686 46.061)" fill="#fff"/>
                  </g>
                </g>
              </g>
              <path id="Trazado_1028401" data-name="Trazado 1028401" d="M174.115,47.764l-10.136.226a5.42,5.42,0,0,0-4.69-2.722H145.557a5.449,5.449,0,0,0-5.449,5.449v.964a39.03,39.03,0,0,0-6.7.01v-.974a5.45,5.45,0,0,0-5.45-5.449H114.228a5.428,5.428,0,0,0-4.753,2.836l-8.8-.225v1.759l8.107,3.254V57.3a5.447,5.447,0,0,0,5.448,5.448H127.96a5.45,5.45,0,0,0,5.45-5.448V54.043a40.292,40.292,0,0,1,6.7-.014V57.3a5.448,5.448,0,0,0,5.449,5.448h13.732a5.449,5.449,0,0,0,5.449-5.448V52.773l9.377-3.25Zm-42.463,8.952a4.67,4.67,0,0,1-4.671,4.671H115.209a4.669,4.669,0,0,1-4.671-4.671V51.074a4.67,4.67,0,0,1,4.671-4.67h11.772a4.67,4.67,0,0,1,4.671,4.67Zm31.328,0a4.67,4.67,0,0,1-4.671,4.671H146.538a4.669,4.669,0,0,1-4.67-4.671V54.1c0-.023.008-.045.008-.069s-.008-.061-.008-.092V51.074a4.669,4.669,0,0,1,4.67-4.67h11.771a4.67,4.67,0,0,1,4.671,4.67Z" fill="#212121"/>
              <path id="Trazado_1028402" data-name="Trazado 1028402" d="M88.641,172.116s1.7,20.772,2.385,25.2,3.063,20.432,3.063,20.432l13.962-.68s-12.6-13.963-19.41-44.951" fill="#161616"/>
              <path id="Trazado_1028403" data-name="Trazado 1028403" d="M137.3,213.331l1.812-.288,6.964-27.356-4.788-37.959,5.792-8.381-3.385-9.2-11.81-.33-3.062,10.022,5.357,7.723-5.468,32.028Z" fill="#5fa6b2"/>
              <path id="Trazado_1028404" data-name="Trazado 1028404" d="M151.718,211.06l20.237-37.739-2.6-13.011,12.684-2.276-2.113-33.466-9.874-1.426a23.5,23.5,0,0,1-4.2-2.29l-5.156,7.4-21.584,84.788c3.834-.607,8.013-1.268,12.6-1.983" fill="#515151"/>
              <path id="Trazado_1028405" data-name="Trazado 1028405" d="M105.28,172.995,127.1,214.924c3.115-.476,6.492-1.007,10.2-1.593l-21.737-85.4-5.175-7.031a23.621,23.621,0,0,1-4.2,2.292l-9.242,1.134L95.2,157.707l12.685,2.278Z" fill="#515151"/>
              <path id="Trazado_1028406" data-name="Trazado 1028406" d="M83.555,212.7l5.6,4.923c11.252.683,19.936-.048,33.672-2.056-5.535-6.565-6.166-7.539-7.274-8.293L98.175,191.99c-2.171-1.909-4.849-2.413-5.98-1.127s-.288,3.882,1.88,5.789l13.78,12.127-.3.255L92.534,195.822c-2.17-1.909-4.844-2.409-5.981-1.129s-.292,3.882,1.876,5.787l14.321,12.6-.261.222L88.148,200.686c-2.038-1.793-4.554-2.267-5.615-1.053s-.279,3.642,1.76,5.435l13.682,12.041-.292.248-10.271-9.039c-2.041-1.793-4.556-2.267-5.618-1.054s-.279,3.643,1.761,5.433" fill="#fcc397"/>
              <path id="Trazado_1028407" data-name="Trazado 1028407" d="M122.817,251.869c-13.68,1.4-27.724,2.292-38.6,1.727v12.847l32.01-7.492,75.258,7.492V256.368c-25.151,3.169-63.054,1.151-68.664-4.5" fill="#161616"/>
              <path id="Trazado_1028408" data-name="Trazado 1028408" d="M173.214,278.792a23.59,23.59,0,0,1-3.852-12.932c0-.545.045-1.076.081-1.611l-4.872-.485c-.05.692-.088,1.389-.088,2.1a28.6,28.6,0,0,0,14.627,24.959c2.8-.891,4.775-1.6,6.76-2.354a23.825,23.825,0,0,1-12.656-9.673" fill="#515151"/>
              <path id="Trazado_1028409" data-name="Trazado 1028409" d="M110.265,253.162s38.053-3.15,53.634-9.705c1.831-.771,1.275-7.832,1.275-10.982,1.192,3.661,3.345,12.69.769,14.642-6.708,5.077-38.4,7.662-55.678,6.045" fill="#161616"/>
              <rect id="Rectángulo_414869" data-name="Rectángulo 414869" width="6.471" height="22.665" transform="translate(157.232 211.137) rotate(-20.34)" fill="#fff"/>
              <path id="Trazado_1028410" data-name="Trazado 1028410" d="M184.088,211.3l-17.655-1.336a5.4,5.4,0,0,0-2.566.455l7.3,19.709c6.832-2.784,9.77-4.963,10.887-8.636a102.653,102.653,0,0,0,2.061-10.185.143.143,0,0,1-.032-.007" fill="#fcc397"/>
              <path id="Trazado_1028411" data-name="Trazado 1028411" d="M136.16,260.654v36.63c.393,0,.782.014,1.177.014.137,0,.273,0,.412,0v-36.64Z" fill="#161616"/>
              <path id="Trazado_1028412" data-name="Trazado 1028412" d="M147.4,279.625a3.177,3.177,0,1,1-3.178-3.178,3.178,3.178,0,0,1,3.178,3.178" fill="#515151"/>
              <path id="Trazado_1028413" data-name="Trazado 1028413" d="M145.733,279.626a.5.5,0,1,1-.5-.5.5.5,0,0,1,.5.5" fill="#333"/>
              <path id="Trazado_1028414" data-name="Trazado 1028414" d="M143.7,279.626a.5.5,0,1,1-.5-.5.5.5,0,0,1,.5.5" fill="#333"/>
              <path id="Trazado_1028415" data-name="Trazado 1028415" d="M117.313,111.849l20.814,17.887-15.285,15.288L107.88,121.931Z" fill="#fff"/>
              <path id="Trazado_1028416" data-name="Trazado 1028416" d="M158.945,111.849l-20.817,17.887,15.286,15.288,14.964-23.093Z" fill="#fff"/>
              <g transform="matrix(1, 0, 0, 1, -22.86, 0)" filter="url(#Trazado_1028417)">
                <path id="Trazado_1028417-2" data-name="Trazado 1028417" d="M339.976,215.577a53.245,53.245,0,1,0,53.244,53.245,53.246,53.246,0,0,0-53.244-53.245m0,96.49a43.245,43.245,0,1,1,43.244-43.245,43.294,43.294,0,0,1-43.244,43.245" transform="translate(22.86)" fill="#fb8c00"/>
              </g>
              <g transform="matrix(1, 0, 0, 1, -22.86, 0)" filter="url(#Trazado_1028418)">
                <path id="Trazado_1028418-2" data-name="Trazado 1028418" d="M606.2,215.577a53.245,53.245,0,1,0,53.244,53.245A53.245,53.245,0,0,0,606.2,215.577m0,96.49a43.245,43.245,0,1,1,43.244-43.245A43.293,43.293,0,0,1,606.2,312.067" transform="translate(22.86)" fill="#afb42b"/>
              </g>
              <g transform="matrix(1, 0, 0, 1, -22.86, 0)" filter="url(#Trazado_1028419)">
                <path id="Trazado_1028419-2" data-name="Trazado 1028419" d="M574.492,319.294a113.569,113.569,0,0,1-101.76,63.117v.058l-26.593,26.593,26.593,26.593c72.912,0,135.008-47.035,157.647-112.34a59.441,59.441,0,0,1-55.887-4.021" transform="translate(22.86)" fill="#afb42b"/>
              </g>
              <rect id="Rectángulo_414870" data-name="Rectángulo 414870" width="18.804" height="18.804" transform="matrix(0.707, -0.707, 0.707, 0.707, 439.49, 409.062)" fill="#fb8c00"/>
              <g transform="matrix(1, 0, 0, 1, -22.86, 0)" filter="url(#Trazado_1028420)">
                <path id="Trazado_1028420-2" data-name="Trazado 1028420" d="M440.483,414.718l-5.657-5.656,5.657-5.657L462,381.892a113.627,113.627,0,0,1-90.849-62.257,59.477,59.477,0,0,1-56.19,3.3C336.271,384.9,393.082,430.494,461,435.239Z" transform="translate(22.86)" fill="#fb8c00"/>
              </g>
              <g transform="matrix(1, 0, 0, 1, -22.86, 0)" filter="url(#Trazado_1028421)">
                <path id="Trazado_1028421-2" data-name="Trazado 1028421" d="M472.733,101.989c-73.055,0-135.246,47.218-157.775,112.721a59.463,59.463,0,0,1,56.189,3.3,113.565,113.565,0,0,1,101.586-62.775v-.059l26.594-26.593Z" transform="translate(22.86)" fill="#fb8c00"/>
              </g>
              <path id="Trazado_1028422" data-name="Trazado 1028422" d="M472.733,155.175v0l26.594-26.593Z" fill="#afb42b"/>
              <g transform="matrix(1, 0, 0, 1, -22.86, 0)" filter="url(#Trazado_1028423)">
                <path id="Trazado_1028423-2" data-name="Trazado 1028423" d="M482.941,102.3l21.334,21.334,4.949,4.95-4.949,4.95-22.1,22.1a113.62,113.62,0,0,1,92.321,62.717,59.428,59.428,0,0,1,55.886-4.022C608.8,152.094,551.4,106.452,482.941,102.3" transform="translate(22.86)" fill="#afb42b"/>
              </g>
              <path id="Trazado_1028424" data-name="Trazado 1028424" d="M472.733,101.989h0l26.594,26.593Z" fill="#afb42b"/>
            </g>
          </g>
        </g>
      </g>
      <g transform="matrix(1, 0, 0, 1, 340, 3815.17)" filter="url(#team-process-creation)">
        <path id="team-process-creation-2" data-name="team-process-creation" d="M1601.618,130.116A104.225,104.225,0,1,1,1497.393,25.891a104.225,104.225,0,0,1,104.225,104.225" transform="translate(-999.9 137.38)" fill="#fff"/>
      </g>
      <g transform="matrix(1, 0, 0, 1, 340, 3815.17)" filter="url(#Trazado_1028427)">
        <path id="Trazado_1028427-2" data-name="Trazado 1028427" d="M1480.149,69.382a43.491,43.491,0,1,1-43.491-43.491,43.491,43.491,0,0,1,43.491,43.491" transform="translate(-806.96 199.11)" fill="#fff"/>
      </g>
      <g transform="matrix(1, 0, 0, 1, 340, 3815.17)" filter="url(#Trazado_1028426)">
        <path id="Trazado_1028426-2" data-name="Trazado 1028426" d="M1480.149,69.382a43.491,43.491,0,1,1-43.491-43.491,43.491,43.491,0,0,1,43.491,43.491" transform="translate(-1074.96 199.11)" fill="#fff"/>
      </g>
      <g id="digital-right-management_10988097" transform="translate(667.807 4050.263)">
        <path id="Trazado_1030869" data-name="Trazado 1030869" d="M14.756,15.7l-2.049,1.978a1.527,1.527,0,0,0-.244,1.915l2.246,3.614a1.013,1.013,0,0,1,.043,1,20.566,20.566,0,0,0-1.028,2.4,1.068,1.068,0,0,1-.76.674L8.73,28.3A1.579,1.579,0,0,0,7.5,29.819v7.289a1.579,1.579,0,0,0,1.23,1.52l4.234,1.022a1.068,1.068,0,0,1,.76.674,20.567,20.567,0,0,0,1.028,2.4,1.013,1.013,0,0,1-.043,1l-2.246,3.614a1.527,1.527,0,0,0,.244,1.915L18.045,54.4a1.667,1.667,0,0,0,1.983.236l3.744-2.169a1.115,1.115,0,0,1,1.032-.042,22.152,22.152,0,0,0,2.481.993,1.059,1.059,0,0,1,.7.734l1.059,4.088a1.614,1.614,0,0,0,1.575,1.187h7.549A1.614,1.614,0,0,0,39.74,58.24L40.8,54.152a1.059,1.059,0,0,1,.7-.734,22.152,22.152,0,0,0,2.481-.993,1.115,1.115,0,0,1,1.032.042l3.744,2.169a1.667,1.667,0,0,0,1.983-.236l5.338-5.154a1.527,1.527,0,0,0,.244-1.915l-2.246-3.614a1.013,1.013,0,0,1-.043-1,20.566,20.566,0,0,0,1.028-2.4,1.068,1.068,0,0,1,.76-.674l4.234-1.022a1.579,1.579,0,0,0,1.23-1.52V29.819a1.579,1.579,0,0,0-1.23-1.52l-4.234-1.022a1.068,1.068,0,0,1-.76-.674,20.566,20.566,0,0,0-1.028-2.4,1.013,1.013,0,0,1,.043-1L56.318,19.6a1.527,1.527,0,0,0-.244-1.915l-5.338-5.154a1.667,1.667,0,0,0-1.983-.236L45.01,14.461a1.115,1.115,0,0,1-1.032.042,22.152,22.152,0,0,0-2.481-.993,1.059,1.059,0,0,1-.7-.734L39.74,8.687A1.613,1.613,0,0,0,38.166,7.5H30.616a1.614,1.614,0,0,0-1.575,1.187l-1.059,4.088a1.059,1.059,0,0,1-.7.734A22.152,22.152,0,0,0,24.8,14.5a1.115,1.115,0,0,1-1.032-.042l-3.744-2.169a1.667,1.667,0,0,0-1.983.236l-.554.535" fill="none" stroke="#000" stroke-linecap="round" stroke-linejoin="round" stroke-miterlimit="10" stroke-width="1.5"/>
        <path id="Trazado_1030870" data-name="Trazado 1030870" d="M456.161,234.745a20.732,20.732,0,0,0,0-5.405" transform="translate(-399.78 -198.579)" fill="none" stroke="#000" stroke-linecap="round" stroke-linejoin="round" stroke-miterlimit="10" stroke-width="1.5"/>
        <path id="Trazado_1030871" data-name="Trazado 1030871" d="M378.673,382.495a20.589,20.589,0,0,0,3.823-3.823" transform="translate(-330.799 -332.297)" fill="none" stroke="#000" stroke-linecap="round" stroke-linejoin="round" stroke-miterlimit="10" stroke-width="1.5"/>
        <path id="Trazado_1030872" data-name="Trazado 1030872" d="M229.34,456.161a20.732,20.732,0,0,0,5.405,0" transform="translate(-197.652 -401.634)" fill="none" stroke="#000" stroke-linecap="round" stroke-linejoin="round" stroke-miterlimit="10" stroke-width="1.5"/>
        <path id="Trazado_1030873" data-name="Trazado 1030873" d="M95.62,378.672a20.59,20.59,0,0,0,3.823,3.823" transform="translate(-78.535 -332.297)" fill="none" stroke="#000" stroke-linecap="round" stroke-linejoin="round" stroke-miterlimit="10" stroke-width="1.5"/>
        <path id="Trazado_1030874" data-name="Trazado 1030874" d="M54.271,229.34a20.733,20.733,0,0,0,0,5.405" transform="translate(-41.871 -198.579)" fill="none" stroke="#000" stroke-linecap="round" stroke-linejoin="round" stroke-miterlimit="10" stroke-width="1.5"/>
        <path id="Trazado_1030875" data-name="Trazado 1030875" d="M99.442,95.62a20.59,20.59,0,0,0-3.823,3.823" transform="translate(-78.534 -78.891)" fill="none" stroke="#000" stroke-linecap="round" stroke-linejoin="round" stroke-miterlimit="10" stroke-width="1.5"/>
        <path id="Trazado_1030876" data-name="Trazado 1030876" d="M234.745,54.271a20.733,20.733,0,0,0-5.405,0" transform="translate(-197.652 -41.871)" fill="none" stroke="#000" stroke-linecap="round" stroke-linejoin="round" stroke-miterlimit="10" stroke-width="1.5"/>
        <path id="Trazado_1030877" data-name="Trazado 1030877" d="M382.495,99.443a20.59,20.59,0,0,0-3.823-3.823" transform="translate(-330.798 -78.891)" fill="none" stroke="#000" stroke-linecap="round" stroke-linejoin="round" stroke-miterlimit="10" stroke-width="1.5"/>
        <path id="Trazado_1030878" data-name="Trazado 1030878" d="M161.857,134.954h-3.969a1.52,1.52,0,0,1-1.365-.85l-.739-1.5a1.52,1.52,0,0,0-1.365-.85H148.8a1.521,1.521,0,0,0-1.521,1.521V141.2" transform="translate(-124.267 -111.18)" fill="none" stroke="#000" stroke-linecap="round" stroke-linejoin="round" stroke-miterlimit="10" stroke-width="1.5"/>
        <path id="Trazado_1030879" data-name="Trazado 1030879" d="M329.982,169.588v-4.723a1.521,1.521,0,0,0-1.521-1.521h-2.4" transform="translate(-283.907 -139.493)" fill="none" stroke="#000" stroke-linecap="round" stroke-linejoin="round" stroke-miterlimit="10" stroke-width="1.5"/>
        <path id="Trazado_1030880" data-name="Trazado 1030880" d="M190.1,197.025v-2.642a.507.507,0,0,0-.507-.507H173.851a.507.507,0,0,0-.507.507v2.642" transform="translate(-147.332 -166.864)" fill="none" stroke="#000" stroke-linecap="round" stroke-linejoin="round" stroke-miterlimit="10" stroke-width="1.5"/>
        <path id="Trazado_1030881" data-name="Trazado 1030881" d="M203.961,327.571h-1.306a1.014,1.014,0,0,1-1.014-1.014v-7.419a1.014,1.014,0,0,1,1.014-1.014h8.994a1.014,1.014,0,0,1,1.014,1.014v7.419a1.014,1.014,0,0,1-1.014,1.014h-4.139" transform="translate(-172.761 -277.947)" fill="none" stroke="#000" stroke-linecap="round" stroke-linejoin="round" stroke-miterlimit="10" stroke-width="1.5"/>
        <path id="Trazado_1030882" data-name="Trazado 1030882" d="M231.236,262.3v-3.149A3.149,3.149,0,0,0,228.087,256h0a3.149,3.149,0,0,0-3.149,3.149V262.3" transform="translate(-193.696 -222.426)" fill="none" stroke="#000" stroke-linecap="round" stroke-linejoin="round" stroke-miterlimit="10" stroke-width="1.5"/>
        <line id="Línea_818" data-name="Línea 818" y2="3.149" transform="translate(34.391 43.271)" fill="none" stroke="#000" stroke-linecap="round" stroke-linejoin="round" stroke-miterlimit="10" stroke-width="1.5"/>
        <line id="Línea_819" data-name="Línea 819" x2="3.149" transform="translate(32.816 43.2)" fill="none" stroke="#000" stroke-linecap="round" stroke-linejoin="round" stroke-miterlimit="10" stroke-width="1.5"/>
        <path id="Trazado_1030883" data-name="Trazado 1030883" d="M148.252,240.682h5.385a1.654,1.654,0,0,0,1.71-1.369l1.436-12.7a1.6,1.6,0,0,0-1.71-1.672H129a1.6,1.6,0,0,0-1.708,1.687l1.585,12.7a1.657,1.657,0,0,0,1.708,1.354H135.8" transform="translate(-107.635 -194.412)" fill="none" stroke="#000" stroke-linecap="round" stroke-linejoin="round" stroke-miterlimit="10" stroke-width="1.5"/>
      </g>
      <g id="benefit_10872145" transform="translate(757.6 4009.517)">
        <g id="Grupo_1173836" data-name="Grupo 1173836" transform="translate(19.253 19.992)">
          <g id="Grupo_1173832" data-name="Grupo 1173832" transform="translate(69.956 53.795)">
            <path id="Trazado_1030884" data-name="Trazado 1030884" d="M313.825,310.632l4.263-16.005c.8-3,1.953-5.719,4.721-7.132,3.087-1.575,8.516-3.758,13.1-6.939a3.981,3.981,0,0,1,5.319,1.426c1.071,1.855.589,3.845-1.425,5.32l1.574-1.14a8.932,8.932,0,0,0,3.587-5.1l4.068-15.419c3.163-11.985,11.061-6.311,10.094-2.243l-6.794,28.57a9.17,9.17,0,0,1-4.51,5.991l-16.262,9.389-2.008,7.492a2.713,2.713,0,0,1-3.316,1.915l-10.493-2.812a2.713,2.713,0,0,1-1.915-3.312Z" transform="translate(-307.881 -258.436)" fill="#f6dccd" fill-rule="evenodd"/>
            <path id="Trazado_1030885" data-name="Trazado 1030885" d="M386.074,351.259c.517,1.6-.087,3.228-1.8,4.482-2.656,1.545-5.324,3.074-7.986,4.611a1.491,1.491,0,0,1-1.491-2.582Z" transform="translate(-352.354 -326.875)" fill="#f1cbbc" fill-rule="evenodd"/>
            <path id="Trazado_1030886" data-name="Trazado 1030886" d="M313.825,383.468l4.263-16.005c.8-3,1.953-5.719,4.721-7.132,1.651-.842,3.973-1.859,6.477-3.11l-8.3,30.966-5.249-1.406a2.713,2.713,0,0,1-1.916-3.313Z" transform="translate(-307.881 -331.271)" fill="#f1cbbc" fill-rule="evenodd"/>
            <path id="Trazado_1030887" data-name="Trazado 1030887" d="M295.21,440.91l22.238,6.164a2.035,2.035,0,0,1,1.413,2.5l-1.187,4.281a2.035,2.035,0,0,1-2.5,1.413L292.939,449.1a2.035,2.035,0,0,1-1.413-2.5l1.187-4.281A2.035,2.035,0,0,1,295.21,440.91Z" transform="translate(-291.453 -392.921)" fill="#d1d1d6" fill-rule="evenodd"/>
            <path id="Trazado_1030888" data-name="Trazado 1030888" d="M313.184,446.44l3.936,1.091,3.892,1.079a2.035,2.035,0,0,1,1.415,2.49l.424-1.529a2.034,2.034,0,0,0-1.413-2.5l-3.905-1.083-7.842-2.173-7.851-2.176-2.64-.732a2.037,2.037,0,0,0-2.335,1.007l4.571,1.267,7.842,2.174,3.905,1.083Z" transform="translate(-295.443 -392.922)" fill="#b1b1b5" fill-rule="evenodd"/>
          </g>
          <g id="Grupo_1173833" data-name="Grupo 1173833" transform="translate(0 53.789)">
            <path id="Trazado_1030889" data-name="Trazado 1030889" d="M70.527,310.606,66.265,294.6c-.8-3-1.953-5.719-4.721-7.132-3.087-1.575-8.516-3.758-13.1-6.939a3.981,3.981,0,0,0-5.319,1.426c-1.071,1.855-.589,3.845,1.425,5.32l-1.574-1.14a8.933,8.933,0,0,1-3.587-5.1l-4.068-15.419c-3.163-11.985-11.061-6.311-10.094-2.243l6.794,28.57a9.17,9.17,0,0,0,4.51,5.991L52.8,307.324l2.007,7.492a2.713,2.713,0,0,0,3.316,1.914l10.493-2.812a2.713,2.713,0,0,0,1.916-3.312Z" transform="translate(-25.147 -258.41)" fill="#f6dccd" fill-rule="evenodd"/>
            <path id="Trazado_1030890" data-name="Trazado 1030890" d="M91.659,351.233c-.517,1.6.087,3.228,1.8,4.482,2.656,1.545,5.324,3.074,7.986,4.611a1.49,1.49,0,1,0,1.491-2.581Z" transform="translate(-74.055 -326.849)" fill="#f1cbbc" fill-rule="evenodd"/>
            <path id="Trazado_1030891" data-name="Trazado 1030891" d="M154.5,383.442l-4.263-16.005c-.8-3-1.953-5.719-4.721-7.132-1.651-.842-3.973-1.859-6.477-3.11l8.3,30.965,5.249-1.406A2.713,2.713,0,0,0,154.5,383.442Z" transform="translate(-109.122 -331.245)" fill="#f1cbbc" fill-rule="evenodd"/>
            <path id="Trazado_1030892" data-name="Trazado 1030892" d="M139.635,440.884,117.4,447.048a2.035,2.035,0,0,0-1.413,2.5l1.187,4.281a2.035,2.035,0,0,0,2.5,1.413l22.238-6.164a2.035,2.035,0,0,0,1.413-2.5l-1.187-4.281A2.035,2.035,0,0,0,139.635,440.884Z" transform="translate(-92.068 -392.896)" fill="#d1d1d6" fill-rule="evenodd"/>
            <path id="Trazado_1030893" data-name="Trazado 1030893" d="M125.65,446.414l-3.936,1.091-3.892,1.079a2.035,2.035,0,0,0-1.415,2.49l-.424-1.529a2.035,2.035,0,0,1,1.413-2.5l3.906-1.083,7.842-2.173,7.851-2.176,2.64-.732a2.037,2.037,0,0,1,2.335,1.007l-4.571,1.267-7.842,2.174-3.905,1.083Z" transform="translate(-92.067 -392.896)" fill="#b1b1b5" fill-rule="evenodd"/>
          </g>
          <g id="Grupo_1173834" data-name="Grupo 1173834" transform="translate(25.747)">
            <path id="Trazado_1030894" data-name="Trazado 1030894" d="M165,59.432a29.779,29.779,0,0,1,8.719,3.615l5.666-2.517,6.678,6.678-2.516,5.664a29.781,29.781,0,0,1,3.616,8.722l5.781,2.225v9.444l-5.782,2.226a29.779,29.779,0,0,1-3.615,8.719l2.517,5.666-6.678,6.679-5.664-2.516A29.773,29.773,0,0,1,165,117.653l-2.225,5.781h-9.444l-2.226-5.782a29.782,29.782,0,0,1-8.719-3.615l-5.666,2.517-6.678-6.678,2.516-5.664a29.781,29.781,0,0,1-3.616-8.722l-5.781-2.225V83.82l5.782-2.226a29.781,29.781,0,0,1,3.615-8.72l-2.516-5.665,6.678-6.678,5.666,2.517a29.785,29.785,0,0,1,8.719-3.615l2.226-5.782h9.444Z" transform="translate(-123.162 -53.65)" fill="#ffe177" fill-rule="evenodd"/>
            <path id="Trazado_1030895" data-name="Trazado 1030895" d="M178,114.036l-5.666,2.517-.872-.872,5.312-2.359Q177.375,113.693,178,114.036Zm22.615-54.6a29.779,29.779,0,0,1,8.719,3.615l-1.611.715a39.282,39.282,0,0,0-9.946-4.33l-2.226-5.782h2.837Zm8.722,54.605a29.773,29.773,0,0,1-8.722,3.615l-2.225,5.781h-2.837l2.225-5.781a39.269,39.269,0,0,0,9.948-4.331ZM171.457,61.4l.872-.872L178,63.046q-.621.343-1.226.715Zm41.575,0L215,60.53l6.678,6.678-2.516,5.664a29.781,29.781,0,0,1,3.616,8.722l5.781,2.225v9.444l-5.782,2.226a29.78,29.78,0,0,1-3.615,8.719l2.517,5.666L215,116.552l-1.964-.872,5.805-5.806-2.517-5.666a29.785,29.785,0,0,0,3.615-8.719l5.782-2.226V83.819l-5.781-2.225a29.771,29.771,0,0,0-3.616-8.722l2.516-5.664Z" transform="translate(-158.77 -53.649)" fill="#ffd064" fill-rule="evenodd"/>
            <circle id="Elipse_11868" data-name="Elipse 11868" cx="23.512" cy="23.512" r="23.512" transform="translate(4.939 20.498) rotate(-19.322)" fill="#eceff1"/>
            <path id="Trazado_1030896" data-name="Trazado 1030896" d="M190,96.969a23.512,23.512,0,0,0,0,47.024c.476,0,.948-.016,1.417-.044a23.511,23.511,0,0,1,0-46.937c-.469-.028-.941-.044-1.417-.044Z" transform="translate(-155.104 -85.589)" fill="#d1d1d6" fill-rule="evenodd"/>
          </g>
          <g id="Grupo_1173835" data-name="Grupo 1173835" transform="translate(45.924 24.135)">
            <path id="Trazado_1030897" data-name="Trazado 1030897" d="M201.3,194.368h3.588a1.33,1.33,0,0,1,1.327,1.327v4.521a1.33,1.33,0,0,1-1.327,1.327H201.3a1.33,1.33,0,0,1-1.327-1.327V195.7A1.33,1.33,0,0,1,201.3,194.368Z" transform="translate(-199.97 -181.537)" fill="#fe646f" fill-rule="evenodd"/>
            <path id="Trazado_1030898" data-name="Trazado 1030898" d="M211.392,194.368h1.915a1.33,1.33,0,0,1,1.327,1.327v4.521a1.33,1.33,0,0,1-1.327,1.327h-1.915a1.33,1.33,0,0,0,1.327-1.327V195.7A1.33,1.33,0,0,0,211.392,194.368Z" transform="translate(-208.392 -181.537)" fill="#fd4755" fill-rule="evenodd"/>
            <path id="Trazado_1030899" data-name="Trazado 1030899" d="M245.434,170.476h3.588a1.33,1.33,0,0,1,1.327,1.327v10.8a1.33,1.33,0,0,1-1.327,1.327h-3.588a1.33,1.33,0,0,1-1.327-1.327V171.8A1.33,1.33,0,0,1,245.434,170.476Z" transform="translate(-232.513 -163.922)" fill="#6cf5c2" fill-rule="evenodd"/>
            <path id="Trazado_1030900" data-name="Trazado 1030900" d="M255.529,170.476h1.915a1.33,1.33,0,0,1,1.327,1.327v10.8a1.33,1.33,0,0,1-1.327,1.327h-1.915a1.33,1.33,0,0,0,1.327-1.327V171.8A1.33,1.33,0,0,0,255.529,170.476Z" transform="translate(-240.934 -163.922)" fill="#00e499" fill-rule="evenodd"/>
            <path id="Trazado_1030901" data-name="Trazado 1030901" d="M289.572,145.525h3.588a1.33,1.33,0,0,1,1.327,1.327V164.2a1.33,1.33,0,0,1-1.327,1.327h-3.588a1.33,1.33,0,0,1-1.327-1.327V146.852A1.33,1.33,0,0,1,289.572,145.525Z" transform="translate(-265.056 -145.525)" fill="#8ac9fe" fill-rule="evenodd"/>
            <path id="Trazado_1030902" data-name="Trazado 1030902" d="M299.666,145.525h1.915a1.33,1.33,0,0,1,1.327,1.327V164.2a1.33,1.33,0,0,1-1.327,1.327h-1.915a1.33,1.33,0,0,0,1.327-1.327V146.852A1.33,1.33,0,0,0,299.666,145.525Z" transform="translate(-273.477 -145.525)" fill="#60b7ff" fill-rule="evenodd"/>
          </g>
        </g>
        <path id="Trazado_1030903" data-name="Trazado 1030903" d="M92.51,46.232H90.469v15.8H92.51Zm2.1-4.2a2.1,2.1,0,0,1,2.1,2.1V64.137a2.1,2.1,0,0,1-2.1,2.1H88.368a2.1,2.1,0,0,1-2.1-2.1V44.13a2.1,2.1,0,0,1,2.1-2.1ZM80.916,52.786h-2.04v9.249h2.04Zm4.2-2.1V64.137a2.1,2.1,0,0,1-2.1,2.1H76.774a2.1,2.1,0,0,1-2.1-2.1V50.684a2.1,2.1,0,0,1,2.1-2.1h6.243A2.1,2.1,0,0,1,85.119,50.684Zm-15.8,8.377h-2.04v2.974h2.04Zm4.2-2.1v7.177a2.1,2.1,0,0,1-2.1,2.1H65.18a2.1,2.1,0,0,1-2.1-2.1V56.96a2.1,2.1,0,0,1,2.1-2.1h6.243A2.1,2.1,0,0,1,73.525,56.96ZM68.355,52.8a2.1,2.1,0,0,1-1.291-3.759l10.03-7.807a2.1,2.1,0,0,1,1.2-3.825h0l4.427.008a2.1,2.1,0,0,1,2.034,2.614l-1.081,4.292a2.1,2.1,0,0,1-2.035,1.589,2.046,2.046,0,0,1-.514-.063,2.093,2.093,0,0,1-1.454-1.3l-10.03,7.8A2.09,2.09,0,0,1,68.355,52.8Zm-3.749,72.65a1.38,1.38,0,1,0,1.931.281,1.379,1.379,0,0,0-1.931-.281Zm3.855,2.5-22.1,6.126-1.149-4.143L48.588,129h0s0,0,0,0l18.72-5.188Zm-18.934-3.572,11.647-3.229L58.342,110.52c-.731-2.738-1.63-4.77-3.646-5.8-.772-.394-1.7-.827-2.763-1.327a72.493,72.493,0,0,1-10.441-5.664,1.862,1.862,0,0,0-2.437.657c-.206.357-.747,1.3.681,2.443,1.686,1.108,3.41,2.067,5.233,3.081.884.491,1.8,1,2.728,1.534a2.1,2.1,0,0,1-2.1,3.641c-.9-.52-1.8-1.019-2.666-1.5-1.926-1.069-3.746-2.081-5.6-3.3l-.033-.024-.037-.023-1.406-1.014a10.968,10.968,0,0,1-4.391-6.268L27.4,81.532c-1-3.8-2.677-5.992-4.268-5.59a2.378,2.378,0,0,0-1.75,2.325l6.794,28.57a7.032,7.032,0,0,0,3.516,4.657l16.262,9.389a2.106,2.106,0,0,1,.979,1.276Zm23,2.519a4.134,4.134,0,0,1-2.877,5.084l-22.237,6.165a4.133,4.133,0,0,1-5.084-2.877l-1.186-4.282a4.136,4.136,0,0,1,2.877-5.083l1.453-.4-.378-1.413-15.508-8.955a11.317,11.317,0,0,1-5.5-7.324L17.293,79.241a6.454,6.454,0,0,1,4.815-7.376c1.56-.391,6.841-.927,9.355,8.6l4.068,15.418.041.15a6.115,6.115,0,0,1,7.938-1.991,1.971,1.971,0,0,1,.242.147,68.2,68.2,0,0,0,9.965,5.4c1.057.5,2.055.964,2.89,1.39,3.61,1.842,4.957,5.312,5.8,8.462l2.823,10.589,1.036-.286a4.134,4.134,0,0,1,5.083,2.877Zm22.654-1.442a1.38,1.38,0,1,0,.282,1.93,1.382,1.382,0,0,0-.282-1.93ZM136.66,75.942c-1.591-.4-3.265,1.794-4.268,5.59l-4.067,15.42a10.983,10.983,0,0,1-4.387,6.265l-1.411,1.017-.037.023a.308.308,0,0,1-.033.024c-1.847,1.222-3.667,2.233-5.594,3.3-.869.483-1.768.982-2.666,1.5a2.1,2.1,0,0,1-2.1-3.641c.927-.536,1.842-1.043,2.728-1.534,1.823-1.014,3.546-1.973,5.233-3.081,1.426-1.146.888-2.086.68-2.443a1.863,1.863,0,0,0-2.438-.657,72.359,72.359,0,0,1-10.439,5.664c-1.068.5-1.991.933-2.762,1.327-2.018,1.03-2.917,3.063-3.646,5.8l-2.835,10.628,11.65,3.229.593-2.217a2.1,2.1,0,0,1,.981-1.276l16.261-9.389a7.033,7.033,0,0,0,3.518-4.657l6.793-28.57a2.377,2.377,0,0,0-1.749-2.326Zm-22.084,53.991-1.147,4.143-22.1-6.126,1.147-4.14L111.2,129s0,0,0,0h0ZM142.5,79.241,135.7,107.809a11.316,11.316,0,0,1-5.5,7.324l-15.508,8.955-.38,1.413,1.455.4a4.139,4.139,0,0,1,2.876,5.083l-1.187,4.282a4.141,4.141,0,0,1-3.983,3.026,4.088,4.088,0,0,1-1.1-.15l-22.239-6.165a4.133,4.133,0,0,1-2.876-5.084l1.186-4.279a4.133,4.133,0,0,1,5.083-2.877l1.037.286,2.822-10.589c.841-3.15,2.185-6.62,5.8-8.462.832-.426,1.83-.893,2.89-1.39a68.227,68.227,0,0,0,9.963-5.4,1.856,1.856,0,0,1,.245-.147,6.113,6.113,0,0,1,7.936,1.991c.014-.05.028-.1.042-.15l4.067-15.418c2.514-9.523,7.8-8.986,9.354-8.6a6.453,6.453,0,0,1,4.816,7.376Zm-41.18-24.357A21.422,21.422,0,1,1,79.9,33.463a21.445,21.445,0,0,1,21.421,21.422Zm4.2,0A25.625,25.625,0,1,1,79.9,29.26a25.655,25.655,0,0,1,25.625,25.625Zm7.165-3.278v6.559l-4.436,1.707a2.091,2.091,0,0,0-1.29,1.474,27.561,27.561,0,0,1-3.36,8.1,2.1,2.1,0,0,0-.132,1.954l1.931,4.348-4.637,4.639-4.345-1.931a2.1,2.1,0,0,0-1.957.131,27.55,27.55,0,0,1-8.1,3.36,2.106,2.106,0,0,0-1.475,1.29l-1.706,4.434H76.617L74.91,83.239a2.1,2.1,0,0,0-1.475-1.287,27.688,27.688,0,0,1-8.1-3.36,2.1,2.1,0,0,0-1.955-.131l-4.347,1.931-4.638-4.639,1.93-4.345a2.1,2.1,0,0,0-.131-1.955,27.645,27.645,0,0,1-3.361-8.107,2.1,2.1,0,0,0-1.29-1.477l-4.434-1.7V51.607L51.54,49.9a2.1,2.1,0,0,0,1.29-1.474,27.679,27.679,0,0,1,3.361-8.106,2.1,2.1,0,0,0,.131-1.954l-1.93-4.348,4.638-4.636,4.346,1.931a2.106,2.106,0,0,0,1.956-.131,27.636,27.636,0,0,1,8.1-3.36,2.105,2.105,0,0,0,1.475-1.29L76.617,22.1h6.558l1.706,4.434a2.1,2.1,0,0,0,1.475,1.29,27.627,27.627,0,0,1,8.1,3.36,2.1,2.1,0,0,0,1.955.131l4.347-1.931,4.637,4.636-1.929,4.348a2.091,2.091,0,0,0,.131,1.954,27.653,27.653,0,0,1,3.361,8.106,2.1,2.1,0,0,0,1.29,1.474Zm-1.914-5.241,4.77,1.836a2.1,2.1,0,0,1,1.348,1.962v9.443a2.1,2.1,0,0,1-1.348,1.96l-4.77,1.839a31.852,31.852,0,0,1-3.022,7.284l2.078,4.676a2.1,2.1,0,0,1-.437,2.338l-6.677,6.677a2.1,2.1,0,0,1-2.339.436L95.7,82.743a31.913,31.913,0,0,1-7.286,3.021l-1.836,4.768a2.1,2.1,0,0,1-1.961,1.348H75.174a2.1,2.1,0,0,1-1.961-1.348l-1.838-4.77a31.824,31.824,0,0,1-7.284-3.021l-4.676,2.078a2.1,2.1,0,0,1-2.339-.436L50.4,77.7a2.1,2.1,0,0,1-.435-2.338l2.076-4.673A31.8,31.8,0,0,1,49.018,63.4L44.249,61.57A2.1,2.1,0,0,1,42.9,59.608V50.164A2.1,2.1,0,0,1,44.249,48.2l4.77-1.836a31.811,31.811,0,0,1,3.021-7.284l-2.077-4.676a2.1,2.1,0,0,1,.435-2.338l6.678-6.68a2.1,2.1,0,0,1,2.339-.434l4.675,2.075a31.837,31.837,0,0,1,7.285-3.018l1.838-4.773a2.1,2.1,0,0,1,1.961-1.345h9.444a2.1,2.1,0,0,1,1.961,1.345l1.836,4.773A31.858,31.858,0,0,1,95.7,27.029l4.674-2.075a2.1,2.1,0,0,1,2.341.434l6.677,6.677a2.108,2.108,0,0,1,.437,2.341l-2.078,4.674a31.715,31.715,0,0,1,3.022,7.287Zm16.007,8.519A46.878,46.878,0,0,1,53.622,93.713l.492,1.731a2.1,2.1,0,1,1-4.041,1.151l-2.266-7.944a2.1,2.1,0,0,1,1.945-2.677l8.257-.3a2.1,2.1,0,0,1,.151,4.2l-2.569.092A42.687,42.687,0,0,0,116.8,33.431a2.1,2.1,0,0,1,3.634-2.117,46.855,46.855,0,0,1,6.346,23.571ZM39.665,78.974a46.888,46.888,0,0,1,66.5-62.92l-.493-1.726a2.1,2.1,0,1,1,4.043-1.152l2.266,7.946A2.1,2.1,0,0,1,110.04,23.8l-8.257.3h-.075a2.1,2.1,0,0,1-.074-4.2l2.572-.095A42.687,42.687,0,0,0,43.271,76.812a2.1,2.1,0,1,1-3.605,2.162Z" transform="translate(0)" fill="#242222" fill-rule="evenodd"/>
      </g>
      <path id="green-technology_18378385" d="M69.343,40.729l-3.371-.474h0a.756.756,0,0,1-.652-.773l.146-4.259-4.721,7.445,3.962.362a.756.756,0,0,1,.7.775l-.12,4.182,4.055-7.257Zm-2.489-1.879,3.791.533a.757.757,0,0,1,.538,1.151L65.105,51.413A.756.756,0,0,1,63.69,51l.187-6.531-4.5-.411A.756.756,0,0,1,58.8,42.9h0L65.677,32.06a.758.758,0,0,1,1.393.488l-.216,6.3Zm-3.61,14.577a11.8,11.8,0,0,1,1.519-23.47v0l.012,0a11.8,11.8,0,0,1,12.016,11.57h0l0,.012a11.758,11.758,0,0,1-1.712,6.342l-.367.108C70.7,49.174,66.5,50.412,63.245,53.427ZM87.636,40.218h0a.756.756,0,0,0-1.383.062c-1.583,4.068-5.113,5.7-9.135,6.981A13.23,13.23,0,0,0,78.3,41.527h0l0-.012a13.31,13.31,0,0,0-13.539-13.07v0l-.012,0A13.315,13.315,0,0,0,62,54.732a17.262,17.262,0,0,0-3.248,6.058q-.926-.3-1.81-.692a19.987,19.987,0,0,1-2.395-1.252.757.757,0,0,0-.952.135L51.98,60.651h0c-.014.014-.027.028-.04.043a1.543,1.543,0,0,1-2.133.017h0c-.016-.016-.033-.032-.05-.046l-3.131-3.019h0c-.014-.014-.028-.027-.043-.04a1.543,1.543,0,0,1-.017-2.133h0c.016-.016.032-.033.046-.05l1.6-1.656a.757.757,0,0,0,.086-.942,19.927,19.927,0,0,1-2.778-6.368.756.756,0,0,0-.747-.581l-2.353.043a1.548,1.548,0,0,1-1.569-1.509L40.77,39.99a1.548,1.548,0,0,1,1.509-1.569l2.353-.043a.756.756,0,0,0,.733-.626,19.98,19.98,0,0,1,2.54-6.446.757.757,0,0,0-.135-.952L46.1,28.743h0c-.014-.014-.028-.027-.043-.04a1.543,1.543,0,0,1-.017-2.133h0c.016-.016.032-.033.046-.05l3.019-3.131h0c.014-.014.027-.028.04-.043a1.543,1.543,0,0,1,2.133-.017h0c.016.016.033.032.05.046l1.656,1.6a.757.757,0,0,0,.942.086,19.923,19.923,0,0,1,6.368-2.778.756.756,0,0,0,.581-.747l-.043-2.353a1.548,1.548,0,0,1,1.509-1.569l4.417-.081a1.548,1.548,0,0,1,1.569,1.509l.043,2.353a.756.756,0,0,0,.626.733,19.983,19.983,0,0,1,6.446,2.54.757.757,0,0,0,.952-.135l1.611-1.671h0q.021-.021.04-.043A1.543,1.543,0,0,1,80.18,22.8h0c.016.016.033.032.05.046l3.142,3.029a1.543,1.543,0,0,1,.038,2.175l-1.634,1.695a.757.757,0,0,0-.086.942,19.927,19.927,0,0,1,2.778,6.368.756.756,0,0,0,.747.581l2.353-.043A1.548,1.548,0,0,1,89.135,39.1l.081,4.417a1.531,1.531,0,0,1-.024.3,35.694,35.694,0,0,0-1.556-3.6ZM58.545,69.855a29.813,29.813,0,0,0-1.929,2.792.757.757,0,1,1-1.292-.788,31.283,31.283,0,0,1,2.11-3.041,33.725,33.725,0,0,1,.9-6.569,21.4,21.4,0,0,1-4.059-1.8l-1.228,1.273h0l-.036.034a3.06,3.06,0,0,1-4.269.034l-.011-.01h0l-.028-.03c-1.05-1.012-2.109-2.019-3.151-3.038h0l-.034-.036a3.06,3.06,0,0,1-.034-4.269l.01-.011h0l.03-.028,1.18-1.224a21.4,21.4,0,0,1-2.5-5.75l-1.757.032a3.055,3.055,0,0,1-3.1-3l-.081-4.417a3.055,3.055,0,0,1,3-3.1l1.753-.032A21.328,21.328,0,0,1,46.3,31.041l-1.273-1.228h0l-.034-.036a3.06,3.06,0,0,1-.034-4.269l.01-.011h0L45,25.47l3.038-3.151h0l.036-.034a3.06,3.06,0,0,1,4.269-.034l.011.01h0l.028.03,1.224,1.18a21.4,21.4,0,0,1,5.75-2.5l-.032-1.757a3.055,3.055,0,0,1,3-3.1l4.417-.081a3.055,3.055,0,0,1,3.1,3l.032,1.753a21.327,21.327,0,0,1,5.838,2.294l1.228-1.273h0l.036-.034a3.06,3.06,0,0,1,4.269-.034l.011.01h0l.028.03,3.14,3.028A3.06,3.06,0,0,1,84.5,29.1l-1.219,1.264a21.4,21.4,0,0,1,2.5,5.751l1.757-.032a3.055,3.055,0,0,1,3.1,3l.081,4.417a3.021,3.021,0,0,1-.347,1.463,3.085,3.085,0,0,1-.564.761,20.009,20.009,0,0,1,.758,8.315,14.944,14.944,0,0,1-3.343,7.6,20.206,20.206,0,0,1-6.675,5.109c-6.26,3.105-14.527,4.058-22.01,3.111Zm15.27-12.432a39.76,39.76,0,0,0-10.838,5.893,32.683,32.683,0,0,0-3.885,3.561C60.4,53.789,68.067,51.527,75.14,49.441c4.821-1.422,9.385-2.768,11.816-7.112,1.97,4.44,2.565,8.263,2.118,11.507a13.443,13.443,0,0,1-3.012,6.834,18.7,18.7,0,0,1-6.177,4.717c-5.727,2.841-13.238,3.8-20.189,3.077a30.97,30.97,0,0,1,4.211-3.957,38.257,38.257,0,0,1,10.429-5.662.757.757,0,0,0-.521-1.422Z" transform="translate(904.749 4039.296)" fill-rule="evenodd"/>
    </g>
  </g>
</svg>
