<svg xmlns="http://www.w3.org/2000/svg" xmlns:xlink="http://www.w3.org/1999/xlink" width="108" height="108" viewBox="0 0 108 108">
  <defs>
    <filter id="Trazado_904820" x="0" y="0" width="108" height="108" filterUnits="userSpaceOnUse">
      <feOffset dy="3" input="SourceAlpha"/>
      <feGaussianBlur stdDeviation="3" result="blur"/>
      <feFlood flood-opacity="0.161"/>
      <feComposite operator="in" in2="blur"/>
      <feComposite in="SourceGraphic"/>
    </filter>
  </defs>
  <g id="Grupo_1173825" data-name="Grupo 1173825" transform="translate(-200 -314)">
    <g id="Grupo_1173707" data-name="Grupo 1173707" transform="translate(209 320)">
      <g id="Grupo_1173428" data-name="Grupo 1173428" transform="translate(0 0)">
        <g id="Grupo_1171958" data-name="Grupo 1171958">
          <g id="Grupo_1167341" data-name="Grupo 1167341">
            <g id="Grupo_1166792" data-name="Grupo 1166792">
              <g transform="matrix(1, 0, 0, 1, -9, -6)" filter="url(#Trazado_904820)">
                <g id="Trazado_904820-2" data-name="Trazado 904820" transform="translate(9 6)" fill="#e9f9fd">
                  <path d="M 44.99999618530273 88.49999237060547 C 39.12687301635742 88.49999237060547 33.43022155761719 87.35006713867188 28.06829643249512 85.08216857910156 C 22.88852119445801 82.89130401611328 18.23629570007324 79.75457763671875 14.24084663391113 75.75914001464844 C 10.24540901184082 71.76369476318359 7.108683586120605 67.11146545410156 4.917821407318115 61.93169403076172 C 2.649921178817749 56.56976699829102 1.499996185302734 50.87311553955078 1.499996185302734 44.99999237060547 C 1.499996185302734 39.12686920166016 2.649921178817749 33.43021774291992 4.917821407318115 28.06829261779785 C 7.108683586120605 22.88851737976074 10.24540901184082 18.23630523681641 14.24084663391113 14.24085521697998 C 18.23629570007324 10.24540519714355 22.88852119445801 7.108692169189453 28.06829643249512 4.917829990386963 C 33.43022155761719 2.649929761886597 39.12687301635742 1.500004887580872 44.99999618530273 1.500004887580872 C 50.87311935424805 1.500004887580872 56.56977081298828 2.649929761886597 61.93169784545898 4.917829990386963 C 67.11147308349609 7.108692169189453 71.76369476318359 10.24540519714355 75.75914764404297 14.24085521697998 C 79.75458526611328 18.23630523681641 82.89131164550781 22.88851737976074 85.08216857910156 28.06829261779785 C 87.35007476806641 33.43021774291992 88.5 39.12686920166016 88.5 44.99999237060547 C 88.5 50.87311553955078 87.35007476806641 56.56976699829102 85.08216857910156 61.93169403076172 C 82.89131164550781 67.11146545410156 79.75458526611328 71.76369476318359 75.75914764404297 75.75914001464844 C 71.76369476318359 79.75457763671875 67.11147308349609 82.89130401611328 61.93169784545898 85.08216857910156 C 56.56977081298828 87.35006713867188 50.87311935424805 88.49999237060547 44.99999618530273 88.49999237060547 Z" stroke="none"/>
                  <path d="M 44.99999618530273 2.999992370605469 C 39.32870864868164 2.999992370605469 33.82865142822266 4.11004638671875 28.65262603759766 6.299331665039062 C 23.65165710449219 8.414566040039062 19.15968322753906 11.44333648681641 15.301513671875 15.30150604248047 C 11.44333648681641 19.15967559814453 8.414566040039062 23.65164947509766 6.299339294433594 28.65262222290039 C 4.110054016113281 33.82864761352539 2.999992370605469 39.32870483398438 2.999992370605469 44.99999237060547 C 2.999992370605469 50.67127990722656 4.110054016113281 56.17132186889648 6.299339294433594 61.34736633300781 C 8.414566040039062 66.34833526611328 11.44333648681641 70.84029388427734 15.301513671875 74.69846343994141 C 19.15968322753906 78.55663299560547 23.65165710449219 81.58540344238281 28.65262603759766 83.70063781738281 C 33.82865142822266 85.88992309570312 39.32870864868164 86.99997711181641 44.99999618530273 86.99997711181641 C 50.67128372192383 86.99997711181641 56.17134094238281 85.88992309570312 61.34736633300781 83.70063781738281 C 66.34834289550781 81.58540344238281 70.84030914306641 78.55663299560547 74.69847869873047 74.69846343994141 C 78.55665588378906 70.84029388427734 81.58542633056641 66.34833526611328 83.70065307617188 61.34736633300781 C 85.88993835449219 56.17132186889648 87 50.67127990722656 87 44.99999237060547 C 87 39.32870483398438 85.88993835449219 33.82864761352539 83.70065307617188 28.65262222290039 C 81.58542633056641 23.65164947509766 78.55665588378906 19.15967559814453 74.69847869873047 15.30150604248047 C 70.84030914306641 11.44333648681641 66.34834289550781 8.414566040039062 61.34736633300781 6.299331665039062 C 56.17134094238281 4.11004638671875 50.67128372192383 2.999992370605469 44.99999618530273 2.999992370605469 M 44.99999618530273 -7.62939453125e-06 C 69.85281372070312 -7.62939453125e-06 90 20.14717864990234 90 44.99999237060547 C 90 69.85279083251953 69.85281372070312 89.99997711181641 44.99999618530273 89.99997711181641 C 20.14717864990234 89.99997711181641 -7.62939453125e-06 69.85279083251953 -7.62939453125e-06 44.99999237060547 C -7.62939453125e-06 20.14717864990234 20.14717864990234 -7.62939453125e-06 44.99999618530273 -7.62939453125e-06 Z" stroke="none" fill="#36ceef"/>
                </g>
              </g>
            </g>
          </g>
        </g>
      </g>
    </g>
    <g id="task-planning_15545611" transform="translate(205 316)">
      <path id="Trazado_1030844" data-name="Trazado 1030844" d="M59.413,59.879H49.955l0-2.82a.936.936,0,0,0-1.678-.571,1.588,1.588,0,0,1-1.271.629h0a1.6,1.6,0,1,1,0-3.2h0a1.588,1.588,0,0,1,1.272.635.935.935,0,0,0,1.679-.563l.008-3.459,1.636,0A3.474,3.474,0,0,0,54.9,55.094h.008a3.469,3.469,0,0,0,3.47-3.463,3.52,3.52,0,0,0-.168-1.081l1.941,0v8.589a.737.737,0,0,1-.736.736Zm-21.562-.736a.737.737,0,0,0,.736.736h9.5V58.82A3.547,3.547,0,0,1,47,58.988a3.47,3.47,0,1,1,.007-6.939h.008a3.472,3.472,0,0,1,1.081.174l0-1.694-3.371-.008a.935.935,0,0,1-.591-1.659,1.6,1.6,0,0,0-1.007-2.836h0a1.6,1.6,0,0,0-1.017,2.832.935.935,0,0,1-.6,1.657h0l-3.667-.008v8.638Zm.736-21.023h9.545l-.009,4.009a.935.935,0,0,0,1.656.6,1.593,1.593,0,0,1,1.233-.583h0a1.6,1.6,0,1,1,0,3.2h0a1.6,1.6,0,0,1-1.236-.587.935.935,0,0,0-1.659.589l-.006,3.314-1.662,0a3.47,3.47,0,0,0-3.307-4.5h-.007a3.472,3.472,0,0,0-3.319,4.485l-1.963,0V38.857a.737.737,0,0,1,.736-.736Zm21.562.736a.737.737,0,0,0-.736-.736H50L50,40.425a3.684,3.684,0,0,1,1.024-.151,3.469,3.469,0,0,1-.008,6.938h-.007a3.444,3.444,0,0,1-1.023-.155l0,1.6,3.4.007a.935.935,0,0,1,.563,1.681,1.6,1.6,0,0,0,.963,2.874h0a1.6,1.6,0,0,0,.97-2.87.935.935,0,0,1,.569-1.677h0l3.7.008V38.857Zm-.736-2.607H38.587a2.609,2.609,0,0,0-2.607,2.607V59.143a2.609,2.609,0,0,0,2.606,2.607H59.413a2.609,2.609,0,0,0,2.606-2.606V38.857a2.609,2.609,0,0,0-2.607-2.607ZM49,67.32A18.32,18.32,0,1,0,30.68,49,18.34,18.34,0,0,0,49,67.32Zm0-38.51A20.19,20.19,0,1,0,69.19,49,20.213,20.213,0,0,0,49,28.81ZM80.13,51.466V46.539a.862.862,0,0,0-.621-.847L75.571,44.45a.931.931,0,0,1-.636-.707A26.214,26.214,0,0,0,71.065,34.4a.937.937,0,0,1-.052-.947l1.9-3.682a.864.864,0,0,0-.16-1.037l-3.484-3.483a.862.862,0,0,0-1.038-.16L64.569,27a.933.933,0,0,1-.95-.051,26.178,26.178,0,0,0-9.344-3.876.936.936,0,0,1-.705-.633l-1.257-3.948a.863.863,0,0,0-.846-.619H46.539a.862.862,0,0,0-.847.621L44.45,22.43a.933.933,0,0,1-.707.636A26.2,26.2,0,0,0,34.4,26.937a.934.934,0,0,1-.946.051l-3.684-1.9a.866.866,0,0,0-1.037.16l-3.483,3.484a.864.864,0,0,0-.16,1.039L27,33.431a.935.935,0,0,1-.051.95,26.2,26.2,0,0,0-3.877,9.344.932.932,0,0,1-.633.705L18.49,45.688a.863.863,0,0,0-.619.846v4.928a.865.865,0,0,0,.621.848l3.939,1.24a.931.931,0,0,1,.635.707,26.235,26.235,0,0,0,3.87,9.348.934.934,0,0,1,.052.946l-1.9,3.682a.862.862,0,0,0,.16,1.035l3.484,3.484a.863.863,0,0,0,1.038.16L33.431,71a.936.936,0,0,1,.95.051,26.2,26.2,0,0,0,9.344,3.876.937.937,0,0,1,.706.633l1.257,3.948a.863.863,0,0,0,.846.619h4.927a.862.862,0,0,0,.847-.621l1.241-3.937a.931.931,0,0,1,.707-.636A26.191,26.191,0,0,0,63.6,71.065a.937.937,0,0,1,.947-.052l3.682,1.9a.864.864,0,0,0,1.037-.16l3.483-3.484a.863.863,0,0,0,.16-1.038L71,64.569a.935.935,0,0,1,.051-.95,26.191,26.191,0,0,0,3.876-9.344.937.937,0,0,1,.633-.705l3.948-1.257a.863.863,0,0,0,.619-.846Zm-.06-7.559-3.416-1.076a28.047,28.047,0,0,0-3.729-9l1.654-3.2a2.75,2.75,0,0,0-.5-3.217l-3.485-3.484a2.746,2.746,0,0,0-3.225-.495l-3.18,1.656a28.029,28.029,0,0,0-9-3.734l-1.093-3.431A2.75,2.75,0,0,0,51.466,16H46.539a2.749,2.749,0,0,0-2.632,1.93l-1.075,3.418a28.022,28.022,0,0,0-9.005,3.729l-3.2-1.655a2.75,2.75,0,0,0-3.217.5l-3.484,3.484a2.746,2.746,0,0,0-.495,3.225l1.657,3.18a28.031,28.031,0,0,0-3.736,9l-3.43,1.091A2.75,2.75,0,0,0,16,46.534v4.928a2.749,2.749,0,0,0,1.93,2.632l3.416,1.075a28.034,28.034,0,0,0,3.729,9.005l-1.654,3.2a2.75,2.75,0,0,0,.5,3.217l3.484,3.484a2.746,2.746,0,0,0,3.225.5l3.18-1.657a28.064,28.064,0,0,0,9,3.735l1.093,3.43A2.748,2.748,0,0,0,46.534,82h4.928a2.749,2.749,0,0,0,2.632-1.931l1.076-3.416a28.05,28.05,0,0,0,9-3.728l3.2,1.654a2.748,2.748,0,0,0,3.217-.5l3.485-3.484a2.746,2.746,0,0,0,.5-3.225l-1.656-3.18a28.063,28.063,0,0,0,3.736-9l3.43-1.093A2.748,2.748,0,0,0,82,51.466V46.539a2.749,2.749,0,0,0-1.93-2.632Z" fill="#242222" fill-rule="evenodd"/>
      <path id="Trazado_1030845" data-name="Trazado 1030845" d="M174.916,177.611v9.779l1.963,0a3.472,3.472,0,0,1,3.319-4.485h.007a3.474,3.474,0,0,1,3.307,4.5l1.662,0,.006-3.314a.935.935,0,0,1,1.659-.589,1.6,1.6,0,0,0,1.236.587h0a1.6,1.6,0,1,0,0-3.2h0a1.593,1.593,0,0,0-1.233.583.935.935,0,0,1-1.656-.6l.009-4.01h-9.545a.737.737,0,0,0-.736.736Z" transform="translate(-137.065 -138.755)" fill="#fdc72e" fill-rule="evenodd"/>
      <path id="Trazado_1030846" data-name="Trazado 1030846" d="M266.606,180.053a3.468,3.468,0,0,1-2.458,5.916h-.007a3.445,3.445,0,0,1-1.023-.155l0,1.6,3.4.007a.935.935,0,0,1,.563,1.681,1.6,1.6,0,0,0,.963,2.874h0a1.6,1.6,0,0,0,.97-2.87.935.935,0,0,1,.569-1.677h0l3.7.008v-9.827a.737.737,0,0,0-.736-.736h-9.412l-.005,2.3a3.684,3.684,0,0,1,1.024-.151,3.446,3.446,0,0,1,2.451,1.023Z" transform="translate(-213.136 -138.756)" fill="#4eb1fc" fill-rule="evenodd"/>
      <path id="Trazado_1030847" data-name="Trazado 1030847" d="M241.838,270.7a3.445,3.445,0,0,1-2.447,1.01h-.008a3.474,3.474,0,0,1-3.288-4.559l-1.636,0-.008,3.459a.935.935,0,0,1-1.679.563,1.588,1.588,0,0,0-1.272-.635h0a1.6,1.6,0,1,0,0,3.2h0a1.588,1.588,0,0,0,1.271-.629.936.936,0,0,1,1.678.571l0,2.82H243.9a.737.737,0,0,0,.736-.736v-8.589l-1.941,0a3.52,3.52,0,0,1,.168,1.082,3.45,3.45,0,0,1-1.023,2.452Z" transform="translate(-184.484 -216.613)" fill="#96ff96" fill-rule="evenodd"/>
      <path id="Trazado_1030848" data-name="Trazado 1030848" d="M180.6,243.848a3.474,3.474,0,0,1,3.468-3.463h.008a3.472,3.472,0,0,1,1.081.174l0-1.694-3.371-.008a.935.935,0,0,1-.591-1.659,1.6,1.6,0,0,0-1.007-2.836h0a1.6,1.6,0,0,0-1.017,2.833.935.935,0,0,1-.6,1.657h0l-3.667-.008v8.638a.737.737,0,0,0,.736.736h9.5v-1.059a3.547,3.547,0,0,1-1.082.168A3.473,3.473,0,0,1,180.6,243.848Z" transform="translate(-137.061 -188.336)" fill="#fb545c" fill-rule="evenodd"/>
      <path id="Trazado_1030849" data-name="Trazado 1030849" d="M60.736,40.539a20.19,20.19,0,1,1-20.19,20.19A20.212,20.212,0,0,1,60.736,40.539Zm30.511,23.5a.863.863,0,0,0,.619-.846V58.267a.862.862,0,0,0-.621-.847l-3.938-1.241a.931.931,0,0,1-.636-.707A26.214,26.214,0,0,0,82.8,46.126a.937.937,0,0,1-.052-.947l1.9-3.682a.864.864,0,0,0-.16-1.037l-3.484-3.483a.862.862,0,0,0-1.038-.16L76.3,38.726a.933.933,0,0,1-.95-.051A26.177,26.177,0,0,0,66.01,34.8a.936.936,0,0,1-.705-.633l-1.257-3.948A.863.863,0,0,0,63.2,29.6H58.274a.862.862,0,0,0-.847.621l-1.241,3.939a.933.933,0,0,1-.707.636,26.2,26.2,0,0,0-9.346,3.871.934.934,0,0,1-.946.051l-3.684-1.9a.866.866,0,0,0-1.037.16l-3.483,3.484a.864.864,0,0,0-.16,1.039l1.909,3.663a.935.935,0,0,1-.051.95A26.2,26.2,0,0,0,34.8,55.454a.932.932,0,0,1-.633.705l-3.946,1.257a.863.863,0,0,0-.619.846V63.19a.865.865,0,0,0,.621.848l3.939,1.24a.931.931,0,0,1,.635.707,26.235,26.235,0,0,0,3.87,9.348.934.934,0,0,1,.052.946l-1.9,3.682A.862.862,0,0,0,36.98,81l3.484,3.484a.863.863,0,0,0,1.038.16l3.665-1.909a.936.936,0,0,1,.95.051,26.2,26.2,0,0,0,9.344,3.876.937.937,0,0,1,.706.633l1.257,3.948a.863.863,0,0,0,.846.619H63.2a.862.862,0,0,0,.847-.621L65.285,87.3a.931.931,0,0,1,.707-.636,26.191,26.191,0,0,0,9.346-3.871.937.937,0,0,1,.947-.052l3.682,1.9A.864.864,0,0,0,81,84.485L84.487,81a.863.863,0,0,0,.16-1.038L82.739,76.3a.935.935,0,0,1,.051-.95A26.191,26.191,0,0,0,86.665,66,.937.937,0,0,1,87.3,65.3Z" transform="translate(-11.736 -11.729)" fill="#a9d63a" fill-rule="evenodd"/>
    </g>
  </g>
</svg>
