<svg xmlns="http://www.w3.org/2000/svg" xmlns:xlink="http://www.w3.org/1999/xlink" width="106" height="106" viewBox="0 0 106 106">
  <defs>
    <filter id="Trazado_982547" x="0" y="0" width="106" height="106" filterUnits="userSpaceOnUse">
      <feOffset dy="3" input="SourceAlpha"/>
      <feGaussianBlur stdDeviation="3" result="blur"/>
      <feFlood flood-opacity="0.161"/>
      <feComposite operator="in" in2="blur"/>
      <feComposite in="SourceGraphic"/>
    </filter>
    <clipPath id="clip-path">
      <path id="path6177" d="M0-682.665H56.722v56.722H0Z" transform="translate(0 682.665)"/>
    </clipPath>
  </defs>
  <g id="Grupo_1173824" data-name="Grupo 1173824" transform="translate(-171 -4764)">
    <g id="Grupo_1173706" data-name="Grupo 1173706" transform="translate(0 520)">
      <g id="Grupo_1173435" data-name="Grupo 1173435" transform="translate(0 533)">
        <g id="Grupo_1172017" data-name="Grupo 1172017" transform="translate(0 2654)">
          <g id="Grupo_1167337" data-name="Grupo 1167337" transform="translate(180 1063)">
            <g id="Grupo_1166720" data-name="Grupo 1166720" transform="translate(0)">
              <g id="Grupo_1164305" data-name="Grupo 1164305">
                <g id="Grupo_1163948" data-name="Grupo 1163948">
                  <g id="Grupo_1158168" data-name="Grupo 1158168">
                    <g id="Grupo_1152576" data-name="Grupo 1152576">
                      <g id="Grupo_1148633" data-name="Grupo 1148633">
                        <g id="Grupo_1148525" data-name="Grupo 1148525">
                          <g transform="matrix(1, 0, 0, 1, -9, -6)" filter="url(#Trazado_982547)">
                            <g id="Trazado_982547-2" data-name="Trazado 982547" transform="translate(9 6)" fill="#e9f9fd">
                              <path d="M 44 86.5 C 38.26187515258789 86.5 32.69618606567383 85.37651062011719 27.45755004882812 83.16075897216797 C 22.3968505859375 81.020263671875 17.85157585144043 77.95565032958984 13.94796276092529 74.05204010009766 C 10.04434967041016 70.1484375 6.979737281799316 65.6031494140625 4.839250087738037 60.54246139526367 C 2.62348747253418 55.30381393432617 1.5 49.73812484741211 1.5 44 C 1.5 38.26187515258789 2.62348747253418 32.69618606567383 4.839250087738037 27.45755004882812 C 6.979737281799316 22.3968505859375 10.04434967041016 17.85157585144043 13.94796276092529 13.94796276092529 C 17.85157585144043 10.04434967041016 22.3968505859375 6.979737281799316 27.45755004882812 4.839250087738037 C 32.69618606567383 2.62348747253418 38.26187515258789 1.5 44 1.5 C 49.73812484741211 1.5 55.30381393432617 2.62348747253418 60.54246139526367 4.839250087738037 C 65.6031494140625 6.979737281799316 70.1484375 10.04434967041016 74.05204010009766 13.94796276092529 C 77.95565032958984 17.85157585144043 81.020263671875 22.3968505859375 83.16075897216797 27.45755004882812 C 85.37651062011719 32.69618606567383 86.5 38.26187515258789 86.5 44 C 86.5 49.73812484741211 85.37651062011719 55.30381393432617 83.16075897216797 60.54246139526367 C 81.020263671875 65.6031494140625 77.95565032958984 70.1484375 74.05204010009766 74.05204010009766 C 70.1484375 77.95565032958984 65.6031494140625 81.020263671875 60.54246139526367 83.16075897216797 C 55.30381393432617 85.37651062011719 49.73812484741211 86.5 44 86.5 Z" stroke="none"/>
                              <path d="M 44 3 C 38.46371459960938 3 33.09462738037109 4.083610534667969 28.0418701171875 6.220756530761719 C 23.15997314453125 8.285614013671875 18.77495574951172 11.24228668212891 15.00862884521484 15.00862884521484 C 11.24228668212891 18.77495574951172 8.285614013671875 23.15997314453125 6.220756530761719 28.0418701171875 C 4.083610534667969 33.09462738037109 3 38.46371459960938 3 44 C 3 49.53628540039062 4.083610534667969 54.9053840637207 6.220756530761719 59.9581298828125 C 8.285614013671875 64.84002685546875 11.24228668212891 69.22504425048828 15.00862884521484 72.99138641357422 C 18.77495574951172 76.75771331787109 23.15997314453125 79.71438598632812 28.0418701171875 81.77925872802734 C 33.09462738037109 83.9163818359375 38.46371459960938 85 44 85 C 49.53628540039062 85 54.9053840637207 83.9163818359375 59.95814514160156 81.77925872802734 C 64.84002685546875 79.71438598632812 69.22504425048828 76.75771331787109 72.99138641357422 72.99138641357422 C 76.75771331787109 69.22504425048828 79.71438598632812 64.84002685546875 81.77925872802734 59.95814514160156 C 83.9163818359375 54.9053840637207 85 49.53628540039062 85 44 C 85 38.46371459960938 83.9163818359375 33.09462738037109 81.77925872802734 28.0418701171875 C 79.71438598632812 23.15997314453125 76.75771331787109 18.77495574951172 72.99138641357422 15.00862884521484 C 69.22504425048828 11.24228668212891 64.84002685546875 8.285614013671875 59.9581298828125 6.220756530761719 C 54.9053840637207 4.083610534667969 49.53628540039062 3 44 3 M 44 0 C 68.30054473876953 0 88 19.69947052001953 88 44 C 88 68.30054473876953 68.30054473876953 88 44 88 C 19.69947052001953 88 0 68.30054473876953 0 44 C 0 19.69947052001953 19.69947052001953 0 44 0 Z" stroke="none" fill="#1d7083"/>
                            </g>
                          </g>
                        </g>
                      </g>
                    </g>
                  </g>
                </g>
              </g>
            </g>
          </g>
        </g>
      </g>
    </g>
    <g id="g6171" transform="translate(191.639 5470.304)">
      <g id="g6173" transform="translate(0 -682.665)">
        <g id="g6175" clip-path="url(#clip-path)">
          <g id="g6181" transform="translate(13.244 11.182)">
            <path id="path6183" d="M-88.135-83.12c-.67.67-3.577,2.841-4.522,2.841-1.913,0-3.464-2.322-3.464-5.187s1.551-5.186,3.464-5.186c1.556,0,2.873,1.537,3.31,3.652a.093.093,0,0,0,.132.065c.919-.443,1.779-.482,2.246-.016.736.736.214,2.451-1.166,3.831" transform="translate(96.121 90.652)" fill="#ffcebf"/>
          </g>
          <g id="g6185" transform="translate(14.99 11.182)">
            <path id="path6187" d="M-81.738-40.844c-.467-.467-1.327-.427-2.246.016a.094.094,0,0,1-.133-.065c-.437-2.114-1.754-3.651-3.31-3.651a2.609,2.609,0,0,0-1.662.635,4.438,4.438,0,0,1,1.137,1.493,2.222,2.222,0,0,0,1.992,1.239,1.249,1.249,0,0,1,.9.333c.736.736.214,2.451-1.166,3.831a19.715,19.715,0,0,1-2.917,2.157,2.631,2.631,0,0,0,1.718.684c.945,0,3.852-2.17,4.522-2.841,1.38-1.38,1.9-3.1,1.166-3.831" transform="translate(89.145 44.545)" fill="#ffb09e"/>
          </g>
          <g id="g6189" transform="translate(13.119 20.353)">
            <path id="path6191" d="M-472-312.822v6.082a1.108,1.108,0,0,1-1.108,1.108h-31.02a1.108,1.108,0,0,1-1.108-1.108V-310.6a3.35,3.35,0,0,0-1.277-2.628c-3.163-2.5-10.864-10.52-7.368-27.475a.589.589,0,0,1,.583-.469l3.939.039a.591.591,0,0,1,.583.615c-.418,10.664,4.833,15.5,7.081,17.078a3.4,3.4,0,0,0,1.948.611H-482a10,10,0,0,1,10,10" transform="translate(514.768 341.169)" fill="#5f99d7"/>
          </g>
          <g id="g6193" transform="translate(14.401 20.353)">
            <path id="path6195" d="M-8.916-.432a.591.591,0,0,1,.583.615c-.418,10.664,4.833,15.5,7.081,17.078A3.4,3.4,0,0,0,.7,17.873H4.021a3.4,3.4,0,0,1-1.948-.611C-.176,15.687-5.427,10.847-5.009.183a.591.591,0,0,0-.583-.615L-9.531-.471a.592.592,0,0,0-.193.031Z" transform="translate(9.724 0.471)" fill="#3c87d0"/>
          </g>
          <g id="g6197" transform="translate(42.563 38.697)">
            <path id="path6199" d="M-36.676,0H-40A10,10,0,0,1-30,10v6.082A1.108,1.108,0,0,1-31.1,17.194h3.324a1.108,1.108,0,0,0,1.108-1.108V10a10,10,0,0,0-10-10" transform="translate(40)" fill="#3c87d0"/>
          </g>
          <g id="g6201" transform="translate(33.453 42.621)">
            <path id="path6203" d="M-64.23,0l6.144,1.915-3.6,11.355h-5.177L-70.05,1.881Z" transform="translate(70.05)" fill="#b3ceec"/>
          </g>
          <path id="path6205" d="M439.313-288.988h-6.647V-299.8h6.647Z" transform="translate(-396.716 331.609)" fill="#ffcebf"/>
          <path id="path6207" d="M472.665-288.988h3.324V-299.8h-3.324Z" transform="translate(-433.392 331.609)" fill="#ffb09e"/>
          <g id="g6209" transform="translate(32.167 36.092)">
            <path id="path6211" d="M-41.742,0a8.684,8.684,0,0,0,3.324,6.528s-2.071,2.312-4.165,1.578c-1.66-.582-2.6-3.677-2.917-4.938a.779.779,0,0,1,.319-.835Z" transform="translate(45.524)" fill="#e5eef9"/>
          </g>
          <g id="g6213" transform="translate(39.273 36.092)">
            <path id="path6215" d="M-36.676,0A8.684,8.684,0,0,1-40,6.528s2.071,2.312,4.165,1.578c1.66-.582,2.6-3.677,2.917-4.938a.779.779,0,0,0-.319-.835Z" transform="translate(40)" fill="#e5eef9"/>
          </g>
          <g id="g6217" transform="translate(23.865 16.368)">
            <path id="path6219" d="M-68.437-48.431c0,2.424-1.482,4.389-3.311,4.389s-2.891-2.256-2.891-4.68,1.062-4.1,2.891-4.1,3.311,1.965,3.311,4.389" transform="translate(74.638 52.82)" fill="#ffb09e"/>
          </g>
          <g id="g6221" transform="translate(48.48 16.368)">
            <path id="path6223" d="M0-48.431c0,2.424,1.482,4.389,3.311,4.389S6.2-46.3,6.2-48.723s-1.062-4.1-2.891-4.1S0-50.855,0-48.431" transform="translate(0 52.82)" fill="#ffb09e"/>
          </g>
          <g id="g6225" transform="translate(28.588 5.301)">
            <path id="path6227" d="M0-198.16v-7.271a10.686,10.686,0,0,1,10.686-10.686,10.686,10.686,0,0,1,10.686,10.686v7.231a10.706,10.706,0,0,1-10.706,10.706A10.665,10.665,0,0,1,0-198.16" transform="translate(0 216.117)" fill="#ffcebf"/>
          </g>
          <g id="g6229" transform="translate(37.593 5.301)">
            <path id="path6231" d="M-18.541,0h0A10.756,10.756,0,0,0-20.2.129a10.688,10.688,0,0,1,9.024,10.557v7.231a10.708,10.708,0,0,1-9.042,10.577,10.747,10.747,0,0,0,1.66.129A10.706,10.706,0,0,0-7.855,17.917V10.686A10.686,10.686,0,0,0-18.541,0" transform="translate(20.221)" fill="#ffb09e"/>
          </g>
          <g id="g6233" transform="translate(26.992 0.831)">
            <path id="path6235" d="M-259.455-192.685a12.938,12.938,0,0,0-.544,2.666s-2.465-1.836-2.392-2.534c.118-1.116.763-7.969-2.055-7.323s-3.978,1.116-6.334,1.116-3.515-.47-6.334-1.116-2.171,6.207-2.055,7.323c.074.7-2.2,2.527-2.2,2.527a18.7,18.7,0,0,0-.732-2.66c-.289-.62-3.421-10.171,4.37-13.65a14,14,0,0,0,3.417-2.178,8.319,8.319,0,0,1,5.292-1.633c3.523,0,6.378,1.655,6.378,3.7v.005a1.006,1.006,0,0,0,.45.852c5.92,3.862,3.141,12.047,2.741,12.906" transform="translate(282.966 210.146)" fill="#9b5e5e"/>
          </g>
          <g id="g6237" transform="translate(39.274 0.831)">
            <path id="path6239" d="M-93.674-50.266a1.006,1.006,0,0,1-.45-.852v-.005c0-2.043-2.855-3.7-6.378-3.7a10.786,10.786,0,0,0-1.661.128c2.716.424,4.715,1.861,4.715,3.57v.005a1.006,1.006,0,0,0,.45.852c4.57,2.981,3.956,8.538,3.254,11.313-.033.8-.1,1.445-.126,1.726-.073.7,2.392,2.534,2.392,2.534a12.938,12.938,0,0,1,.544-2.666c.4-.859,3.179-9.044-2.741-12.906" transform="translate(102.162 54.821)" fill="#855151"/>
          </g>
          <g id="g6241" transform="translate(27.866 37.99)">
            <path id="path6243" d="M-58.315,0-54.3,17.9h-2.492l-4.168-5.473a.443.443,0,0,1-.089-.312l.392-4.009a.443.443,0,0,0-.177-.4L-63.42,5.785a.443.443,0,0,1-.165-.465l1-3.942a.443.443,0,0,1,.315-.319Z" transform="translate(63.599)" fill="#0078c8"/>
          </g>
          <g id="g6245" transform="translate(41.383 37.982)">
            <path id="path6247" d="M-44.153,0l-4,17.909h2.492l4.168-5.473a.444.444,0,0,0,.089-.312L-41.8,8.115a.443.443,0,0,1,.176-.4l2.585-1.923a.443.443,0,0,0,.165-.465l-1-3.943a.443.443,0,0,0-.314-.319Z" transform="translate(48.155)" fill="#0078c8"/>
          </g>
          <g id="g6249" transform="translate(0.831 0.831)">
            <path id="path6251" d="M-84.8-10.15l.572,1.161A1.947,1.947,0,0,0-82.76-7.923l1.279.186a1.651,1.651,0,0,1,.913,2.815l-.925.9a1.951,1.951,0,0,0-.56,1.725l.218,1.276A1.648,1.648,0,0,1-84.225.722l-1.144-.6a1.944,1.944,0,0,0-1.811,0l-1.144.6a1.648,1.648,0,0,1-2.391-1.74l.219-1.276a1.951,1.951,0,0,0-.56-1.725l-.926-.9a1.651,1.651,0,0,1,.913-2.815l1.279-.186a1.946,1.946,0,0,0,1.465-1.066l.572-1.161a1.647,1.647,0,0,1,2.955,0" transform="translate(92.482 11.07)" fill="#ffc344"/>
          </g>
          <g id="g6253" transform="translate(4.957 0.831)">
            <path id="path6255" d="M-75.86-36.782l-1.279-.186A1.946,1.946,0,0,1-78.6-38.034l-.572-1.161a1.647,1.647,0,0,0-2.955,0l-.572,1.161c-.01.02-.02.039-.031.058.008.014.016.028.023.043l.572,1.161a1.947,1.947,0,0,0,1.466,1.066l1.279.186a1.651,1.651,0,0,1,.913,2.815l-.926.9a1.951,1.951,0,0,0-.56,1.725l.2,1.14.023.011,1.144.6a1.648,1.648,0,0,0,2.391-1.74l-.218-1.276a1.951,1.951,0,0,1,.56-1.725l.925-.9a1.651,1.651,0,0,0-.913-2.815" transform="translate(82.734 40.115)" fill="#feb237"/>
          </g>
          <g id="g6257" transform="translate(13.244 11.182)">
            <path id="path6259" d="M-13.206-100.5a6.5,6.5,0,0,1-1.2-3.921c0-2.864,1.551-5.186,3.464-5.186,1.556,0,2.873,1.537,3.31,3.652a.093.093,0,0,0,.132.065c.919-.443,1.779-.482,2.246-.016.736.736.214,2.451-1.166,3.831a18.406,18.406,0,0,1-2.252,1.735" transform="translate(14.403 109.609)" fill="none" stroke="#000" stroke-linecap="round" stroke-linejoin="round" stroke-miterlimit="10" stroke-width="1.5"/>
          </g>
          <g id="g6261" transform="translate(13.119 20.353)">
            <path id="path6263" d="M-18.939-206.621c-1.648-4.369-2.457-10.338-.825-18.255a.589.589,0,0,1,.583-.469l3.939.039a.591.591,0,0,1,.583.615c-.418,10.664,4.833,15.5,7.081,17.078A3.4,3.4,0,0,0-5.629-207h2.336" transform="translate(20.656 225.345)" fill="none" stroke="#000" stroke-linecap="round" stroke-linejoin="round" stroke-miterlimit="10" stroke-width="1.5"/>
          </g>
          <g id="g6265" transform="translate(16.498 39.46)">
            <path id="path6267" d="M-366.7,0a10.007,10.007,0,0,1,6.164,9.24v6.082a1.108,1.108,0,0,1-1.108,1.108h-31.02a1.108,1.108,0,0,1-1.108-1.108V11.465a3.35,3.35,0,0,0-1.277-2.628,20.381,20.381,0,0,1-4.881-5.719" transform="translate(399.924)" fill="none" stroke="#000" stroke-linecap="round" stroke-linejoin="round" stroke-miterlimit="10" stroke-width="1.5"/>
          </g>
          <g id="g6269" transform="translate(35.95 33.558)">
            <path id="path6271" d="M0-27.969V-30.5" transform="translate(0 30.504)" fill="none" stroke="#000" stroke-linecap="round" stroke-linejoin="round" stroke-miterlimit="10" stroke-width="1.5"/>
          </g>
          <g id="g6273" transform="translate(42.597 33.589)">
            <path id="path6275" d="M0,0V2.5" fill="none" stroke="#000" stroke-linecap="round" stroke-linejoin="round" stroke-miterlimit="10" stroke-width="1.5"/>
          </g>
          <g id="g6277" transform="translate(33.151 36.092)">
            <path id="path6279" d="M0-20.946l2.8-1.9a8.684,8.684,0,0,0,3.324,6.528S4.052-14,1.957-14.738a2.108,2.108,0,0,1-.589-.328" transform="translate(0 22.844)" fill="none" stroke="#000" stroke-linecap="round" stroke-linejoin="round" stroke-miterlimit="10" stroke-width="1.5"/>
          </g>
          <g id="g6281" transform="translate(39.273 36.092)">
            <path id="path6283" d="M-67.433-20.857l-2.787-1.89a8.684,8.684,0,0,1-3.324,6.528s2.071,2.312,4.165,1.578a2.11,2.11,0,0,0,.589-.328" transform="translate(73.544 22.747)" fill="none" stroke="#000" stroke-linecap="round" stroke-linejoin="round" stroke-miterlimit="10" stroke-width="1.5"/>
          </g>
          <g id="g6285" transform="translate(23.865 16.368)">
            <path id="path6287" d="M-38.241-.734A2.494,2.494,0,0,0-38.816-.8c-1.829,0-2.89,1.673-2.89,4.1s1.061,4.681,2.89,4.681a2.778,2.778,0,0,0,1.889-.784" transform="translate(41.707 0.8)" fill="none" stroke="#000" stroke-linecap="round" stroke-linejoin="round" stroke-miterlimit="10" stroke-width="1.5"/>
          </g>
          <g id="g6289" transform="translate(49.897 16.368)">
            <path id="path6291" d="M-12.97-1.137a2.56,2.56,0,0,1,.718-.1c1.829,0,2.89,1.673,2.89,4.1s-1.061,4.681-2.89,4.681a2.778,2.778,0,0,1-1.893-.789" transform="translate(14.145 1.24)" fill="none" stroke="#000" stroke-linecap="round" stroke-linejoin="round" stroke-miterlimit="10" stroke-width="1.5"/>
          </g>
          <g id="g6293" transform="translate(28.588 20.952)">
            <path id="path6295" d="M-235.829-.073V2.186a10.706,10.706,0,0,1-10.705,10.706,10.627,10.627,0,0,1-7.541-3.124A10.628,10.628,0,0,1-257.2,2.227V-.08" transform="translate(257.199 0.08)" fill="none" stroke="#000" stroke-linecap="round" stroke-linejoin="round" stroke-miterlimit="10" stroke-width="1.5"/>
          </g>
          <g id="g6297" transform="translate(26.992 0.831)">
            <path id="path6299" d="M-266.8-102.971a14.327,14.327,0,0,1-.666,8.13,12.937,12.937,0,0,0-.544,2.666s-2.465-1.836-2.392-2.534c.118-1.116.763-7.969-2.055-7.323s-3.978,1.116-6.334,1.116-3.515-.47-6.333-1.116-2.171,6.207-2.055,7.323c.074.7-2.2,2.527-2.2,2.527a18.712,18.712,0,0,0-.732-2.66c-.289-.62-3.421-10.171,4.37-13.65a14,14,0,0,0,3.417-2.178,8.319,8.319,0,0,1,5.292-1.633c3.523,0,6.378,1.655,6.378,3.7v.006a1.006,1.006,0,0,0,.45.852,8.134,8.134,0,0,1,1.623,1.383" transform="translate(290.976 112.302)" fill="none" stroke="#000" stroke-linecap="round" stroke-linejoin="round" stroke-miterlimit="10" stroke-width="1.5"/>
          </g>
          <g id="g6325" transform="translate(27.866 37.99)">
            <path id="path6327" d="M-58.315,0-54.3,17.9h-2.492l-4.168-5.473a.443.443,0,0,1-.089-.312l.392-4.009a.443.443,0,0,0-.177-.4L-63.42,5.785a.443.443,0,0,1-.165-.465l1-3.942a.443.443,0,0,1,.315-.319Z" transform="translate(63.599)" fill="none" stroke="#000" stroke-linecap="round" stroke-linejoin="round" stroke-miterlimit="10" stroke-width="1.5"/>
          </g>
          <g id="g6329" transform="translate(41.383 37.982)">
            <path id="path6331" d="M-44.153,0l-4,17.909h2.492l4.168-5.473a.444.444,0,0,0,.089-.312L-41.8,8.115a.443.443,0,0,1,.176-.4l2.585-1.923a.443.443,0,0,0,.165-.465l-1-3.943a.443.443,0,0,0-.314-.319Z" transform="translate(48.155)" fill="none" stroke="#000" stroke-linecap="round" stroke-linejoin="round" stroke-miterlimit="10" stroke-width="1.5"/>
          </g>
          <g id="g6333" transform="translate(0.831 0.831)">
            <path id="path6335" d="M-84.8-10.15l.572,1.161A1.947,1.947,0,0,0-82.76-7.923l1.279.186a1.651,1.651,0,0,1,.913,2.815l-.925.9a1.951,1.951,0,0,0-.56,1.725l.218,1.276A1.648,1.648,0,0,1-84.225.722l-1.144-.6a1.944,1.944,0,0,0-1.811,0l-1.144.6a1.648,1.648,0,0,1-2.391-1.74l.219-1.276a1.951,1.951,0,0,0-.56-1.725l-.926-.9a1.651,1.651,0,0,1,.913-2.815l1.279-.186a1.946,1.946,0,0,0,1.465-1.066l.572-1.161A1.647,1.647,0,0,1-84.8-10.15Z" transform="translate(92.482 11.07)" fill="none" stroke="#000" stroke-linecap="round" stroke-linejoin="round" stroke-miterlimit="10" stroke-width="1.5"/>
          </g>
        </g>
      </g>
    </g>
  </g>
</svg>
