<svg xmlns="http://www.w3.org/2000/svg" width="27.945" height="28.715" viewBox="0 0 27.945 28.715">
  <path id="productivity_12724783" d="M27.072,13.247a7.7,7.7,0,0,0-5.151,1.97l-.491-.491a1,1,0,0,0-1.168-.186l-.993.508a.1.1,0,0,1-.1,0c-.148-.068-.3-.131-.458-.19a.093.093,0,0,1-.064-.067L18.3,13.728a1,1,0,0,0-.957-.7H15.724a1,1,0,0,0-.956.7l-.347,1.063a.092.092,0,0,1-.067.068c-.154.058-.307.121-.457.19a.092.092,0,0,1-.094,0l-1-.507a1,1,0,0,0-1.168.186l-1.146,1.147a1,1,0,0,0-.184,1.168l.505.992a.1.1,0,0,1,0,.1q-.1.221-.191.459a.091.091,0,0,1-.067.063L9.5,19a1,1,0,0,0-.7.956v1.621a1,1,0,0,0,.7.957l1.062.345a.1.1,0,0,1,.068.067c.058.154.121.307.19.457a.1.1,0,0,1,0,.1l-.506.993a1,1,0,0,0,.183,1.17l1.146,1.146A1,1,0,0,0,12.805,27l1-.508a.091.091,0,0,1,.094,0c.14.064.293.128.454.188l.006,0a.091.091,0,0,1,.063.067l.346,1.061a1,1,0,0,0,.956.7h1.621a1,1,0,0,0,.957-.695l.345-1.064a.1.1,0,0,1,.067-.068c.154-.058.307-.121.457-.19a.1.1,0,0,1,.1,0l1,.508a1,1,0,0,0,1.167-.186l.27-.27a7.733,7.733,0,1,0,5.373-13.293ZM20.67,26.2l-.993-.506a.983.983,0,0,0-.881-.019c-.127.059-.26.114-.391.163a.983.983,0,0,0-.61.633L17.45,27.53a.1.1,0,0,1-.1.076H15.724a.1.1,0,0,1-.1-.075l-.347-1.063a.981.981,0,0,0-.608-.632c-.14-.053-.273-.108-.391-.163a.981.981,0,0,0-.879.016l-1,.508a.1.1,0,0,1-.126-.021l-1.146-1.146a.1.1,0,0,1-.019-.127l.508-1a.99.99,0,0,0,.015-.878c-.059-.128-.114-.26-.163-.391a.983.983,0,0,0-.632-.61l-1.061-.345a.1.1,0,0,1-.077-.1V19.956a.1.1,0,0,1,.077-.1l1.061-.346a.978.978,0,0,0,.632-.607c.05-.134.105-.266.163-.392a.994.994,0,0,0-.015-.881l-.509-1a.1.1,0,0,1,.021-.124l1.145-1.145a.106.106,0,0,1,.128-.022l.995.506a.982.982,0,0,0,.879.019c.128-.059.261-.114.39-.162a.98.98,0,0,0,.611-.632L15.622,14a.1.1,0,0,1,.1-.075h1.621a.1.1,0,0,1,.1.076l.345,1.062a.981.981,0,0,0,.607.632c.134.05.266.105.393.163a.99.99,0,0,0,.881-.015l.994-.508a.1.1,0,0,1,.127.021l.492.492a7.737,7.737,0,0,0-1.518,2.579,3.991,3.991,0,1,0-.1,4.8,7.718,7.718,0,0,0,1.42,2.649l-.3.3a.1.1,0,0,1-.126.021Zm-1.332-5.216a7.778,7.778,0,0,0,.059.962,3.093,3.093,0,1,1,.045-2.23,7.744,7.744,0,0,0-.1,1.268Zm7.734,6.838A6.847,6.847,0,0,1,20.3,21.944c0-.007,0-.013,0-.02a6.837,6.837,0,0,1,.044-2.166s0,0,0,0a6.838,6.838,0,1,1,6.727,8.064Zm0-12.463A5.625,5.625,0,1,0,32.7,20.981,5.631,5.631,0,0,0,27.072,15.356Zm0,10.353a4.728,4.728,0,1,1,4.73-4.728,4.734,4.734,0,0,1-4.73,4.728Zm2.838-4.728a.448.448,0,0,1-.448.448H27.072a.448.448,0,0,1-.448-.448v-2.39a.448.448,0,1,1,.9,0v1.941h1.941a.449.449,0,0,1,.448.449ZM15.7,8.965l4.074,4.074a1.818,1.818,0,0,0,2.513.051.45.45,0,0,0,.056-.048L30.215,5.17,31.3,6.252a.752.752,0,0,0,1.285-.532V.754A.754.754,0,0,0,31.829,0H26.862a.744.744,0,0,0-.7.467.752.752,0,0,0,.164.818L27.643,2.6l-6.59,6.589-3.98-3.98c-.027-.03-.057-.064-.091-.1A1.8,1.8,0,0,0,15.7,4.576h0a1.808,1.808,0,0,0-1.287.533L7.393,12.126A1.819,1.819,0,1,0,9.966,14.7ZM8.679,14.335a.922.922,0,0,1-.653-1.574l7.017-7.018a.917.917,0,0,1,.653-.27h0a.913.913,0,0,1,.651.27c.023.023.044.047.066.071l.017.018,4.305,4.305a.448.448,0,0,0,.634,0l7.009-7.006a.756.756,0,0,0,0-1.067L27.21.9h4.476V5.372l-.937-.937a.756.756,0,0,0-1.067,0l-7.928,7.928a.415.415,0,0,0-.048.042.92.92,0,0,1-1.3,0L16.017,8.014a.448.448,0,0,0-.634,0l-6.052,6.05a.917.917,0,0,1-.653.271Z" transform="translate(-6.86)"/>
</svg>
