<svg xmlns="http://www.w3.org/2000/svg" xmlns:xlink="http://www.w3.org/1999/xlink" width="108" height="108" viewBox="0 0 108 108">
  <defs>
    <filter id="Trazado_904820" x="0" y="0" width="108" height="108" filterUnits="userSpaceOnUse">
      <feOffset dy="3" input="SourceAlpha"/>
      <feGaussianBlur stdDeviation="3" result="blur"/>
      <feFlood flood-opacity="0.161"/>
      <feComposite operator="in" in2="blur"/>
      <feComposite in="SourceGraphic"/>
    </filter>
  </defs>
  <g id="Grupo_1173840" data-name="Grupo 1173840" transform="translate(-200 -413)">
    <g transform="matrix(1, 0, 0, 1, 200, 413)" filter="url(#Trazado_904820)">
      <g id="Trazado_904820-2" data-name="Trazado 904820" transform="translate(9 6)" fill="#fff4e6">
        <path d="M 44.99999618530273 88.49999237060547 C 39.12687301635742 88.49999237060547 33.43022155761719 87.35006713867188 28.06829643249512 85.08216857910156 C 22.88852119445801 82.89130401611328 18.23629570007324 79.75457763671875 14.24084663391113 75.75914001464844 C 10.24540901184082 71.76369476318359 7.108683586120605 67.11146545410156 4.917821407318115 61.93169403076172 C 2.649921178817749 56.56976699829102 1.499996185302734 50.87311553955078 1.499996185302734 44.99999237060547 C 1.499996185302734 39.12686920166016 2.649921178817749 33.43021774291992 4.917821407318115 28.06829261779785 C 7.108683586120605 22.88851737976074 10.24540901184082 18.23630523681641 14.24084663391113 14.24085521697998 C 18.23629570007324 10.24540519714355 22.88852119445801 7.108692169189453 28.06829643249512 4.917829990386963 C 33.43022155761719 2.649929761886597 39.12687301635742 1.500004887580872 44.99999618530273 1.500004887580872 C 50.87311935424805 1.500004887580872 56.56977081298828 2.649929761886597 61.93169784545898 4.917829990386963 C 67.11147308349609 7.108692169189453 71.76369476318359 10.24540519714355 75.75914764404297 14.24085521697998 C 79.75458526611328 18.23630523681641 82.89131164550781 22.88851737976074 85.08216857910156 28.06829261779785 C 87.35007476806641 33.43021774291992 88.5 39.12686920166016 88.5 44.99999237060547 C 88.5 50.87311553955078 87.35007476806641 56.56976699829102 85.08216857910156 61.93169403076172 C 82.89131164550781 67.11146545410156 79.75458526611328 71.76369476318359 75.75914764404297 75.75914001464844 C 71.76369476318359 79.75457763671875 67.11147308349609 82.89130401611328 61.93169784545898 85.08216857910156 C 56.56977081298828 87.35006713867188 50.87311935424805 88.49999237060547 44.99999618530273 88.49999237060547 Z" stroke="none"/>
        <path d="M 44.99999618530273 2.999992370605469 C 39.32870864868164 2.999992370605469 33.82865142822266 4.11004638671875 28.65262603759766 6.299331665039062 C 23.65165710449219 8.414566040039062 19.15968322753906 11.44333648681641 15.301513671875 15.30150604248047 C 11.44333648681641 19.15967559814453 8.414566040039062 23.65164947509766 6.299339294433594 28.65262222290039 C 4.110054016113281 33.82864761352539 2.999992370605469 39.32870483398438 2.999992370605469 44.99999237060547 C 2.999992370605469 50.67127990722656 4.110054016113281 56.17132186889648 6.299339294433594 61.34736633300781 C 8.414566040039062 66.34833526611328 11.44333648681641 70.84029388427734 15.301513671875 74.69846343994141 C 19.15968322753906 78.55663299560547 23.65165710449219 81.58540344238281 28.65262603759766 83.70063781738281 C 33.82865142822266 85.88992309570312 39.32870864868164 86.99997711181641 44.99999618530273 86.99997711181641 C 50.67128372192383 86.99997711181641 56.17134094238281 85.88992309570312 61.34736633300781 83.70063781738281 C 66.34834289550781 81.58540344238281 70.84030914306641 78.55663299560547 74.69847869873047 74.69846343994141 C 78.55665588378906 70.84029388427734 81.58542633056641 66.34833526611328 83.70065307617188 61.34736633300781 C 85.88993835449219 56.17132186889648 87 50.67127990722656 87 44.99999237060547 C 87 39.32870483398438 85.88993835449219 33.82864761352539 83.70065307617188 28.65262222290039 C 81.58542633056641 23.65164947509766 78.55665588378906 19.15967559814453 74.69847869873047 15.30150604248047 C 70.84030914306641 11.44333648681641 66.34834289550781 8.414566040039062 61.34736633300781 6.299331665039062 C 56.17134094238281 4.11004638671875 50.67128372192383 2.999992370605469 44.99999618530273 2.999992370605469 M 44.99999618530273 -7.62939453125e-06 C 69.85281372070312 -7.62939453125e-06 90 20.14717864990234 90 44.99999237060547 C 90 69.85279083251953 69.85281372070312 89.99997711181641 44.99999618530273 89.99997711181641 C 20.14717864990234 89.99997711181641 -7.62939453125e-06 69.85279083251953 -7.62939453125e-06 44.99999237060547 C -7.62939453125e-06 20.14717864990234 20.14717864990234 -7.62939453125e-06 44.99999618530273 -7.62939453125e-06 Z" stroke="none" fill="#ff9d1c"/>
      </g>
    </g>
    <g id="Layer_x0020_1" transform="translate(225.273 433.903)">
      <path id="Trazado_1030904" data-name="Trazado 1030904" d="M15.662,48.322a.991.991,0,0,1-.8-.4L11.573,43.6h-1.4a6.185,6.185,0,0,0-6.183,6.15v4.155H8.582V50.748a1,1,0,0,1,1.994,0v3.158H26.5V50.748a1,1,0,0,1,1.994,0v3.158H33.08V49.751A6.164,6.164,0,0,0,26.9,43.6H25.534L22.21,47.923a.983.983,0,0,1-1.562,0L18.554,45.3l-2.127,2.626A1.029,1.029,0,0,1,15.662,48.322Zm33.407,1.3H48.5v2.028c.632,0,1.861-.133,1.861,1,0,1.163-1.23,1-1.861,1,0,.864.233,2.26-1,2.26h-4.72c-1.2,0-1-1.4-1-2.26-.632,0-1.828.166-1.828-1,0-1.13,1.2-1,1.828-1V49.618c-.532,0-1.562.033-1.562-1V45.729a13.429,13.429,0,1,1,9.839,0v2.892A1,1,0,0,1,49.069,49.618Zm-6.848-1.994h5.85V45.031a.987.987,0,0,1,.7-.931,11.451,11.451,0,1,0-7.213,0,1,1,0,0,1,.665.931Zm1.562,6.282h2.726V49.618H43.783Zm9.374-19.678a.979.979,0,0,1-1-1,7.014,7.014,0,0,0-14.028,0,1,1,0,0,1-1.994,0,9.008,9.008,0,0,1,18.016,0A1,1,0,0,1,53.157,34.228ZM45.146,17.441a1.022,1.022,0,0,1-1-1V13.253a1,1,0,0,1,1.994,0v3.191A1,1,0,0,1,45.146,17.441Zm8.41,2.26a.994.994,0,0,1-.864-1.5l1.6-2.759a1,1,0,0,1,1.729,1L54.42,19.2A1.08,1.08,0,0,1,53.556,19.7ZM32.448,20.765H30.022a5.428,5.428,0,0,1-.9,5.119c1.13,3.258-1.629,7.745-2.892,9.075a9.423,9.423,0,0,1-2.161,1.828v2.194L25.6,41.607h1.3a8.164,8.164,0,0,1,8.177,8.144V54.9a1,1,0,0,1-1,1H3a1,1,0,0,1-1-1V49.751a8.186,8.186,0,0,1,8.177-8.144h1.3L13,38.981V36.787A9.719,9.719,0,0,1,9.113,32.2c-.665-1.429-1.662-4.022-1.13-6.15-1.895-3.125-.532-15.457,9.141-12.931,2.792.7,2.825,1.363,4.487,1.729l1.429-1.463a3.355,3.355,0,0,1-.233-.5c-3.59,0-3.058.5-3.058-4.787a1,1,0,0,1,1-1h2.061a2.573,2.573,0,0,1,.233-.532L21.579,5.109a.964.964,0,0,1,0-1.4C25.335-.044,24.6-.077,27.13,2.483c.166-.066.332-.166.532-.233,0-3.59-.532-3.058,4.787-3.058a1.022,1.022,0,0,1,1,1V2.25a3.355,3.355,0,0,1,.5.233C36.5-.077,35.772-.044,39.5,3.713a.964.964,0,0,1,0,1.4L38.033,6.571a2.573,2.573,0,0,1,.233.532c3.59,0,3.058-.532,3.058,4.787a1.022,1.022,0,0,1-1,1H38.266a3.355,3.355,0,0,1-.233.5c2.56,2.56,2.526,1.828-1.2,5.551a1,1,0,0,1-1.429,0l-1.463-1.463a3.355,3.355,0,0,1-.5.233v2.061A1.022,1.022,0,0,1,32.448,20.765Zm-2.759-1.994h1.762c0-3.49-.033-2.094,2.194-3.357.9-.532,1.6.532,2.46,1.429l1.3-1.3c-.9-.9-1.961-1.562-1.429-2.46,1.263-2.227-.133-2.194,3.357-2.194V9.1c-3.49,0-2.094,0-3.357-2.227-.532-.9.532-1.562,1.429-2.46L36.1,3.148c-.9.864-1.562,1.928-2.46,1.4-2.227-1.263-2.194.166-2.194-3.357H29.656c0,3.524,0,2.094-2.227,3.357-.9.532-1.562-.532-2.46-1.4L23.706,4.411c.864.9,1.928,1.562,1.4,2.46C23.839,9.1,25.268,9.1,21.745,9.1v1.795c3.524,0,2.094-.033,3.357,2.194.5.831-.332,1.4-1,2.061C27.928,15.413,29.623,15.845,29.689,18.771Zm.864-4.62A4.172,4.172,0,1,1,34.709,10,4.185,4.185,0,0,1,30.554,14.15Zm0-6.349a2.178,2.178,0,0,0,0,4.355C33.379,12.156,33.379,7.8,30.554,7.8ZM17.191,43.768l-2.958-2.925-1,1.7L15.662,45.7Zm-2.726-8.443a8.241,8.241,0,0,0,4.089,1.064c7.246,0,9.673-8.51,8.609-10.039a4.129,4.129,0,0,0-2.992-.831c-2.659,0-6.715,1.13-8.476.033a7.958,7.958,0,0,0-3.158-1.4c-.665,0-1.33.532-2.56,2.194-.366,1.1-.033,2.958.931,4.986A7.7,7.7,0,0,0,14.465,35.324ZM15,37.784v1.03l3.557,3.49,3.524-3.49v-1.03A10.565,10.565,0,0,1,15,37.784Zm7.845,3.058-2.958,2.925L21.413,45.7l2.427-3.158Zm1.33-17.318a6.687,6.687,0,0,1,3.59.8c1.23-2.094,0-2.825-.066-5.618,0-.831-.033-1.363-3.191-1.529-5.751-.332-4.255-1.2-7.878-2.127-6.349-1.662-7.845,5.086-7.246,8.875,2.393-2.692,4.255-1.994,7.346-.066.632.366,2.859.066,3.856-.066A32.6,32.6,0,0,1,24.172,23.524Z" transform="translate(0 0)" fill-rule="evenodd"/>
      <path id="Trazado_1030905" data-name="Trazado 1030905" d="M246.363,763.232c7.246,0,9.673-8.51,8.609-10.039a4.13,4.13,0,0,0-2.992-.831c-2.659,0-6.715,1.13-8.476.033a7.958,7.958,0,0,0-3.158-1.4c-.665,0-1.33.532-2.56,2.194-.366,1.1-.033,2.958.931,4.986a7.7,7.7,0,0,0,3.557,3.989A8.24,8.24,0,0,0,246.363,763.232Z" transform="translate(-227.809 -726.844)" fill="#ffc06d" fill-rule="evenodd"/>
      <path id="Trazado_1030906" data-name="Trazado 1030906" d="M400.08,1161a10.564,10.564,0,0,1-7.08,0v1.03l3.557,3.49,3.523-3.49Z" transform="translate(-378.003 -1123.216)" fill="#ffc06d" fill-rule="evenodd"/>
      <g id="Grupo_1173839" data-name="Grupo 1173839" transform="translate(3.994 40.842)">
        <path id="Trazado_1030907" data-name="Trazado 1030907" d="M343.956,1255.925,341,1253l-1,1.7,2.427,3.158Z" transform="translate(-330.759 -1253)" fill="#1d81ce" fill-rule="evenodd"/>
        <path id="Trazado_1030908" data-name="Trazado 1030908" d="M542.958,1253,540,1255.925l1.529,1.928,2.427-3.158Z" transform="translate(-524.111 -1253)" fill="#1d81ce" fill-rule="evenodd"/>
        <path id="Trazado_1030909" data-name="Trazado 1030909" d="M78.654,1340.321l-2.094-2.626-2.127,2.626a1.029,1.029,0,0,1-.765.4.991.991,0,0,1-.8-.4L69.579,1336h-1.4a6.185,6.185,0,0,0-6.183,6.15v4.155h4.587v-3.158a1,1,0,0,1,1.994,0v3.158H84.5v-3.158a1,1,0,0,1,1.994,0v3.158h4.587v-4.155A6.164,6.164,0,0,0,84.9,1336H83.54l-3.324,4.321A.983.983,0,0,1,78.654,1340.321Z" transform="translate(-62 -1333.241)" fill="#1d81ce" fill-rule="evenodd"/>
      </g>
      <path id="Trazado_1030910" data-name="Trazado 1030910" d="M227.823,478.288c.632.366,2.859.066,3.856-.066a32.607,32.607,0,0,1,3.59-.266,6.687,6.687,0,0,1,3.59.8c1.23-2.094,0-2.825-.066-5.618,0-.831-.033-1.363-3.191-1.529-5.751-.332-4.255-1.2-7.878-2.127-6.349-1.662-7.845,5.086-7.246,8.875C222.87,475.662,224.732,476.36,227.823,478.288Z" transform="translate(-211.098 -454.432)" fill="#633" fill-rule="evenodd"/>
      <path id="Trazado_1030911" data-name="Trazado 1030911" d="M967.435,684.454a7.008,7.008,0,0,0-7.014,6.98,1,1,0,1,1-1.994,0,9.008,9.008,0,0,1,18.016,0,1,1,0,0,1-1,1,.979.979,0,0,1-1-1A7.008,7.008,0,0,0,967.435,684.454Zm0-4.454a11.442,11.442,0,0,0-3.59,22.3,1,1,0,0,1,.665.931v2.593h5.85v-2.593a.987.987,0,0,1,.7-.931,11.449,11.449,0,0,0-3.623-22.3Z" transform="translate(-922.288 -658.204)" fill="#ffa721" fill-rule="evenodd"/>
      <path id="Trazado_1030912" data-name="Trazado 1030912" d="M607.9,74.227c.9-.532,1.6.532,2.46,1.429l1.3-1.3c-.9-.9-1.961-1.562-1.429-2.46,1.263-2.227-.133-2.194,3.357-2.194V67.911c-3.49,0-2.094,0-3.357-2.227-.532-.9.532-1.562,1.429-2.46l-1.3-1.263c-.9.864-1.562,1.928-2.46,1.4-2.227-1.263-2.194.166-2.194-3.357h-1.795c0,3.523,0,2.094-2.227,3.357-.9.532-1.562-.532-2.46-1.4l-1.263,1.263c.864.9,1.928,1.562,1.4,2.46-1.263,2.227.166,2.227-3.357,2.227v1.795c3.523,0,2.094-.033,3.357,2.194.5.831-.332,1.4-1,2.061,3.823.266,5.518.7,5.584,3.623h1.762C605.706,74.094,605.673,75.49,607.9,74.227Zm1.064-5.418a4.172,4.172,0,0,1-8.343,0,4.172,4.172,0,1,1,8.343,0Z" transform="translate(-574.255 -58.814)" fill="#25738b" fill-rule="evenodd"/>
      <path id="Trazado_1030913" data-name="Trazado 1030913" d="M1261.726,1517H1259v4.288h2.726Z" transform="translate(-1215.217 -1467.382)" fill="#dedede" fill-rule="evenodd"/>
    </g>
  </g>
</svg>
